<svg viewBox="-50 -50 100 100" xmlns="http://www.w3.org/2000/svg">
<polygon points="0,0 12,0 3.9231411216129217,0.780361288064513" class="zone" data-layer="1" data-zone="EST"/>
<polygon points="0,0 3.9231411216129217,0.780361288064513 5.54327719506772,2.2961005941905386" class="zone" data-layer="1" data-zone="EST"/>
<polygon points="0,0 5.54327719506772,2.2961005941905386 3.325878449210181,2.2222809320784087" class="zone" data-layer="1" data-zone="EST"/>
<polygon points="0,0 3.325878449210181,2.2222809320784087 8.485281374238571,8.48528137423857" class="zone" data-layer="1" data-zone="EST"/>
<polygon points="0,0 8.485281374238571,8.48528137423857 2.222280932078409,3.325878449210181" class="zone" data-layer="1" data-zone="SUD"/>
<polygon points="0,0 2.222280932078409,3.325878449210181 2.296100594190539,5.54327719506772" class="zone" data-layer="1" data-zone="SUD"/>
<polygon points="0,0 2.296100594190539,5.54327719506772 0.7803612880645133,3.9231411216129217" class="zone" data-layer="1" data-zone="SUD"/>
<polygon points="0,0 0.7803612880645133,3.9231411216129217 7.347880794884119e-16,12" class="zone" data-layer="1" data-zone="SUD"/>
<polygon points="0,0 7.347880794884119e-16,12 -0.7803612880645119,3.923141121612922" class="zone" data-layer="1" data-zone="SUD"/>
<polygon points="0,0 -0.7803612880645119,3.923141121612922 -2.2961005941905386,5.54327719506772" class="zone" data-layer="1" data-zone="SUD"/>
<polygon points="0,0 -2.2961005941905386,5.54327719506772 -2.222280932078409,3.3258784492101805" class="zone" data-layer="1" data-zone="SUD"/>
<polygon points="0,0 -2.222280932078409,3.3258784492101805 -8.48528137423857,8.485281374238571" class="zone" data-layer="1" data-zone="SUD"/>
<polygon points="0,0 -8.48528137423857,8.485281374238571 -3.3258784492101814,2.2222809320784087" class="zone" data-layer="1" data-zone="OUEST"/>
<polygon points="0,0 -3.3258784492101814,2.2222809320784087 -5.54327719506772,2.2961005941905395" class="zone" data-layer="1" data-zone="OUEST"/>
<polygon points="0,0 -5.54327719506772,2.2961005941905395 -3.9231411216129217,0.7803612880645127" class="zone" data-layer="1" data-zone="OUEST"/>
<polygon points="0,0 -3.9231411216129217,0.7803612880645127 -12,1.4695761589768238e-15" class="zone" data-layer="1" data-zone="OUEST"/>
<polygon points="0,0 -12,1.4695761589768238e-15 -3.923141121612922,-0.7803612880645117" class="zone" data-layer="1" data-zone="OUEST"/>
<polygon points="0,0 -3.923141121612922,-0.7803612880645117 -5.543277195067722,-2.2961005941905355" class="zone" data-layer="1" data-zone="OUEST"/>
<polygon points="0,0 -5.543277195067722,-2.2961005941905355 -3.325878449210181,-2.222280932078409" class="zone" data-layer="1" data-zone="OUEST"/>
<polygon points="0,0 -3.325878449210181,-2.222280932078409 -8.485281374238571,-8.48528137423857" class="zone" data-layer="1" data-zone="OUEST"/>
<polygon points="0,0 -8.485281374238571,-8.48528137423857 -2.222280932078412,-3.325878449210179" class="zone" data-layer="1" data-zone="NORD"/>
<polygon points="0,0 -2.222280932078412,-3.325878449210179 -2.296100594190537,-5.543277195067721" class="zone" data-layer="1" data-zone="NORD"/>
<polygon points="0,0 -2.296100594190537,-5.543277195067721 -0.7803612880645147,-3.9231411216129213" class="zone" data-layer="1" data-zone="NORD"/>
<polygon points="0,0 -0.7803612880645147,-3.9231411216129213 -2.204364238465236e-15,-12" class="zone" data-layer="1" data-zone="NORD"/>
<polygon points="0,0 -2.204364238465236e-15,-12 0.7803612880645132,-3.9231411216129217" class="zone" data-layer="1" data-zone="NORD"/>
<polygon points="0,0 0.7803612880645132,-3.9231411216129217 2.29610059419054,-5.54327719506772" class="zone" data-layer="1" data-zone="NORD"/>
<polygon points="0,0 2.29610059419054,-5.54327719506772 2.2222809320784074,-3.325878449210182" class="zone" data-layer="1" data-zone="NORD"/>
<polygon points="0,0 2.2222809320784074,-3.325878449210182 8.485281374238568,-8.485281374238571" class="zone" data-layer="1" data-zone="NORD"/>
<polygon points="0,0 8.485281374238568,-8.485281374238571 3.325878449210181,-2.2222809320784087" class="zone" data-layer="1" data-zone="EST"/>
<polygon points="0,0 3.325878449210181,-2.2222809320784087 5.543277195067721,-2.2961005941905372" class="zone" data-layer="1" data-zone="EST"/>
<polygon points="0,0 5.543277195067721,-2.2961005941905372 3.9231411216129213,-0.7803612880645149" class="zone" data-layer="1" data-zone="EST"/>
<polygon points="0,0 3.9231411216129213,-0.7803612880645149 12,-2.9391523179536475e-15" class="zone" data-layer="1" data-zone="EST"/>
<polygon points="12,0 23.53884672967753,4.682167728387078 24,0" class="zone" data-layer="2" data-zone="EST"/>
<polygon points="5.54327719506772,2.2961005941905386 23.53884672967753,4.682167728387078 22.17310878027088,9.184402376762154" class="zone" data-layer="2" data-zone="EST"/>
<polygon points="5.54327719506772,2.2961005941905386 19.955270695261085,13.333685592470452 22.17310878027088,9.184402376762154" class="zone" data-layer="2" data-zone="EST"/>
<polygon points="8.485281374238571,8.48528137423857 19.955270695261085,13.333685592470452 16.970562748477143,16.97056274847714" class="zone" data-layer="2" data-zone="EST"/>
<polygon points="8.485281374238571,8.48528137423857 13.333685592470456,19.955270695261085 16.970562748477143,16.97056274847714" class="zone" data-layer="2" data-zone="SUD"/>
<polygon points="2.296100594190539,5.54327719506772 13.333685592470456,19.955270695261085 9.184402376762156,22.17310878027088" class="zone" data-layer="2" data-zone="SUD"/>
<polygon points="2.296100594190539,5.54327719506772 4.68216772838708,23.53884672967753 9.184402376762156,22.17310878027088" class="zone" data-layer="2" data-zone="SUD"/>
<polygon points="7.347880794884119e-16,12 4.68216772838708,23.53884672967753 1.4695761589768238e-15,24" class="zone" data-layer="2" data-zone="SUD"/>
<polygon points="7.347880794884119e-16,12 -4.682167728387071,23.538846729677534 1.4695761589768238e-15,24" class="zone" data-layer="2" data-zone="SUD"/>
<polygon points="-2.2961005941905386,5.54327719506772 -4.682167728387071,23.538846729677534 -9.184402376762154,22.17310878027088" class="zone" data-layer="2" data-zone="SUD"/>
<polygon points="-2.2961005941905386,5.54327719506772 -13.333685592470456,19.955270695261085 -9.184402376762154,22.17310878027088" class="zone" data-layer="2" data-zone="SUD"/>
<polygon points="-8.48528137423857,8.485281374238571 -13.333685592470456,19.955270695261085 -16.97056274847714,16.970562748477143" class="zone" data-layer="2" data-zone="SUD"/>
<polygon points="-8.48528137423857,8.485281374238571 -19.95527069526109,13.333685592470452 -16.97056274847714,16.970562748477143" class="zone" data-layer="2" data-zone="OUEST"/>
<polygon points="-5.54327719506772,2.2961005941905395 -19.95527069526109,13.333685592470452 -22.17310878027088,9.184402376762158" class="zone" data-layer="2" data-zone="OUEST"/>
<polygon points="-5.54327719506772,2.2961005941905395 -23.53884672967753,4.682167728387076 -22.17310878027088,9.184402376762158" class="zone" data-layer="2" data-zone="OUEST"/>
<polygon points="-12,1.4695761589768238e-15 -23.53884672967753,4.682167728387076 -24,2.9391523179536475e-15" class="zone" data-layer="2" data-zone="OUEST"/>
<polygon points="-12,1.4695761589768238e-15 -23.538846729677534,-4.6821677283870695 -24,2.9391523179536475e-15" class="zone" data-layer="2" data-zone="OUEST"/>
<polygon points="-5.543277195067722,-2.2961005941905355 -23.538846729677534,-4.6821677283870695 -22.173108780270887,-9.184402376762142" class="zone" data-layer="2" data-zone="OUEST"/>
<polygon points="-5.543277195067722,-2.2961005941905355 -19.955270695261085,-13.333685592470456 -22.173108780270887,-9.184402376762142" class="zone" data-layer="2" data-zone="OUEST"/>
<polygon points="-8.485281374238571,-8.48528137423857 -19.955270695261085,-13.333685592470456 -16.970562748477143,-16.97056274847714" class="zone" data-layer="2" data-zone="OUEST"/>
<polygon points="-8.485281374238571,-8.48528137423857 -13.33368559247047,-19.955270695261074 -16.970562748477143,-16.97056274847714" class="zone" data-layer="2" data-zone="NORD"/>
<polygon points="-2.296100594190537,-5.543277195067721 -13.33368559247047,-19.955270695261074 -9.184402376762147,-22.173108780270883" class="zone" data-layer="2" data-zone="NORD"/>
<polygon points="-2.296100594190537,-5.543277195067721 -4.682167728387088,-23.538846729677527 -9.184402376762147,-22.173108780270883" class="zone" data-layer="2" data-zone="NORD"/>
<polygon points="-2.204364238465236e-15,-12 -4.682167728387088,-23.538846729677527 -4.408728476930472e-15,-24" class="zone" data-layer="2" data-zone="NORD"/>
<polygon points="-2.204364238465236e-15,-12 4.682167728387079,-23.53884672967753 -4.408728476930472e-15,-24" class="zone" data-layer="2" data-zone="NORD"/>
<polygon points="2.29610059419054,-5.54327719506772 4.682167728387079,-23.53884672967753 9.18440237676216,-22.17310878027088" class="zone" data-layer="2" data-zone="NORD"/>
<polygon points="2.29610059419054,-5.54327719506772 13.333685592470445,-19.955270695261092 9.18440237676216,-22.17310878027088" class="zone" data-layer="2" data-zone="NORD"/>
<polygon points="8.485281374238568,-8.485281374238571 13.333685592470445,-19.955270695261092 16.970562748477136,-16.970562748477143" class="zone" data-layer="2" data-zone="NORD"/>
<polygon points="8.485281374238568,-8.485281374238571 19.955270695261085,-13.333685592470452 16.970562748477136,-16.970562748477143" class="zone" data-layer="2" data-zone="EST"/>
<polygon points="5.543277195067721,-2.2961005941905372 19.955270695261085,-13.333685592470452 22.173108780270883,-9.184402376762149" class="zone" data-layer="2" data-zone="EST"/>
<polygon points="5.543277195067721,-2.2961005941905372 23.538846729677527,-4.682167728387089 22.173108780270883,-9.184402376762149" class="zone" data-layer="2" data-zone="EST"/>
<polygon points="12,-2.9391523179536475e-15 23.538846729677527,-4.682167728387089 24,-5.878304635907295e-15" class="zone" data-layer="2" data-zone="EST"/>
<polygon points="24,0 33.34669953370984,6.633070948548361 48,0" class="zone" data-layer="3" data-zone="EST"/>
<polygon points="22.17310878027088,9.184402376762154 33.34669953370984,6.633070948548361 44.34621756054176,18.36880475352431" class="zone" data-layer="3" data-zone="EST"/>
<polygon points="33.34669953370984,6.633070948548361 48,0 47.07769345935506,9.364335456774157" class="zone" data-layer="4" data-zone="EST"/>
<polygon points="33.34669953370984,6.633070948548361 44.34621756054176,18.36880475352431 47.07769345935506,9.364335456774157" class="zone" data-layer="4" data-zone="EST"/>
<polygon points="22.17310878027088,9.184402376762154 28.269966818286537,18.889387922666472 44.34621756054176,18.36880475352431" class="zone" data-layer="3" data-zone="EST"/>
<polygon points="16.970562748477143,16.97056274847714 28.269966818286537,18.889387922666472 33.941125496954285,33.94112549695428" class="zone" data-layer="3" data-zone="EST"/>
<polygon points="28.269966818286537,18.889387922666472 44.34621756054176,18.36880475352431 39.91054139052217,26.667371184940905" class="zone" data-layer="4" data-zone="EST"/>
<polygon points="28.269966818286537,18.889387922666472 33.941125496954285,33.94112549695428 39.91054139052217,26.667371184940905" class="zone" data-layer="4" data-zone="EST"/>
<polygon points="16.970562748477143,16.97056274847714 18.88938792266648,28.269966818286537 33.941125496954285,33.94112549695428" class="zone" data-layer="3" data-zone="SUD"/>
<polygon points="9.184402376762156,22.17310878027088 18.88938792266648,28.269966818286537 18.368804753524312,44.34621756054176" class="zone" data-layer="3" data-zone="SUD"/>
<polygon points="18.88938792266648,28.269966818286537 33.941125496954285,33.94112549695428 26.66737118494091,39.91054139052217" class="zone" data-layer="4" data-zone="SUD"/>
<polygon points="18.88938792266648,28.269966818286537 18.368804753524312,44.34621756054176 26.66737118494091,39.91054139052217" class="zone" data-layer="4" data-zone="SUD"/>
<polygon points="9.184402376762156,22.17310878027088 6.633070948548363,33.34669953370984 18.368804753524312,44.34621756054176" class="zone" data-layer="3" data-zone="SUD"/>
<polygon points="1.4695761589768238e-15,24 6.633070948548363,33.34669953370984 2.9391523179536475e-15,48" class="zone" data-layer="3" data-zone="SUD"/>
<polygon points="6.633070948548363,33.34669953370984 18.368804753524312,44.34621756054176 9.36433545677416,47.07769345935506" class="zone" data-layer="4" data-zone="SUD"/>
<polygon points="6.633070948548363,33.34669953370984 2.9391523179536475e-15,48 9.36433545677416,47.07769345935506" class="zone" data-layer="4" data-zone="SUD"/>
<polygon points="1.4695761589768238e-15,24 -6.633070948548351,33.34669953370984 2.9391523179536475e-15,48" class="zone" data-layer="3" data-zone="SUD"/>
<polygon points="-9.184402376762154,22.17310878027088 -6.633070948548351,33.34669953370984 -18.36880475352431,44.34621756054176" class="zone" data-layer="3" data-zone="SUD"/>
<polygon points="-6.633070948548351,33.34669953370984 2.9391523179536475e-15,48 -9.364335456774143,47.07769345935507" class="zone" data-layer="4" data-zone="SUD"/>
<polygon points="-6.633070948548351,33.34669953370984 -18.36880475352431,44.34621756054176 -9.364335456774143,47.07769345935507" class="zone" data-layer="4" data-zone="SUD"/>
<polygon points="-9.184402376762154,22.17310878027088 -18.88938792266648,28.269966818286534 -18.36880475352431,44.34621756054176" class="zone" data-layer="3" data-zone="SUD"/>
<polygon points="-16.97056274847714,16.970562748477143 -18.88938792266648,28.269966818286534 -33.94112549695428,33.941125496954285" class="zone" data-layer="3" data-zone="SUD"/>
<polygon points="-18.88938792266648,28.269966818286534 -18.36880475352431,44.34621756054176 -26.66737118494091,39.91054139052217" class="zone" data-layer="4" data-zone="SUD"/>
<polygon points="-18.88938792266648,28.269966818286534 -33.94112549695428,33.941125496954285 -26.66737118494091,39.91054139052217" class="zone" data-layer="4" data-zone="SUD"/>
<polygon points="-16.97056274847714,16.970562748477143 -28.26996681828654,18.889387922666472 -33.94112549695428,33.941125496954285" class="zone" data-layer="3" data-zone="OUEST"/>
<polygon points="-22.17310878027088,9.184402376762158 -28.26996681828654,18.889387922666472 -44.34621756054176,18.368804753524316" class="zone" data-layer="3" data-zone="OUEST"/>
<polygon points="-28.26996681828654,18.889387922666472 -33.94112549695428,33.941125496954285 -39.91054139052218,26.667371184940905" class="zone" data-layer="4" data-zone="OUEST"/>
<polygon points="-28.26996681828654,18.889387922666472 -44.34621756054176,18.368804753524316 -39.91054139052218,26.667371184940905" class="zone" data-layer="4" data-zone="OUEST"/>
<polygon points="-22.17310878027088,9.184402376762158 -33.34669953370984,6.633070948548357 -44.34621756054176,18.368804753524316" class="zone" data-layer="3" data-zone="OUEST"/>
<polygon points="-24,2.9391523179536475e-15 -33.34669953370984,6.633070948548357 -48,5.878304635907295e-15" class="zone" data-layer="3" data-zone="OUEST"/>
<polygon points="-33.34669953370984,6.633070948548357 -44.34621756054176,18.368804753524316 -47.07769345935506,9.364335456774151" class="zone" data-layer="4" data-zone="OUEST"/>
<polygon points="-33.34669953370984,6.633070948548357 -48,5.878304635907295e-15 -47.07769345935506,9.364335456774151" class="zone" data-layer="4" data-zone="OUEST"/>
<polygon points="-24,2.9391523179536475e-15 -33.34669953370984,-6.633070948548349 -48,5.878304635907295e-15" class="zone" data-layer="3" data-zone="OUEST"/>
<polygon points="-22.173108780270887,-9.184402376762142 -33.34669953370984,-6.633070948548349 -44.346217560541774,-18.368804753524284" class="zone" data-layer="3" data-zone="OUEST"/>
<polygon points="-33.34669953370984,-6.633070948548349 -48,5.878304635907295e-15 -47.07769345935507,-9.364335456774139" class="zone" data-layer="4" data-zone="OUEST"/>
<polygon points="-33.34669953370984,-6.633070948548349 -44.346217560541774,-18.368804753524284 -47.07769345935507,-9.364335456774139" class="zone" data-layer="4" data-zone="OUEST"/>
<polygon points="-22.173108780270887,-9.184402376762142 -28.269966818286537,-18.88938792266648 -44.346217560541774,-18.368804753524284" class="zone" data-layer="3" data-zone="OUEST"/>
<polygon points="-16.970562748477143,-16.97056274847714 -28.269966818286537,-18.88938792266648 -33.941125496954285,-33.94112549695428" class="zone" data-layer="3" data-zone="OUEST"/>
<polygon points="-28.269966818286537,-18.88938792266648 -44.346217560541774,-18.368804753524284 -39.91054139052217,-26.66737118494091" class="zone" data-layer="4" data-zone="OUEST"/>
<polygon points="-28.269966818286537,-18.88938792266648 -33.941125496954285,-33.94112549695428 -39.91054139052217,-26.66737118494091" class="zone" data-layer="4" data-zone="OUEST"/>
<polygon points="-16.970562748477143,-16.97056274847714 -18.8893879226665,-28.269966818286523 -33.941125496954285,-33.94112549695428" class="zone" data-layer="3" data-zone="NORD"/>
<polygon points="-9.184402376762147,-22.173108780270883 -18.8893879226665,-28.269966818286523 -18.368804753524294,-44.34621756054177" class="zone" data-layer="3" data-zone="NORD"/>
<polygon points="-18.8893879226665,-28.269966818286523 -33.941125496954285,-33.94112549695428 -26.66737118494094,-39.91054139052215" class="zone" data-layer="4" data-zone="NORD"/>
<polygon points="-18.8893879226665,-28.269966818286523 -18.368804753524294,-44.34621756054177 -26.66737118494094,-39.91054139052215" class="zone" data-layer="4" data-zone="NORD"/>
<polygon points="-9.184402376762147,-22.173108780270883 -6.633070948548375,-33.34669953370983 -18.368804753524294,-44.34621756054177" class="zone" data-layer="3" data-zone="NORD"/>
<polygon points="-4.408728476930472e-15,-24 -6.633070948548375,-33.34669953370983 -8.817456953860943e-15,-48" class="zone" data-layer="3" data-zone="NORD"/>
<polygon points="-6.633070948548375,-33.34669953370983 -18.368804753524294,-44.34621756054177 -9.364335456774176,-47.077693459355054" class="zone" data-layer="4" data-zone="NORD"/>
<polygon points="-6.633070948548375,-33.34669953370983 -8.817456953860943e-15,-48 -9.364335456774176,-47.077693459355054" class="zone" data-layer="4" data-zone="NORD"/>
<polygon points="-4.408728476930472e-15,-24 6.6330709485483625,-33.34669953370984 -8.817456953860943e-15,-48" class="zone" data-layer="3" data-zone="NORD"/>
<polygon points="9.18440237676216,-22.17310878027088 6.6330709485483625,-33.34669953370984 18.36880475352432,-44.34621756054176" class="zone" data-layer="3" data-zone="NORD"/>
<polygon points="6.6330709485483625,-33.34669953370984 -8.817456953860943e-15,-48 9.364335456774159,-47.07769345935506" class="zone" data-layer="4" data-zone="NORD"/>
<polygon points="6.6330709485483625,-33.34669953370984 18.36880475352432,-44.34621756054176 9.364335456774159,-47.07769345935506" class="zone" data-layer="4" data-zone="NORD"/>
<polygon points="9.18440237676216,-22.17310878027088 18.88938792266646,-28.269966818286544 18.36880475352432,-44.34621756054176" class="zone" data-layer="3" data-zone="NORD"/>
<polygon points="16.970562748477136,-16.970562748477143 18.88938792266646,-28.269966818286544 33.94112549695427,-33.941125496954285" class="zone" data-layer="3" data-zone="NORD"/>
<polygon points="18.88938792266646,-28.269966818286544 18.36880475352432,-44.34621756054176 26.66737118494089,-39.910541390522184" class="zone" data-layer="4" data-zone="NORD"/>
<polygon points="18.88938792266646,-28.269966818286544 33.94112549695427,-33.941125496954285 26.66737118494089,-39.910541390522184" class="zone" data-layer="4" data-zone="NORD"/>
<polygon points="16.970562748477136,-16.970562748477143 28.269966818286537,-18.889387922666472 33.94112549695427,-33.941125496954285" class="zone" data-layer="3" data-zone="EST"/>
<polygon points="22.173108780270883,-9.184402376762149 28.269966818286537,-18.889387922666472 44.34621756054177,-18.368804753524298" class="zone" data-layer="3" data-zone="EST"/>
<polygon points="28.269966818286537,-18.889387922666472 33.94112549695427,-33.941125496954285 39.91054139052217,-26.667371184940905" class="zone" data-layer="4" data-zone="EST"/>
<polygon points="28.269966818286537,-18.889387922666472 44.34621756054177,-18.368804753524298 39.91054139052217,-26.667371184940905" class="zone" data-layer="4" data-zone="EST"/>
<polygon points="22.173108780270883,-9.184402376762149 33.34669953370983,-6.633070948548377 44.34621756054177,-18.368804753524298" class="zone" data-layer="3" data-zone="EST"/>
<polygon points="24,-5.878304635907295e-15 33.34669953370983,-6.633070948548377 48,-1.175660927181459e-14" class="zone" data-layer="3" data-zone="EST"/>
<polygon points="33.34669953370983,-6.633070948548377 44.34621756054177,-18.368804753524298 47.077693459355054,-9.364335456774178" class="zone" data-layer="4" data-zone="EST"/>
<polygon points="33.34669953370983,-6.633070948548377 48,-1.175660927181459e-14 47.077693459355054,-9.364335456774178" class="zone" data-layer="4" data-zone="EST"/>
</svg>
