<?xml version="1.0" encoding="UTF-8" standalone="no"?>
<!-- Created with Inkscape (http://www.inkscape.org/) -->

<svg
   version="1.1"
   id="svg1"
   width="2126.8274"
   height="2127.655"
   viewBox="0 0 2126.8274 2127.655"
   sodipodi:docname="dessin1.svg"
   inkscape:version="1.4.2 (f4327f4, 2025-05-13)"
   xmlns:inkscape="http://www.inkscape.org/namespaces/inkscape"
   xmlns:sodipodi="http://sodipodi.sourceforge.net/DTD/sodipodi-0.dtd"
   xmlns="http://www.w3.org/2000/svg"
   xmlns:svg="http://www.w3.org/2000/svg">
  <sodipodi:namedview
     id="namedview1"
     pagecolor="#ffffff"
     bordercolor="#cccccc"
     borderopacity="1"
     inkscape:showpageshadow="0"
     inkscape:pageopacity="1"
     inkscape:pagecheckerboard="0"
     inkscape:deskcolor="#d1d1d1"
     inkscape:zoom="0.22035348"
     inkscape:cx="1066.4683"
     inkscape:cy="1136.8098"
     inkscape:window-width="1902"
     inkscape:window-height="973"
     inkscape:window-x="104"
     inkscape:window-y="0"
     inkscape:window-maximized="0"
     inkscape:current-layer="svg1" />
  <defs
     id="defs1" />
  <g
     id="g1"
     transform="translate(-173.52327,-618.08757)">
    <path
       style="fill:none;stroke:#000000"
       d="m 1638.3785,698.974 c -0.2292,-0.22847 -5.8167,-2.52952 -12.4167,-5.11345 -117.0106,-45.81015 -236.7045,-70.07386 -360.7499,-73.12934 l -26.7499,-0.6589 1.3319,4.40855 c 0.7325,2.4247 6.2096,20.27104 12.1712,39.65854 l 10.8393,35.25 h 187.9954 c 103.3974,0 187.8078,-0.18693 187.5787,-0.4154 z"
       id="path113" />
    <path
       style="fill:none;stroke:#000000"
       d="m 1260.0649,697.6394 c -4.1058,-13.51403 -19.0714,-61.75232 -20.0883,-64.75 -1.1951,-3.52297 -1.3663,0.20383 -1.4359,31.25 l -0.079,35.25 h 11.0674 c 10.0762,0 11.0198,-0.15672 10.5357,-1.75 z"
       id="path112" />
    <path
       style="fill:none;stroke:#000000"
       d="m 1235.4618,664.22273 c 0,-19.34166 -0.1644,-34.97916 -0.3652,-34.75 -0.2009,0.22917 -4.9879,15.49167 -10.6379,33.91667 -5.6499,18.425 -10.4837,34.0625 -10.7417,34.75 -0.3578,0.95313 2.1687,1.25 10.6378,1.25 h 11.107 z"
       id="path111" />
    <path
       style="fill:none;stroke:#000000"
       d="m 1211.4618,698.89337 c 0,-0.53928 22.8773,-75.02059 23.7073,-77.18355 0.631,-1.64453 -18.4154,-1.77008 -48.2073,-0.31777 -109.5419,5.33998 -212.09286,25.96746 -314.99996,63.36023 -11.7887,4.28358 -35.8525,13.65634 -36.3571,14.16091 -0.2619,0.26191 84.1988,0.47621 187.69036,0.47621 103.4917,0 188.1667,-0.22321 188.1667,-0.49603 z"
       id="path110" />
    <path
       style="fill:none;stroke:#000000"
       d="m 1936.8678,956.22502 c 12.7017,-6.6904 24.444,-12.914 26.094,-13.8303 1.65,-0.9163 7.6513,-4.0798 13.3362,-7.03005 l 10.3362,-5.3642 -7.4166,-7.0555 c -31.2361,-29.71548 -51.5834,-47.65329 -78.2558,-68.98881 -10.45,-8.35907 -20.8,-16.51615 -23,-18.12684 -2.2,-1.6107 -4.225,-3.17259 -4.5,-3.47086 -0.8866,-0.96167 -18.613,-13.75024 -32.2444,-23.26243 -28.3865,-19.80863 -67.4095,-43.88583 -99.2556,-61.24065 -32.5586,-17.74316 -94.0112,-46.64098 -91.7636,-43.15144 1.0347,1.6063 262.5576,263.68538 263.1258,263.68538 0.2474,0 10.8422,-5.474 23.5438,-12.1643 z"
       id="path109" />
    <path
       style="fill:none;stroke:#000000"
       d="m 693.22744,835.8894 c 72.8939,-72.875 132.2164,-132.5 131.8279,-132.5 -0.3886,0 -5.9448,2.28071 -12.3472,5.06825 -54.1414,23.57248 -113.0919,55.81655 -163.2463,89.29052 -55.38,36.96161 -100.0242,73.05044 -153.7513,124.2872 l -8.2513,7.8688 36.2513,19.23145 c 19.9382,10.5773 36.4158,19.2365 36.6169,19.2426 0.2011,0.01 60.0061,-59.61382 132.9,-132.48882 z"
       id="path108" />
    <path
       style="fill:none;stroke:#000000"
       d="m 551.42584,977.91042 c 4.1053,-4.0845 7.2553,-7.6147 7,-7.8449 -0.2552,-0.2302 -9.689,-5.271 -20.964,-11.2018 -11.275,-5.9308 -25.8709,-13.6387 -32.4353,-17.1288 -6.5643,-3.4901 -12.0561,-6.34555 -12.2039,-6.34555 -0.1478,0 10.9844,11.24995 24.7382,24.99995 13.7539,13.75 25.3207,24.9882 25.704,24.9738 0.3834,-0.014 4.0558,-3.3682 8.161,-7.4527 z"
       id="path107" />
    <path
       style="fill:none;stroke:#000000"
       d="m 1980.8802,935.64107 c -0.045,-0.1365 -8.8199,4.40135 -19.5,10.08435 -10.6801,5.6829 -25.2684,13.3987 -32.4184,17.1462 -7.15,3.7475 -13.2012,6.9857 -13.4471,7.1961 -0.2459,0.2103 3.1291,3.953 7.5,8.3171 l 7.9471,7.9346 25,-25.215 c 13.75,-13.8683 24.9633,-25.32675 24.9184,-25.46335 z"
       id="path106" />
    <path
       style="fill:none;stroke:#000000"
       d="m 1964.2156,973.38932 c 8.2406,-15.675 15.7612,-30.075 16.7124,-32 1.1468,-2.3209 -6.7212,4.9151 -23.3552,21.4792 l -25.0845,24.9793 7.7259,7.7316 c 4.2493,4.2524 8.0167,7.41168 8.3721,7.02068 0.3554,-0.3909 7.3886,-13.53578 15.6293,-29.21078 z"
       id="path105" />
    <path
       style="fill:none;stroke:#000000"
       d="m 516.54414,962.49112 c -22.0038,-21.9118 -29.0066,-28.50265 -25.3424,-23.8518 0.5417,0.6875 8.5151,15.5473 17.7188,33.0217 l 16.7339,31.77168 8.0485,-7.91988 8.0486,-7.92 z"
       id="path104" />
    <path
       style="fill:none;stroke:#000000"
       d="m 1385.0494,984.63932 c 13.6656,-15.2625 26.9311,-30 29.479,-32.75 2.5479,-2.75 9.718,-10.625 15.9335,-17.49995 6.2155,-6.875 14.9767,-16.54997 19.4694,-21.49997 4.4927,-4.95 11.7374,-13.05 16.0995,-18 4.362,-4.95 8.6564,-9.675 9.543,-10.5 0.8866,-0.825 9.6539,-10.5 19.4828,-21.5 9.8289,-11 20.1704,-22.475 22.981,-25.5 2.8106,-3.025 19.6757,-21.7 37.478,-41.5 17.8023,-19.8 34.0335,-37.8 36.0694,-40 2.0358,-2.2 13.8089,-15.25 26.1623,-29 l 22.4609,-25 -188.0373,-0.25261 c -103.4205,-0.13894 -188.1702,-0.11962 -188.3327,0.0429 -0.1626,0.16254 0.6157,3.20122 1.7295,6.75261 1.1138,3.5514 11.2444,36.38208 22.5126,72.95708 11.2682,36.575 22.6742,73.475 25.3466,82 2.6725,8.525 9.8255,31.7 15.8956,51.5 30.2379,98.63272 29.8838,97.49992 30.4785,97.49992 0.2211,0 11.5829,-12.48748 25.2484,-27.74998 z"
       id="path103" />
    <path
       style="fill:none;stroke:#000000"
       d="m 1129.96,962.88932 c 8.1226,-26.4 18.4941,-60.14992 23.0478,-74.99992 8.7582,-28.56124 51.9177,-168.49028 55.3515,-179.45708 1.1119,-3.55139 1.8887,-6.59007 1.7261,-6.75261 -0.1625,-0.16254 -84.9424,-0.18186 -188.3998,-0.0429 l -188.10416,0.25259 31.5816,35 c 40.8378,45.2581 66.6997,73.85991 71.8842,79.5 2.2751,2.475 12.8198,14.175 23.4327,26 10.6129,11.825 23.2045,25.775 27.9814,31 4.7768,5.225 12.88466,14.225 18.01746,20 8.6337,9.71393 24.3481,27.06667 28.0795,31.00707 0.8781,0.9272 5.1354,5.6925 9.4608,10.5894 4.3255,4.89685 8.1202,9.12845 8.4327,9.40345 0.3126,0.275 11.12,12.2 24.0165,26.5 12.8965,14.3 25.3212,28.025 27.6104,30.49998 2.2893,2.475 5.3999,5.9897 6.9124,7.8103 1.5125,1.8207 3.0764,2.9457 3.4753,2.5 0.399,-0.4456 7.3711,-22.41028 15.4936,-48.81028 z"
       id="path102" />
    <path
       style="fill:none;stroke:#000000"
       d="m 1631.8387,1117.4914 c 3.9177,-2.1439 15.4481,-8.2727 25.6231,-13.6197 26.6896,-14.0252 35.6458,-18.7543 62.5,-33.0012 28.8152,-15.2873 55.8512,-29.5594 71.5,-37.7444 6.325,-3.3082 14.2,-7.464 17.5,-9.2351 3.3,-1.7711 21.75,-11.5617 41,-21.7568 48.6171,-25.74848 56.7233,-30.06928 59.0067,-31.45188 1.8298,-1.1079 -8.9148,-12.1187 -130.9643,-134.20894 -73.1267,-73.15113 -133.1038,-132.85587 -133.2825,-132.67721 -0.1787,0.17867 -1.2083,17.59773 -2.2882,38.70904 -1.0798,21.1113 -2.8652,55.70919 -3.9674,76.88419 -1.1023,21.175 -3.1248,60.775 -4.4944,88 -1.3696,27.22497 -3.1733,62.54992 -4.0082,78.49992 -6.6337,126.72928 -7.0139,135.49998 -5.8748,135.49998 0.3448,0 3.8323,-1.7541 7.75,-3.8979 z"
       id="path101" />
    <path
       style="fill:none;stroke:#000000"
       d="m 850.90604,1119.1393 c -0.2366,-1.7875 -1.1198,-17.425 -1.9627,-34.75 -0.8428,-17.325 -2.4184,-48.6 -3.5011,-69.5 -1.0828,-20.89998 -3.323,-64.77498 -4.9783,-97.4999 -1.6554,-32.725 -4.1321,-81.55 -5.5039,-108.5 -1.3717,-26.95 -2.9373,-58 -3.479,-69 -0.5417,-11 -1.2636,-23.77848 -1.6041,-28.39662 l -0.6191,-8.39661 -133.3289,133.32613 -133.3289,133.32602 2.6809,1.3888 c 1.4745,0.7639 7.6309,4.0093 13.6809,7.2122 6.05,3.2028 26.525,14.0224 45.5,24.04358 18.975,10.0212 38.1,20.1415 42.5,22.4897 4.4,2.3481 16.325,8.6436 26.5,13.9901 10.175,5.3464 21.65,11.4176 25.5,13.4915 3.85,2.074 11.725,6.2467 17.5,9.2729 21.138,11.0763 45.6277,24.0403 50.5,26.7328 2.75,1.5197 11.525,6.1684 19.5,10.3305 7.975,4.1621 21.25,11.1738 29.5,15.5817 8.25,4.4079 15.0842,8.0352 15.1871,8.0607 0.103,0.026 -0.01,-1.416 -0.2429,-3.2035 z"
       id="path100" />
    <path
       style="fill:none;stroke:#000000"
       d="m 1249.9091,1134.3893 c 3.4588,-3.7112 41.7546,-46.1277 69.4671,-76.9419 9.1221,-10.1431 17.4856,-19.4319 18.5856,-20.6418 1.1,-1.2099 5.375,-5.9035 9.5,-10.4302 11.5893,-12.7179 11.4277,-8.3603 1.5018,-40.48608 -27.5753,-89.24936 -69.8515,-226.42536 -78.1259,-253.49992 -1.933,-6.325 -4.3397,-13.975 -5.3482,-17 -1.0084,-3.025 -2.3446,-7.4125 -2.9692,-9.75 l -1.1356,-4.25 h -11.457 -11.4571 l -0.2544,221.50017 c -0.1399,121.82493 -0.082,222.01553 0.1275,222.64553 0.21,0.6301 2.1643,-0.8325 4.3427,-3.2501 2.1785,-2.4176 5.4287,-5.9707 7.2227,-7.8957 z"
       id="path99" />
    <path
       style="fill:none;stroke:#000000"
       d="M 1235.4618,923.88937 V 701.3894 h -11.5 c -6.325,0 -11.5,0.17812 -11.5,0.39581 0,0.52663 -44.1495,143.9642 -70.979,230.60416 -16.199,52.31115 -25.0323,81.48873 -25.0266,82.66663 0,0.6416 0.345,1.3166 0.7597,1.5 0.4148,0.1833 6.8264,7.0833 14.248,15.3333 7.4215,8.25 13.7478,15.225 14.0584,15.5 0.3106,0.275 15.1186,16.7 32.9067,36.5 17.7881,19.8 34.6393,38.475 37.4471,41.5 2.8079,3.025 8.2202,8.9875 12.0275,13.25 3.8073,4.2625 7.0654,7.75 7.2403,7.75 0.1748,0 0.3179,-100.125 0.3179,-222.49993 z"
       id="path98" />
    <path
       style="fill:none;stroke:#000000"
       d="m 1431.0158,1210.3355 c 3.0869,-7.3952 8.0147,-19.2959 10.9507,-26.4459 2.936,-7.15 7.5825,-18.4 10.3256,-25 2.7431,-6.6 7.6826,-18.525 10.9765,-26.5 6.499,-15.7346 36.5292,-88.2853 52.9819,-128 3.3039,-7.97498 14.8493,-35.87498 25.6566,-61.99998 10.8073,-26.12492 21.155,-51.09992 22.9948,-55.49992 1.8398,-4.4 4.9427,-11.825 6.8953,-16.5 1.9525,-4.675 12.3766,-29.875 23.1646,-56 10.788,-26.125 21.1637,-51.2125 23.0573,-55.75 1.8935,-4.5375 4.9888,-11.9625 6.8784,-16.5 1.8897,-4.5375 5.9518,-14.27544 9.0268,-21.63986 3.0751,-7.36443 5.4665,-13.50049 5.3143,-13.6357 -0.251,-0.22294 -6.5456,6.65387 -24.6308,26.90912 -3.4947,3.91404 -8.0229,8.91644 -10.0626,11.11644 -2.0396,2.2 -10.1888,11.2 -18.1092,20 -7.9204,8.8 -20.5284,22.75 -28.0179,31 -7.4895,8.25 -19.8811,21.99979 -27.5368,30.55509 -7.6557,8.5553 -24.4891,27.2303 -37.4074,41.5 -12.9183,14.2697 -24.8895,27.51991 -26.6025,29.44491 -4.371,4.91185 -51.0704,56.62322 -60.9576,67.49992 -4.4997,4.95 -11.944,13.275 -16.5427,18.5 -4.5988,5.225 -9.0843,10.175 -9.9677,11 -0.8835,0.825 -5.5665,5.89218 -10.4068,11.26048 l -8.8004,9.7606 10.7338,34.7394 c 5.9036,19.1067 20.1923,65.3395 31.7527,102.7395 11.5603,37.4 21.247,68.8053 21.526,69.7897 0.2789,0.9843 0.6618,1.6349 0.8508,1.4459 0.1891,-0.1891 2.8694,-6.3944 5.9563,-13.7897 z"
       id="path97" />
    <path
       style="fill:none;stroke:#000000"
       d="m 1054.3305,1207.8643 c 6.982,-22.3749 53.7987,-174.1833 56.8418,-184.3159 l 2.5051,-8.3411 -3.3578,-3.5995 c -1.8468,-1.9796 -3.8078,-4.1268 -4.3578,-4.7715 -0.55,-0.6447 -2.8141,-3.1464 -5.0312,-5.5594 -7.0961,-7.72288 -41.2602,-45.59918 -64.3917,-71.38813 -12.3326,-13.74948 -24.9335,-27.69907 -28.002,-30.99907 -7.0058,-7.53436 -17.55916,-19.19603 -42.08046,-46.5 -10.6199,-11.825 -23.2172,-25.775 -27.9941,-31 -4.7768,-5.225 -12.878,-14.225 -18.0026,-20 -5.1246,-5.775 -13.8914,-15.45 -19.4818,-21.5 -5.5903,-6.05 -13.7203,-15.05 -18.0666,-20 -4.3463,-4.95 -9.156,-10.35 -10.6882,-12 -1.5321,-1.65 -10.5428,-11.60874 -20.0235,-22.13052 -9.4808,-10.52179 -17.3518,-19.03283 -17.4911,-18.91341 -0.249,0.21352 10.706,26.86504 29.6136,72.04393 2.7621,6.6 14.3363,34.5 25.7204,62 18.7841,45.37576 23.3938,56.52724 33.8968,81.99997 1.8142,4.4 8.8078,21.27495 15.5412,37.49995 6.7334,16.225 14.9324,36.025 18.2198,43.99998 3.2875,7.975 8.2183,19.9 10.9574,26.5 2.7391,6.6 6.4619,15.6 8.2728,20 5.7842,14.0535 44.45636,107.3329 52.23766,126 12.9823,31.144 17.4274,41.9132 18.4921,44.801 0.568,1.5406 1.1796,2.6542 1.3591,2.4748 0.1794,-0.1795 2.5695,-7.515 5.3111,-16.3011 z"
       id="path96" />
    <path
       style="fill:none;stroke:#000000"
       d="m 1459.9618,1208.3827 c 2.75,-1.5106 9.725,-5.2286 15.5,-8.2624 5.775,-3.0337 25.575,-13.4882 44,-23.2322 18.425,-9.744 38.225,-20.2095 44,-23.2566 5.775,-3.0471 12.75,-6.7526 15.5,-8.2344 2.75,-1.4819 13.0409,-6.9259 22.8686,-12.0977 11.5167,-6.0607 18.1243,-10.1154 18.5879,-11.4066 0.3957,-1.1017 1.6969,-21.8032 2.8917,-46.0032 1.1947,-24.2 5.521,-109.69998 9.6139,-189.9999 8.6474,-169.65648 8.9978,-177.17435 8.225,-176.46939 -0.3199,0.29184 -6.7043,15.36684 -14.1875,33.5 -7.4832,18.13317 -15.1135,36.56939 -16.9562,40.96939 -4.777,11.40636 -12.38,29.68387 -19.3429,46.5 -3.3021,7.975 -9.8253,23.725 -14.4958,35 -4.6706,11.275 -12.189,29.5 -16.7075,40.5 -4.5186,11 -9.4675,22.92497 -10.9977,26.49997 -1.5302,3.575 -6.489,15.49995 -11.0196,26.49995 -4.5305,11 -14.3049,34.625 -21.7207,52.49998 -7.4159,17.875 -14.9678,36.1 -16.7819,40.5 -1.8141,4.4 -5.535,13.4 -8.2686,20 -7.3843,17.8284 -30.92,74.8043 -34.6988,84 -3.3429,8.1348 -14.7118,35.4657 -23.603,56.7418 -2.6988,6.458 -4.9069,11.98 -4.9069,12.2711 0,0.4857 20.6476,-10.0095 32.5,-16.5198 z"
       id="path95" />
    <path
       style="fill:none;stroke:#000000"
       d="m 1075.0348,1216.3051 c 12.0598,-4.9965 34.977,-14.4841 50.927,-21.0835 15.95,-6.5995 32.6,-13.5099 37,-15.3566 28.87,-12.1164 68.8147,-28.4754 69.5298,-28.4754 3.1674,0 0,-4.3649 -16.1367,-22.2659 -10.0344,-11.1287 -19.9239,-22.0341 -21.9765,-24.2341 -5.0712,-5.4354 -12.5694,-13.7512 -19.0415,-21.1181 -6.4743,-7.3692 -50.7423,-56.247 -56.0215,-61.8552 -2.0571,-2.1854 -3.9251,-3.7604 -4.151,-3.5 -0.363,0.4184 -23.1452,73.9505 -27.7212,89.4733 -0.9728,3.3 -3.8816,12.75 -6.464,21 -7.7824,24.8622 -29.5174,95.5998 -29.5174,96.0655 0,0.9915 2.6369,0.024 23.573,-8.65 z"
       id="path94" />
    <path
       style="fill:none;stroke:#000000"
       d="m 1043.1355,1216.2131 c -9.0482,-21.4457 -34.3043,-82.275 -48.71226,-117.3238 -3.1653,-7.7 -8.0918,-19.625 -10.9477,-26.5 -2.856,-6.875 -6.6759,-16.1 -8.4887,-20.5 -1.8128,-4.4 -7.2172,-17.45 -12.0096,-29 -4.7925,-11.55 -10.6446,-25.72498 -13.0048,-31.49998 -3.7413,-9.1547 -11.3319,-27.4588 -23.0155,-55.49995 -13.4547,-32.29183 -13.1472,-31.54938 -33.963,-81.99997 -8.7231,-21.14191 -12.003,-29.04776 -19.2914,-46.5 -2.182,-5.225 -12.4581,-30.05827 -22.8356,-55.18505 -10.3776,-25.12678 -18.9116,-45.60178 -18.9644,-45.5 -0.053,0.10178 1.1446,24.26005 2.6611,53.68505 1.5164,29.425 3.7029,71.95 4.8589,94.5 1.156,22.55 2.9783,58.1 4.0497,78.99997 1.7177,33.50855 3.2375,63.24315 8.3455,163.27313 0.7098,13.9003 1.7076,25.68 2.2173,26.1771 0.9382,0.915 23.255,12.831 76.4268,40.8081 4.675,2.4598 12.1,6.3895 16.5,8.7327 11.7005,6.2311 38.0665,20.1902 53,28.0603 7.14996,3.7681 20.42276,10.7752 29.49516,15.5713 9.0723,4.7961 16.6516,8.5638 16.8428,8.3726 0.1912,-0.1912 -1.2327,-4.0934 -3.1643,-8.6715 z"
       id="path93" />
    <path
       style="fill:none;stroke:#000000"
       d="m 1407.9255,1177.205 c -8.0625,-26.0237 -18.1641,-58.7907 -22.448,-72.8157 -15.0737,-49.3499 -26.3159,-85.5052 -26.7385,-85.9916 -0.5596,-0.6441 -4.0267,3.1054 -45.3026,48.9916 -28.5821,31.7747 -32.8366,36.4798 -42.018,46.4689 -29.1376,31.7008 -33.787,37.5311 -29.9293,37.5311 0.5001,0 5.0861,1.767 10.191,3.9266 5.1049,2.1597 25.2567,10.5113 44.7817,18.5592 19.525,8.0479 39.55,16.3263 44.5,18.3964 4.95,2.0701 14.175,5.9132 20.5,8.5403 6.325,2.627 22.525,9.3552 36,14.9516 13.475,5.5964 24.6402,9.8562 24.8114,9.4662 0.1713,-0.3899 -6.2851,-22.001 -14.3477,-48.0246 z"
       id="path92" />
    <path
       style="fill:none;stroke:#000000"
       d="m 2208.8598,1254.848 c -20.3785,-46.2414 -41.6752,-86.4733 -71.861,-135.7539 -15.0398,-24.5536 -37.3387,-56.2662 -65.537,-93.204 -16.2681,-21.3101 -44.2749,-53.24148 -75.254,-85.79938 -7.3321,-7.70565 -8.3487,-8.13875 -9.8617,-4.20135 -0.3581,0.93175 -8.0983,15.61435 -21.3505,40.49995 -3.0753,5.775 -7.6988,14.6499 -10.2744,19.722 l -4.683,9.22198 132.4455,132.461 c 72.8451,72.8535 132.5581,132.3484 132.6956,132.2108 0.1375,-0.1375 -2.7062,-6.9582 -6.3195,-15.1571 z"
       id="path91" />
    <path
       style="fill:none;stroke:#000000"
       d="m 522.03164,1001.5934 c -1.4091,-2.97098 -26.8305,-51.40258 -33.4379,-63.70408 -3.1809,-5.92205 -2.9598,-5.96765 -10.8622,2.2407 -54.9213,57.0483 -93.9539,106.37778 -137.4892,173.75928 -7.7514,11.9972 -25.17,41.3661 -33.2135,56 -14.4406,26.2725 -42.4568,83.9547 -48.3272,99.5 -0.3115,0.825 59.2056,-58.2582 132.2602,-131.2959 l 132.8266,-132.7959 z"
       id="path90" />
    <path
       style="fill:none;stroke:#000000"
       d="m 1838.4618,1293.3564 c 11.275,-0.5481 33.325,-1.6613 49,-2.4739 50.9266,-2.6399 166.3358,-8.5198 256,-13.0427 27.775,-1.401 55.3409,-2.8631 61.2575,-3.2489 l 10.7575,-0.7016 -133.3558,-133.3468 -133.3557,-133.3469 -16.3031,30.8469 c -8.9666,16.9657 -17.9711,33.9968 -20.0098,37.8468 -2.0387,3.85 -6.3048,11.95 -9.4803,18 -3.1754,6.05 -7.4609,14.15 -9.5232,18 -2.0624,3.85 -7.9091,14.875 -12.9926,24.5 -5.0836,9.625 -11.1538,21.1 -13.4892,25.5 -2.3355,4.4 -6.726,12.725 -9.7567,18.5 -9.4217,17.9529 -22.9004,43.4713 -36.7096,69.5 -7.2949,13.75 -15.7335,29.6733 -18.7523,35.3852 l -5.4888,10.3852 10.851,-0.6534 c 5.9681,-0.3594 20.0761,-1.1019 31.3511,-1.6499 z"
       id="path89" />
    <path
       style="fill:none;stroke:#000000"
       d="m 670.80864,1282.6393 c -3.6696,-7.0125 -8.3988,-15.8278 -10.5094,-19.5895 -2.1105,-3.7618 -3.8374,-7.0101 -3.8374,-7.2186 0,-0.2085 -3.6468,-7.2557 -8.1039,-15.6605 -4.4572,-8.4048 -10.4843,-19.7814 -13.3937,-25.2814 -2.9094,-5.5 -11.1329,-21.025 -18.2743,-34.5 -7.1415,-13.475 -15.3519,-29 -18.2455,-34.5 -2.8935,-5.5 -11.4399,-21.7 -18.9919,-36 -7.5521,-14.3 -18.1154,-34.325 -23.474,-44.5 -5.3587,-10.175 -11.4292,-21.65 -13.4901,-25.5 -2.0609,-3.85 -6.7959,-12.7884 -10.5223,-19.8632 l -6.7752,-12.8631 -133.3778,133.3631 c -73.3578,73.3498 -132.8093,133.4611 -132.1145,133.5808 0.6947,0.1197 14.9882,0.9056 31.7632,1.7463 28.9833,1.4527 49.0767,2.4741 187.5,9.5313 92.5361,4.7178 157.7531,8.0839 173,8.9291 7.7,0.4269 16.5917,0.8435 19.7593,0.9259 l 5.7593,0.1498 z"
       id="path88" />
    <path
       style="fill:none;stroke:#000000"
       d="m 1921.0817,979.52352 -8.3741,-8.3741 -6.1765,3.62 c -3.397,1.9909 -6.3632,3.6199 -6.5915,3.6199 -0.2282,0 -7.2916,3.6468 -15.6964,8.1039 -8.4048,4.4572 -19.7814,10.4844 -25.2814,13.3937 -5.5,2.90938 -21.25,11.25388 -35,18.54338 -13.75,7.2894 -29.725,15.7158 -35.5,18.7252 -5.775,3.0094 -13.2,6.933 -16.5,8.7192 -3.3,1.7861 -10.725,5.7338 -16.5,8.7726 -5.775,3.0387 -30.075,15.8811 -54,28.5386 -66.885,35.3855 -70.219,37.1452 -74.569,39.357 l -4.0689,2.069 -1.2149,25.6387 c -0.6682,14.1013 -1.6418,33.2887 -2.1635,42.6387 -0.5218,9.35 -1.8539,35.225 -2.9603,57.5 -1.1064,22.275 -2.2183,43.4035 -2.471,46.9523 l -0.4594,6.4523 157.9505,-157.9481 157.9505,-157.94818 z"
       id="path87" />
    <path
       style="fill:none;stroke:#000000"
       d="m 857.93684,1258.8893 c -1.2534,-24.2 -3.312,-64.3124 -4.5748,-89.1387 l -2.2959,-45.1387 -5.0521,-2.5734 c -2.7787,-1.4153 -9.1022,-4.7487 -14.0522,-7.4074 -4.95,-2.6588 -14.625,-7.7961 -21.5,-11.4163 -6.875,-3.6202 -15.875,-8.3717 -20,-10.5587 -4.125,-2.1871 -12.225,-6.4653 -18,-9.5072 -5.775,-3.0419 -25.575,-13.517 -44,-23.278 -18.425,-9.7611 -37.775,-19.9966 -43,-22.7457 -5.225,-2.7491 -13.1,-6.9113 -17.5,-9.2493 -4.4,-2.3381 -16.55,-8.7575 -27,-14.2653 -10.45,-5.5079 -32.6979,-17.27788 -49.4398,-26.15558 l -30.4399,-16.1413 -7.8101,7.7643 c -4.2956,4.2704 -7.8102,8.0491 -7.8102,8.397 0,0.7065 314.2288,316.04168 314.5502,315.65768 0.112,-0.1339 -0.8218,-20.0434 -2.0752,-44.2434 z"
       id="path86" />
    <path
       style="fill:none;stroke:#000000"
       d="m 1672.9618,1301.8506 c 90.7086,-4.6176 120.6252,-6.2526 120.9336,-6.6091 0.2788,-0.3223 29.2209,-54.9388 42.3149,-79.8522 3.0352,-5.775 6.98,-13.2 8.7661,-16.5 1.7862,-3.3 5.7606,-10.8241 8.8321,-16.7203 5.8751,-11.2783 26.8088,-50.8899 41.633,-78.7797 4.8236,-9.075 11.1309,-21 14.0161,-26.5 2.8853,-5.5 6.7034,-12.7 8.4847,-16 1.7814,-3.3 6.4127,-12.075 10.2919,-19.5 3.8792,-7.425 9.726,-18.526 12.9928,-24.6688 l 5.9398,-11.1688 -8.1135,-8.07138 -8.1135,-8.0714 -157.4878,157.49018 c -150.6907,150.693 -157.3368,157.4903 -153.989,157.4935 1.9243,0 25.9988,-1.142 53.4988,-2.542 z"
       id="path85" />
    <path
       style="fill:none;stroke:#000000"
       d="m 1613.4395,1266.7921 c 4.932,-93.3404 7.1613,-139.5971 6.7478,-140.0106 -0.2472,-0.2472 -6.249,2.6415 -13.3374,6.4193 -7.0885,3.7778 -18.2881,9.7068 -24.8881,13.1756 -6.6,3.4688 -34.95,18.4385 -63,33.266 -28.05,14.8274 -60,31.7039 -71,37.5031 -11,5.7993 -20.13,10.644 -20.2888,10.7661 -0.1589,0.1221 10.8661,4.8219 24.5,10.4439 13.6338,5.622 29.5138,12.2011 35.2888,14.6201 41.3001,17.2999 123.548,51.1706 123.7639,50.9675 0.1451,-0.1365 1.1413,-16.8545 2.2138,-37.151 z"
       id="path84" />
    <path
       style="fill:none;stroke:#000000"
       d="m 876.96184,1298.3738 c 5.5,-2.2938 13.6,-5.6538 18,-7.4667 4.4,-1.8129 27.8,-11.5101 52,-21.5493 24.2,-10.0391 49.175,-20.3899 55.49996,-23.0016 6.325,-2.6118 18.25,-7.5438 26.5,-10.9601 8.25,-3.4162 15.5921,-6.4498 16.3158,-6.7413 1.3449,-0.5417 -2.3752,-2.7065 -24.8158,-14.4411 -6.875,-3.595 -16.325,-8.5695 -20.99996,-11.0543 -4.675,-2.4849 -16.375,-8.6839 -26,-13.7757 -9.625,-5.0917 -21.1,-11.1675 -25.5,-13.5017 -31.3174,-16.6144 -40.6103,-21.4927 -40.942,-21.4927 -0.2084,0 -3.4567,-1.7287 -7.2185,-3.8416 -3.7617,-2.1129 -13.5895,-7.351 -21.8395,-11.6403 -8.25,-4.2892 -16.9328,-8.9152 -19.2952,-10.2799 -2.3623,-1.3646 -4.5387,-2.2376 -4.8365,-1.9399 -0.2977,0.2978 0.1676,14.19 1.034,30.8715 0.8665,16.6816 2.6925,52.6052 4.0579,79.8302 1.3654,27.225 2.7659,53.4091 3.1123,58.1868 0.6079,8.3846 0.7046,8.6569 2.7787,7.8275 1.1818,-0.4726 6.6488,-2.736 12.1488,-5.0298 z"
       id="path83" />
    <path
       style="fill:none;stroke:#000000"
       d="m 857.37854,1303.9595 c -0.2292,-0.2364 -71.0364,-71.1383 -157.3494,-157.5598 l -156.9326,-157.12988 -8.0486,8.0486 -8.0486,8.04848 4.6871,9.2612 c 2.578,5.0937 7.4518,14.4362 10.8308,20.7612 3.3789,6.325 14.7025,27.7 25.1635,47.5 10.4609,19.8 20.9357,39.6 23.2773,44 2.3415,4.4 6.8461,12.95 10.0101,19 3.1639,6.05 7.6608,14.6 9.993,19 2.3322,4.4 8.1761,15.425 12.9865,24.5 4.8103,9.075 10.6535,20.1 12.9849,24.5 2.3314,4.4 6.7531,12.725 9.8261,18.5 3.073,5.775 8.4258,15.9112 11.8952,22.5249 3.4694,6.6136 9.6737,18.4067 13.7874,26.2067 l 7.4794,14.1818 5.0206,0.5115 c 2.7613,0.2813 10.1956,0.7548 16.5206,1.0523 22.1737,1.0427 111.645,5.5916 126,6.4061 17.2566,0.979 30.4946,1.283 29.9167,0.6869 z"
       id="path82" />
    <path
       style="fill:none;stroke:#000000"
       d="m 1707.9618,1458.1837 c 9.35,-17.7062 19.3929,-36.7159 22.3176,-42.2437 2.9247,-5.5279 8.0466,-15.2257 11.3821,-21.5507 12.3269,-23.3752 28.0261,-53.0905 39.0958,-74 l 11.3823,-21.5 -4.643,-0.2955 c -2.5536,-0.1625 -30.7186,1.0562 -62.5889,2.7082 -31.8702,1.652 -69.307,3.5576 -83.1928,4.2346 -13.8859,0.677 -25.6952,1.5079 -26.243,1.8465 -0.6001,0.3708 0.4174,3.9725 2.5599,9.0609 1.9558,4.6449 4.8348,11.6117 6.3978,15.4818 1.5631,3.8701 4.6438,11.2951 6.8461,16.5 2.2022,5.2049 13.7588,33.0885 25.6813,61.9635 11.9225,28.875 23.3696,56.55 25.4381,61.5 2.0685,4.95 4.6172,11.1358 5.6638,13.7463 1.0466,2.6104 2.1279,4.7451 2.4029,4.7437 0.275,0 8.15,-14.4894 17.5,-32.1956 z"
       id="path81" />
    <path
       style="fill:none;stroke:#000000"
       d="m 786.80154,1483.6393 c 1.4143,-3.7125 5.0057,-12.6 7.9809,-19.75 2.9752,-7.15 14.7098,-35.5 26.0768,-63 11.367,-27.5 21.7449,-52.475 23.0621,-55.5 1.3171,-3.025 3.7493,-8.875 5.4047,-13 1.6554,-4.125 4.61,-11.3004 6.5658,-15.9453 2.2911,-5.4413 3.1809,-8.6772 2.5015,-9.097 -0.5799,-0.3584 -7.4392,-0.9338 -15.2429,-1.2786 -7.8037,-0.3448 -36.4636,-1.7715 -63.6886,-3.1704 -27.225,-1.399 -60.4125,-3.0989 -73.75,-3.7776 -13.3375,-0.6787 -24.2483,-1.0084 -24.2463,-0.7326 0,0.2758 0.8196,1.8515 1.8168,3.5015 0.9972,1.65 4.8862,8.85 8.6423,16 3.7561,7.15 8.5047,16.15 10.5523,20 2.0477,3.85 6.3111,11.95 9.4744,18 3.1632,6.05 9.4669,17.975 14.0082,26.5 7.9827,14.9853 39.8376,75.2913 51.3631,97.2381 3.1016,5.906 5.9246,10.7435 6.2733,10.75 0.3488,0.01 1.7913,-3.0256 3.2056,-6.7381 z"
       id="path80" />
    <path
       style="fill:none;stroke:#000000"
       d="m 1723.9618,1478.7178 c 92.2798,-38.2926 116.3878,-48.2795 127.5,-52.8179 10.9,-4.4517 34.831,-14.3677 53,-21.9611 24.4644,-10.2244 36.373,-15.1643 70,-29.0371 19.525,-8.055 39.1,-16.1472 43.5,-17.9825 24.4425,-10.1954 35.9691,-14.9834 76,-31.5696 24.2,-10.0269 50.3,-20.8151 58,-23.9738 7.7,-3.1586 19.625,-8.0896 26.5,-10.9577 6.875,-2.8681 17.0807,-7.0797 22.6793,-9.3592 5.5986,-2.2794 10.0844,-4.2392 9.9685,-4.3551 -0.2108,-0.2108 -41.9119,1.8421 -115.1478,5.6686 -94.2277,4.9234 -293.828,15.0169 -296.9611,15.0169 -4.0524,0 -1.2123,-4.7283 -30.032,50 -10.8611,20.625 -23.4557,44.475 -27.9882,53 -7.9238,14.9038 -22.8942,43.2028 -32.2694,61 -2.4627,4.675 -6.9013,13.0473 -9.8635,18.6051 -2.9622,5.5579 -5.3858,10.4014 -5.3858,10.7635 0,0.362 1.6875,-0.052 3.75,-0.9189 2.0625,-0.8674 14.1,-5.872 26.75,-11.1212 z"
       id="path79" />
    <path
       style="fill:none;stroke:#000000"
       d="m 751.94354,1436.2035 c -15.7979,-29.8728 -30.9838,-58.5892 -33.7467,-63.8142 -2.7628,-5.225 -7.5125,-14.225 -10.5548,-20 -3.0424,-5.775 -7.9323,-15 -10.8665,-20.5 -2.9342,-5.5 -8.1191,-15.3358 -11.522,-21.8572 -3.4029,-6.5215 -6.6606,-12.0003 -7.2394,-12.1751 -0.5788,-0.1748 -24.6773,-1.4872 -53.5523,-2.9164 -28.875,-1.4293 -60.6,-3.0274 -70.5,-3.5515 -48.5504,-2.5702 -93.5041,-4.8643 -215,-10.972 -32.45,-1.6313 -62.825,-3.2146 -67.5,-3.5185 -8.0151,-0.521 -8.345,-0.4649 -5.7832,0.9837 1.4942,0.8448 7.1192,3.2788 12.5,5.4088 5.3808,2.1301 18.1082,7.3471 28.2832,11.5936 40.2591,16.8016 55.7193,23.2198 85.5,35.4948 17.05,7.0277 42.925,17.7342 57.5,23.7922 14.575,6.058 51.7,21.4396 82.5,34.1813 30.8,12.7416 61.4,25.4237 68,28.1824 15.137,6.3269 19.7096,8.2243 65.5953,27.2181 20.6773,8.5592 47.0023,19.4595 58.5,24.223 11.4976,4.7634 25.6297,10.6111 31.4047,12.9948 5.775,2.3837 13.65,5.6457 17.5,7.2489 3.85,1.6033 7.1586,2.7761 7.3525,2.6062 0.1938,-0.1698 -12.573,-24.7501 -28.3708,-54.6229 z"
       id="path78" />
    <path
       style="fill:none;stroke:#000000"
       d="m 1906.3835,1555.1393 c 3.5428,-3.079 79.7549,-71.7786 85.26,-76.8557 4.598,-4.2405 10.0018,-9.1146 25.3822,-22.8943 8.2875,-7.425 22.0135,-19.7872 30.5021,-27.4715 8.4887,-7.6843 22.409,-20.2412 30.934,-27.9044 8.525,-7.6631 16.6727,-15.1009 18.106,-16.5285 2.8638,-2.8524 5.0665,-4.8385 18.394,-16.585 4.95,-4.3628 9.225,-8.1995 9.5,-8.5261 0.275,-0.3265 12.2,-11.1351 26.5,-24.0191 14.3,-12.8839 26.9,-24.2625 28,-25.2857 1.1,-1.0232 9.0875,-8.193 17.75,-15.9328 8.6625,-7.7397 15.75,-14.2081 15.75,-14.3741 0,-0.1659 -2.1375,0.6241 -4.75,1.7558 -6.3152,2.7354 -53.8631,22.5011 -67.75,28.1637 -6.05,2.4669 -17.975,7.405 -26.5,10.9735 -8.525,3.5684 -20.675,8.6027 -27,11.1873 -6.325,2.5845 -16.675,6.8853 -23,9.5573 -13.6332,5.7592 -100.8022,41.8799 -143.5,59.4629 -15.1272,6.2294 -108.007,44.7103 -116,48.0598 -4.4,1.8438 -29.15,12.1162 -55,22.8275 -57.0623,23.6445 -54.7978,22.683 -54.3581,23.0793 0.197,0.1774 5.5331,1.9046 11.8581,3.8381 42.9335,13.1242 168.3725,51.9052 183.5,56.7312 6.6,2.1056 12.1535,3.8649 12.341,3.9095 0.1876,0.045 2.0239,-1.3812 4.0807,-3.1687 z"
       id="path77" />
    <path
       style="fill:none;stroke:#000000"
       d="m 602.46184,1548.5755 c 34.9375,-10.7409 84.8418,-26.139 97.5,-30.0838 4.95,-1.5427 24.8565,-7.6928 44.2366,-13.667 19.3801,-5.9742 34.9051,-11.1725 34.5,-11.5519 -0.4051,-0.3793 -11.3116,-5.0379 -24.2366,-10.3524 -12.925,-5.3146 -28.675,-11.849 -35,-14.5208 -6.325,-2.6719 -16.675,-6.9727 -23,-9.5572 -6.325,-2.5846 -18.475,-7.6189 -27,-11.1873 -8.525,-3.5685 -20.225,-8.4179 -26,-10.7764 -12.514,-5.1109 -61.1672,-25.2097 -72.5,-29.9501 -4.4,-1.8405 -13.4,-5.5968 -20,-8.3475 -17.9249,-7.4704 -110.793,-45.9317 -120,-49.6979 -12.3319,-5.0445 -62.9766,-26.0081 -93,-38.4959 -14.85,-6.1767 -30.6,-12.7069 -35,-14.5116 -4.4,-1.8047 -15.1589,-6.2525 -23.9087,-9.8839 -8.7497,-3.6314 -16.1625,-6.6025 -16.4728,-6.6025 -0.589,0 -0.068,0.4865 14.4554,13.4954 4.9094,4.3974 9.1511,8.2267 9.4261,8.5094 0.8412,0.8648 30.3558,27.5869 51.5,46.6274 29.6496,26.6996 62.8448,56.6401 64.1127,57.8266 3.401,3.1825 10.912,9.9355 18.3929,16.5367 4.6719,4.1225 9.1694,8.1796 9.9944,9.0157 0.825,0.8361 10.5,9.5965 21.5,19.4677 11,9.8711 22.475,20.2726 25.5,23.1144 3.025,2.8418 8.014,7.3584 11.0867,10.0368 3.0727,2.6784 18.9954,17.0199 35.3838,31.8699 44.6886,40.4937 46.9477,42.4739 48.0295,42.1005 0.55,-0.1898 14.275,-4.4263 30.5,-9.4143 z"
       id="path76" />
    <path
       style="fill:none;stroke:#000000"
       d="m 2217.4618,1466.806 c 0,-109.7156 -0.3721,-188.444 -0.8897,-188.25 -0.4893,0.1833 -5.0857,4.1583 -10.2142,8.8333 -5.1285,4.675 -11.3657,10.3 -13.8603,12.5 -2.4947,2.2 -4.7608,4.2323 -5.0358,4.5161 -0.275,0.2839 -7.475,6.8089 -16,14.5 -8.525,7.6912 -15.725,14.2224 -16,14.5139 -0.275,0.2915 -14,12.664 -30.5,27.4946 -16.5,14.8305 -32.0049,28.767 -34.4553,30.97 -2.4504,2.203 -7.8504,7.1232 -12,10.9339 -11.9067,10.9343 -15.0099,13.7384 -42.0447,37.9924 -14.025,12.5824 -27.975,25.1803 -31,27.9953 -3.025,2.815 -14.5,13.1866 -25.5,23.048 -11,9.8613 -22.25,20.046 -25,22.6325 -2.75,2.5865 -8.0024,7.3354 -11.6721,10.5531 -11.3509,9.9528 -37.6922,33.8205 -37.5052,33.9833 0.098,0.085 12.1023,3.8344 26.6773,8.3322 14.575,4.4979 50.575,15.6181 80,24.7117 29.425,9.0935 56.2,17.3331 59.5,18.3101 3.3,0.977 21.525,6.5987 40.5,12.4925 18.975,5.8939 37.875,11.7412 42,12.994 24.431,7.4197 60.0822,18.4618 62.75,19.4352 0.1375,0.05 0.25,-84.7713 0.25,-188.4921 z"
       id="path75" />
    <path
       style="fill:none;stroke:#000000"
       d="m 294.96184,1643.4292 c 18.15,-5.6023 65.85,-20.3164 106,-32.6979 108.5681,-33.4805 139.594,-43.0738 154.2015,-47.6796 l 13.2015,-4.1624 -19.7015,-17.7254 c -10.8358,-9.749 -21.0515,-18.974 -22.7016,-20.5 -1.65,-1.526 -5.2761,-4.7996 -8.0578,-7.2746 -6.9106,-6.1485 -63.6068,-57.3254 -65.458,-59.0857 -0.818,-0.7779 -8.2365,-7.4782 -16.4857,-14.8896 -8.2491,-7.4114 -15.2234,-13.7376 -15.4984,-14.0583 -0.275,-0.3206 -4.55,-4.1391 -9.5,-8.4855 -4.95,-4.3465 -9.225,-8.1572 -9.5,-8.4683 -0.275,-0.3111 -12.2,-11.1109 -26.5,-23.9997 -14.3,-12.8887 -26.225,-23.6944 -26.5,-24.0126 -0.275,-0.3182 -4.55,-4.1481 -9.5,-8.5109 -13.406,-11.8157 -15.5406,-13.7418 -18.394,-16.5972 -1.4333,-1.4343 -11.8012,-10.8843 -23.0398,-21 -11.2386,-10.1157 -25.0761,-22.59 -30.75,-27.7207 l -10.3162,-9.3285 v 189.0087 189.0087 l 2.75,-0.8173 c 1.5125,-0.4494 17.6,-5.4009 35.75,-11.0032 z"
       id="path74" />
    <path
       style="fill:none;stroke:#000000"
       d="m 1243.9512,1661.8893 c 3.5473,-8.3896 25.8936,-62.3284 36.4576,-88 3.3949,-8.25 7.6772,-18.6 9.5163,-23 6.282,-15.0299 13.3149,-31.9914 20.5247,-49.5 15.5843,-37.8461 22.2917,-54.0342 33.5615,-81 7.5934,-18.169 17.5094,-42.1 21.9611,-53 4.8182,-11.7973 24.8233,-60.2346 29.9433,-72.5 1.8367,-4.4 5.4014,-12.95 7.9215,-19 2.5201,-6.05 7.9494,-19.0797 12.0652,-28.9548 4.1157,-9.8752 7.3878,-18.0383 7.2712,-18.1403 -0.1165,-0.1019 -17.3118,-7.2459 -38.2118,-15.8755 -20.9,-8.6296 -43.2908,-17.8962 -49.7574,-20.5925 -6.4665,-2.6963 -17.2665,-7.1915 -24,-9.9893 -6.7334,-2.7978 -15.3926,-6.4068 -19.2426,-8.0202 -23.3615,-9.7894 -52.9351,-21.9274 -53.4252,-21.9274 -0.3161,0 -0.4329,117.5625 -0.2594,261.25 0.2093,173.3946 0.6476,260.4093 1.3034,258.75 0.5434,-1.375 2.5102,-6.1 4.3706,-10.5 z"
       id="path73" />
    <path
       style="fill:none;stroke:#000000"
       d="m 1235.4675,1413.3728 c -0.01,-143.1802 -0.1548,-260.466 -0.3239,-260.635 -0.169,-0.169 -8.829,3.236 -19.2445,7.5668 -24.2655,10.0895 -83.9812,34.8293 -110.4373,45.7535 -23.4743,9.6929 -35.0667,14.5076 -46.6632,19.3806 l -8.1632,3.4304 1.4816,3.5101 c 0.8149,1.9305 4.4262,10.7101 8.0252,19.5101 3.599,8.8 8.3401,20.275 10.5357,25.5 7.8662,18.7197 24.3374,58.4122 45.0243,108.5 3.8616,9.35 9.1584,22.175 11.7706,28.5 2.6122,6.325 7.0923,17.125 9.9558,24 2.8635,6.875 7.2354,17.45 9.7154,23.5 2.48,6.05 8.3353,20.225 13.0118,31.5 4.6764,11.275 11.1147,26.8 14.3072,34.5 3.1926,7.7 9.0798,21.875 13.0827,31.5 8.3271,20.0222 10.6815,25.7173 31.9161,77.2036 8.525,20.6701 15.6175,37.4752 15.7611,37.3447 0.1436,-0.1304 0.2537,-117.3846 0.2446,-260.5648 z"
       id="path72" />
    <path
       style="fill:none;stroke:#000000"
       d="m 1609.6846,1306.2494 c -0.3975,-0.3771 -7.0228,-3.2552 -14.7228,-6.3959 -7.7,-3.1407 -20.975,-8.6255 -29.5,-12.1886 -8.525,-3.5631 -32.15,-13.3561 -52.5,-21.7623 -20.35,-8.4062 -48.025,-19.8692 -61.5,-25.4734 -13.475,-5.6042 -24.872,-10.2683 -25.3267,-10.3646 -0.4546,-0.096 -8.4669,18.2747 -17.8052,40.8247 -9.3382,22.55 -18.4869,44.6 -20.3305,49 -1.8435,4.4 -6.0488,14.525 -9.3451,22.5 -3.2962,7.975 -12.6166,30.475 -20.712,50 -8.0954,19.525 -16.2,39.1 -18.0102,43.5 -10.963,26.6469 -52.6632,127.4288 -57.9273,140 -6.6208,15.811 -13.4783,32.3015 -20.5843,49.5 -3.9768,9.625 -10.1397,24.475 -13.6953,33 -3.5556,8.525 -6.7022,16.175 -6.9924,17 -0.2902,0.825 82.7678,-81.7397 184.5735,-183.4772 101.8056,-101.7374 184.7759,-185.2857 184.3783,-185.6627 z"
       id="path71" />
    <path
       style="fill:none;stroke:#000000"
       d="m 1222.8549,1650.346 c -9.8701,-23.8687 -12.5663,-30.3643 -20.9432,-50.4567 -1.8345,-4.4 -12.1594,-29.375 -22.9442,-55.5 -10.7849,-26.125 -20.2244,-48.85 -20.9767,-50.5 -0.7523,-1.65 -2.7869,-6.6 -4.5213,-11 -1.7343,-4.4 -4.2184,-10.475 -5.5201,-13.5 -2.9655,-6.8919 -8.2693,-19.6516 -28.0574,-67.5 -16.1194,-38.9776 -21.5397,-52.0833 -30.1916,-73 -12.0755,-29.1937 -38.2424,-92.3296 -39.6341,-95.6295 l -1.5307,-3.6295 -45.7869,18.9377 c -25.18276,10.4158 -49.38686,20.4432 -53.78686,22.2831 -4.4,1.8399 -13.625,5.6821 -20.5,8.5382 -6.875,2.8561 -16.1,6.6977 -20.5,8.5367 -6.7843,2.8357 -14.4961,6.0188 -41.4616,17.1138 l -3.4616,1.4243 184.91936,184.9214 c 101.7057,101.7068 185.0329,184.808 185.1716,184.6694 0.1386,-0.1387 -4.485,-11.7077 -10.2747,-25.7089 z"
       id="path70" />
    <path
       style="fill:none;stroke:#000000"
       d="m 1262.127,1670.0228 c 9.9909,-4.1646 23.0409,-9.5615 29,-11.993 11.3276,-4.6221 28.7823,-11.8679 75.8348,-31.4806 6.6,-2.7511 27.975,-11.5924 47.5,-19.6475 19.525,-8.055 39.1,-16.1472 43.5,-17.9825 22.9953,-9.5917 35.738,-14.8843 76,-31.5662 24.2,-10.0269 50.525,-20.9191 58.5,-24.205 7.975,-3.2859 19.9,-8.2203 26.5,-10.9653 6.6,-2.745 14.475,-6.0072 17.5,-7.2494 41.5246,-17.0511 50.6249,-20.8685 51.3374,-21.5352 0.4605,-0.431 -2.8565,-9.7217 -7.3712,-20.6462 -4.5147,-10.9244 -9.679,-23.4626 -11.4762,-27.8626 -1.7972,-4.4 -6.6926,-16.2125 -10.8788,-26.25 -20.7476,-49.7482 -24.8507,-59.6633 -39.6244,-95.75 -2.9271,-7.15 -5.5956,-13.3265 -5.9299,-13.7255 -0.3344,-0.399 -83.8464,82.5705 -185.5824,184.3767 -101.736,101.8062 -184.5245,184.8664 -183.9745,184.5783 0.55,-0.2882 9.1743,-3.9314 19.1652,-8.096 z"
       id="path69" />
    <path
       style="fill:none;stroke:#000000"
       d="m 1046.9863,1493.4138 c -101.73536,-101.7365 -185.25196,-184.649 -185.59236,-184.25 -0.3404,0.399 -5.0298,11.5255 -10.4208,24.7255 -5.3911,13.2 -11.4919,28.05 -13.5574,33 -39.6076,94.9216 -52.1088,125.7435 -51.2872,126.4499 0.4583,0.394 13.2083,5.8151 28.3333,12.0468 15.125,6.2317 33.35,13.7698 40.5,16.7513 21.089,8.794 35.2594,14.6781 47.5,19.7236 6.325,2.6072 13.975,5.7985 17,7.0918 5.4061,2.3113 92.07546,38.1806 119.49996,49.4566 18.8635,7.756 106.988,44.2501 117,48.452 4.4,1.8466 15.875,6.6057 25.5,10.5758 9.625,3.9701 24.7,10.2658 33.5,13.9904 8.8,3.7247 16.2245,6.8148 16.499,6.8669 0.2744,0.052 -82.7391,-83.1441 -184.4745,-184.8806 z"
       id="path68" />
    <path
       style="fill:none;stroke:#000000"
       d="m 1794.3751,1656.2983 c 11.2273,-10.125 25.1773,-22.6403 31,-27.812 5.8227,-5.1716 15.5367,-13.9799 21.5867,-19.574 6.05,-5.5941 15.05,-13.7202 20,-18.0579 4.95,-4.3378 9.225,-8.1554 9.5,-8.4837 0.275,-0.3284 5.675,-5.2583 12,-10.9555 10.7982,-9.7263 13.0108,-12.0259 11.5711,-12.0259 -0.5291,0 -68.7759,-20.97 -148.0711,-45.4973 -24.326,-7.5245 -33.3583,-10.3046 -55.25,-17.006 -2.3375,-0.7155 -4.25,-1.1944 -4.25,-1.0643 0,0.2828 15.031,36.712 32.0051,77.5676 6.7409,16.225 14.8536,35.8 18.0283,43.5 3.1746,7.7 7.6495,18.5 9.9442,24 2.2947,5.5 6.6461,16.0581 9.6697,23.4625 3.0235,7.4044 5.7392,13.8538 6.0347,14.332 0.2956,0.4782 1.7255,-0.2209 3.1777,-1.5535 1.4522,-1.3327 11.8263,-10.7071 23.0536,-20.832 z"
       id="path67" />
    <path
       style="fill:none;stroke:#000000"
       d="m 720.92164,1642.3893 c 8.0616,-19.525 16.1677,-39.1 18.0136,-43.5 1.8458,-4.4 6.5974,-15.875 10.559,-25.5 3.9616,-9.625 12.775,-30.9176 19.5853,-47.3169 6.8103,-16.3992 12.3823,-29.9561 12.3823,-30.1263 0,-0.361 -9.6522,2.5834 -108,32.9457 -40.425,12.4801 -79.4762,24.5191 -86.7804,26.7532 -7.3042,2.2342 -13.1542,4.3706 -13,4.7477 0.1542,0.377 12.2054,11.417 26.7804,24.5334 14.575,13.1163 26.725,24.0997 27,24.4076 0.275,0.3079 7.25,6.5981 15.5,13.9783 8.25,7.3802 15.45,13.9043 16,14.4979 0.55,0.5937 3.025,2.8395 5.5,4.9908 2.475,2.1512 8.55,7.5894 13.5,12.0848 22.6483,20.5683 27.0425,24.3331 27.6512,23.6909 0.3581,-0.3779 7.247,-16.6621 15.3086,-36.1871 z"
       id="path66" />
    <path
       style="fill:none;stroke:#000000"
       d="m 2298.0121,1660.6393 c -2.0395,-63.0233 -6.3,-107.9405 -15.0844,-159.0313 -9.9356,-57.7866 -24.5641,-114.7251 -43.2181,-168.2187 -7.6526,-21.9452 -18.623,-50.641 -19.8478,-51.9167 -0.22,-0.2291 -0.4,83.9707 -0.4,187.1107 v 187.5273 l 5.25,1.5205 c 5.3204,1.5409 31.3795,9.5374 48.75,14.9595 7.9675,2.487 23.6472,7.3448 24.8447,7.6972 0.1896,0.056 0.057,-8.786 -0.2944,-19.6485 z"
       id="path65" />
    <path
       style="fill:none;stroke:#000000"
       d="m 2289.373,1679.9672 c -0.4257,-0.4257 -68.4602,-21.5779 -69.4037,-21.5779 -0.2791,0 -0.5075,4.95 -0.5075,11 v 11 h 35.1667 c 19.3416,0 34.9767,-0.19 34.7445,-0.4221 z"
       id="path64" />
    <path
       style="fill:none;stroke:#000000"
       d="m 2217.4618,1668.9669 v -11.4225 l -3.25,-1.031 c -2.7551,-0.874 -52.4632,-16.2167 -114.25,-35.2639 -8.8,-2.7128 -23.425,-7.2027 -32.5,-9.9775 -14.7421,-4.5077 -52.0482,-16.0408 -87,-26.8959 -39.3174,-12.2108 -74.9522,-22.9868 -76.0148,-22.9868 -1.2657,0 -4.9198,2.9544 -13.4852,10.9031 -2.75,2.5519 -13.775,12.4834 -24.5,22.0699 -15.2565,13.6369 -44.9862,40.511 -52.5773,47.527 -0.595,0.55 -9.1142,8.2 -18.9313,17 -9.8172,8.8 -19.2192,17.2375 -20.8933,18.75 l -3.0438,2.75 h 223.2228 223.2229 z"
       id="path63" />
    <path
       style="fill:none;stroke:#000000"
       d="m 1764.5096,1675.6393 c -1.0576,-2.6125 -5.1167,-12.4 -9.0202,-21.75 -3.9035,-9.35 -9.519,-22.85 -12.4789,-30 -2.9599,-7.15 -10.3226,-24.925 -16.3615,-39.5 -6.0389,-14.575 -14.2276,-34.375 -18.197,-44 -3.9695,-9.625 -8.4586,-20.425 -9.9758,-24 -1.5172,-3.575 -4.0536,-9.7518 -5.6365,-13.7263 -3.3475,-8.4054 -1.2521,-8.3491 -19.8779,-0.5335 -7.15,3.0002 -16.6,6.9603 -21,8.8002 -11.4621,4.7929 -60.0991,24.8843 -72.5,29.949 -5.775,2.3585 -17.475,7.2079 -26,10.7764 -8.525,3.5684 -20.675,8.6027 -27,11.1873 -6.325,2.5845 -16.675,6.8833 -23,9.5527 -12.3339,5.2055 -58.7407,24.4298 -76,31.4835 -10.5831,4.3252 -40.6912,16.8243 -55.5,23.0404 -10.6382,4.4654 -125.5812,52.0135 -127.5,52.7425 -0.825,0.3135 116.2809,0.6054 260.2354,0.6489 l 261.7354,0.079 z"
       id="path62" />
    <path
       style="fill:none;stroke:#000000"
       d="m 1228.4618,1679.2725 c -1.375,-0.5445 -6.1,-2.5134 -10.5,-4.3753 -4.4,-1.862 -23.975,-9.9623 -43.5,-18.0008 -19.525,-8.0385 -39.1,-16.1254 -43.5,-17.9709 -12.4545,-5.2239 -56.9414,-23.6731 -102.5,-42.508 -22.825,-9.4363 -45.09996,-18.6622 -49.49996,-20.5021 -4.4,-1.8398 -33.2,-13.7621 -64,-26.4939 -30.8,-12.7318 -59.6,-24.6599 -64,-26.5069 -31.5255,-13.2337 -66.7288,-27.6171 -66.9339,-27.348 -0.1353,0.1775 -2.1706,5.0477 -4.5231,10.8227 -2.3524,5.775 -6.4208,15.675 -9.0409,22 -7.0817,17.096 -30.7136,74.3049 -34.4922,83.5 -1.8081,4.4 -6.6653,16.1 -10.7937,26 -4.1284,9.9 -9.7777,23.5125 -12.554,30.25 l -5.0477,12.25 261.6927,-0.063 c 173.78376,-0.042 260.85296,-0.3959 259.19276,-1.0534 z"
       id="path61" />
    <path
       style="fill:none;stroke:#000000"
       d="m 700.88374,1678.6393 c -5.6985,-5.1004 -32.9944,-29.7925 -33.4219,-30.2339 -0.275,-0.2838 -4.325,-3.8911 -9,-8.0161 -4.675,-4.125 -8.725,-7.7508 -9,-8.0573 -0.499,-0.5561 -40.7323,-36.9409 -65.4498,-59.1892 -7.1776,-6.4606 -13.6546,-11.7481 -14.3933,-11.75 -1.3348,0 -21.1408,6.0211 -110.1569,33.5072 -46.2756,14.2888 -93.3328,28.7966 -161,49.6364 -19.525,6.0133 -36.9625,11.4 -38.75,11.9706 l -3.25,1.0374 v 11.4225 11.4224 h 223.1886 c 212.6387,0 223.0961,-0.083 221.2333,-1.75 z"
       id="path60" />
    <path
       style="fill:none;stroke:#000000"
       d="m 254.46184,1669.3219 c 0,-10.0638 -0.1587,-11.0221 -1.75,-10.5683 -2.6599,0.7585 -67.605,20.7091 -68.75,21.1194 -0.55,0.1971 15.0875,0.3939 34.75,0.4374 l 35.75,0.079 z"
       id="path59" />
    <path
       style="fill:none;stroke:#000000"
       d="m 222.21184,1665.8659 32.25,-9.9087 v -187.4506 c 0,-103.0979 -0.18,-187.2631 -0.4,-187.034 -1.5699,1.6351 -15.572,39.1083 -23.9154,64.0035 -27.2574,81.3308 -44.1833,165.0304 -51.1446,252.9132 -1.254,15.8312 -3.4566,64.9986 -3.5243,78.6726 l -0.016,3.1726 7.25,-2.23 c 3.9875,-1.2265 21.7625,-6.6889 39.5,-12.1386 z"
       id="path58" />
    <path
       style="fill:none;stroke:#000000"
       d="m 2242.9618,1697.9149 c 33.7235,-10.332 48.0281,-14.8095 48.4167,-15.1551 0.2291,-0.2038 -15.8584,-0.3705 -35.75,-0.3705 h -36.1667 v 11.4021 11.4022 l 4.75,-1.4947 c 2.6125,-0.8221 11.05,-3.4249 18.75,-5.784 z"
       id="path57" />
    <path
       style="fill:none;stroke:#000000"
       d="m 254.14974,1682.7438 c -0.2091,-0.209 -16.4245,-0.2618 -36.0342,-0.1173 l -35.654,0.2628 35.7502,11.0646 35.7501,11.0646 0.284,-10.9473 c 0.1562,-6.021 0.1129,-11.1183 -0.096,-11.3274 z"
       id="path56" />
    <path
       style="fill:none;stroke:#000000"
       d="m 1947.4618,1789.0027 c 22.275,-6.8375 56.025,-17.2439 75,-23.1253 18.975,-5.8815 40.125,-12.3962 47,-14.4772 6.875,-2.081 36.575,-11.2335 66,-20.3389 29.425,-9.1054 59.9045,-18.494 67.7323,-20.8636 l 14.2322,-4.3084 0.018,-11.75 0.018,-11.75 h -223 c -122.65,0 -223,0.1599 -223,0.3554 0,0.1955 8.3538,7.9064 18.5639,17.1353 10.2102,9.229 19.0977,17.2925 19.75,17.9189 0.6524,0.6264 5.2361,4.7152 10.1861,9.0861 13.6128,12.0205 15.5665,13.7836 18.394,16.5999 1.4333,1.4276 9.581,8.8694 18.106,16.5374 8.525,7.668 22.6141,20.3594 31.3092,28.203 10.9273,9.8574 16.3313,14.0988 17.5,13.7352 0.9299,-0.2893 19.9158,-6.1203 42.1908,-12.9578 z"
       id="path55" />
    <path
       style="fill:none;stroke:#000000"
       d="m 602.21644,1773.7366 c 38.9128,-35.1219 61.5826,-55.6473 62.2454,-56.3576 0.275,-0.2948 8.9375,-8.1114 19.25,-17.3704 10.3125,-9.2589 18.75,-17.011 18.75,-17.2269 0,-0.2158 -100.3643,-0.3924 -223.0317,-0.3924 h -223.0318 l 0.2818,11.6918 0.2817,11.6918 13.5,4.2079 c 7.425,2.3144 19.575,6.0792 27,8.3663 7.425,2.2872 31.5,9.7207 53.5,16.519 47.4681,14.6683 180.9057,55.8416 198,61.0945 6.6,2.0281 13.8,4.2741 16,4.9912 2.2,0.717 4.3396,1.3338 4.7546,1.3706 0.415,0.037 15.04,-12.8268 32.5,-28.5858 z"
       id="path54" />
    <path
       style="fill:none;stroke:#000000"
       d="m 1740.6856,1852.8331 c 26.0019,-8.0059 53.5762,-16.5401 61.2762,-18.9649 7.7,-2.4248 25.7,-7.9819 40,-12.3491 50.496,-15.4212 57.0077,-17.4632 57.7741,-18.1173 0.4257,-0.3634 -5.4243,-6.2505 -13,-13.0826 -7.5758,-6.832 -14.2672,-12.8737 -14.8698,-13.4259 -7.533,-6.9025 -34.3723,-31.1824 -55.9043,-50.573 -14.85,-13.3733 -31.32,-28.2786 -36.6,-33.123 -5.28,-4.8444 -10.005,-8.7958 -10.5,-8.7809 -0.495,0.015 -10.767,23.9773 -22.8267,53.25 -19.7667,47.9798 -24.8646,60.2941 -36.1089,87.2229 -1.8372,4.4 -6.3283,15.2 -9.9802,24 -3.6519,8.8 -6.8779,16.5625 -7.169,17.25 -0.291,0.6875 -0.2678,1.25 0.052,1.25 0.3194,0 21.8551,-6.5503 47.857,-14.5562 z"
       id="path53" />
    <path
       style="fill:none;stroke:#000000"
       d="m 1691.5035,1864.1393 c 2.5336,-6.4112 30.1932,-73.487 34.9478,-84.75 2.67,-6.325 8.0006,-19.15 11.8457,-28.5 5.491,-13.3522 25.1967,-60.9305 27.8533,-67.25 0.4196,-0.9982 -52.3207,-1.2424 -261.8315,-1.2121 l -262.357,0.038 17,7.0184 c 9.35,3.8602 20.6,8.5247 25,10.3657 4.4,1.841 13.625,5.6841 20.5,8.5402 6.875,2.8561 16.1,6.6946 20.5,8.5299 4.4,1.8353 23.975,9.9275 43.5,17.9825 19.525,8.0551 40.9,16.8964 47.5,19.6475 46.152,19.2374 64.4176,26.8216 75.5,31.3493 20.2829,8.2865 64.5583,26.5894 70,28.9371 3.025,1.3051 13.15,5.531 22.5,9.3909 9.35,3.8599 36.575,15.1405 60.5,25.0681 23.925,9.9276 44.0079,18.0602 44.6287,18.0725 0.6208,0.012 1.7066,-1.4403 2.413,-3.2278 z"
       id="path52" />
    <path
       style="fill:none;stroke:#000000"
       d="m 794.20014,1863.8025 c 4.8189,-1.9728 12.3617,-5.0896 16.7617,-6.9263 4.4,-1.8368 23.975,-9.9276 43.5,-17.9798 19.525,-8.0521 39.1,-16.1419 43.5,-17.9772 4.4,-1.8353 13.625,-5.6738 20.5,-8.5299 6.875,-2.8561 16.1,-6.6937 20.5,-8.528 7.3418,-3.0606 70.94816,-29.3867 105.49996,-43.6654 7.975,-3.2958 18.1,-7.4957 22.5,-9.3333 9.7138,-4.0567 97.2952,-40.3587 117.5,-48.7031 7.975,-3.2936 19.9,-8.2389 26.5,-10.9895 6.6,-2.7506 14.025,-5.8304 16.5,-6.8441 4.3892,-1.7977 -1.962,-1.8442 -257.85696,-1.8898 -209.5038,-0.037 -262.255,0.205 -261.8507,1.2032 0.2785,0.6875 3.4155,8.225 6.9711,16.75 3.5556,8.525 9.7185,23.375 13.6953,33 7.2154,17.4633 14.2444,34.3646 20.5864,49.5 3.8772,9.2531 20.9651,50.6551 29.2008,70.75 3.0994,7.5625 5.9942,13.75 6.433,13.75 0.4387,0 4.7405,-1.6141 9.5594,-3.5868 z"
       id="path51" />
    <path
       style="fill:none;stroke:#000000"
       d="m 781.16174,1866.1393 c -4.5579,-11.0832 -14.1386,-33.9692 -15.1752,-36.25 -0.7499,-1.65 -2.7826,-6.6 -4.517,-11 -1.7343,-4.4 -4.2285,-10.475 -5.5424,-13.5 -2.4462,-5.6315 -25.081,-60.3514 -41.0442,-99.2246 -4.9066,-11.9485 -9.3711,-21.7272 -9.9211,-21.7305 -0.55,0 -3.2758,2.1229 -6.0573,4.7246 -2.7815,2.6018 -7.2815,6.7225 -10,9.1571 -2.7185,2.4346 -9.4427,8.5532 -14.9427,13.5969 -5.5,5.0436 -14.725,13.3611 -20.5,18.4832 -5.775,5.1221 -15.45,13.8868 -21.5,19.4772 -6.05,5.5903 -15.05,13.7133 -20,18.051 -4.95,4.3378 -9.225,8.1435 -9.5,8.4572 -0.275,0.3137 -6.9125,6.35 -14.75,13.4141 -7.8375,7.064 -14.25,12.9931 -14.25,13.1758 0,0.4239 45.8826,14.9074 78.5,24.7796 21.1645,6.4058 77.3513,23.7928 106.5,32.9564 22.2957,7.0092 23.4634,7.2886 22.6999,5.432 z"
       id="path50" />
    <path
       style="fill:none;stroke:#000000"
       d="m 1618.3372,2040.3893 c 5.0165,-12.1384 13.3631,-32.219 17.6653,-42.5 1.8413,-4.4 7.2484,-17.45 12.0159,-29 4.7675,-11.55 14.0714,-34.05 20.6752,-50 18.846,-45.5178 19.7682,-47.7849 19.7682,-48.598 0,-0.422 -1.0125,-1.0867 -2.25,-1.4772 -1.2375,-0.3905 -7.875,-3.0755 -14.75,-5.9666 -6.875,-2.891 -37.7,-15.6834 -68.5,-28.4274 -30.8,-12.744 -61.4,-25.4258 -68,-28.1818 -16.2404,-6.7814 -21.2696,-8.8638 -72,-29.8118 -24.2,-9.9929 -47.6,-19.6756 -52,-21.5172 -18.3269,-7.6706 -45.717,-19.032 -55.8348,-23.1605 -5.9591,-2.4315 -18.8585,-7.7683 -28.6652,-11.8595 -9.8067,-4.0912 -22.7061,-9.4298 -28.6652,-11.8634 -5.9591,-2.4337 -20.6666,-8.5225 -32.6833,-13.5307 -12.0167,-5.0083 -22.1413,-9.1059 -22.499,-9.1059 -0.3578,0 82.5991,83.253 184.3485,185.0068 184.967,184.9748 184.9992,185.0063 186.2236,182.25 0.6736,-1.5163 2.9914,-7.0318 5.1508,-12.2568 z"
       id="path49" />
    <path
       style="fill:none;stroke:#000000"
       d="m 1231.0993,1685.6935 c -0.154,-0.1541 -4.6171,1.4913 -9.9178,3.6564 -14.2672,5.8274 -105.0701,43.4772 -129.2197,53.5787 -11.2011,4.6853 -59.8654,24.7896 -72.5,29.9515 -9.4424,3.8577 -21.34276,8.798 -59.49996,24.7009 -6.6,2.7507 -15.6,6.4981 -20,8.3275 -14.5852,6.0641 -65.8595,27.2734 -74.5,30.8164 -4.675,1.917 -13.9,5.7302 -20.5,8.4738 -6.6,2.7436 -17.4,7.2325 -24,9.9753 -6.6,2.7428 -17.175,7.1048 -23.5,9.6934 -6.325,2.5886 -11.6703,4.8728 -11.8784,5.076 -0.3282,0.3204 10.4692,27.2051 17.4487,43.4459 1.3,3.025 11.6623,28 23.0273,55.5 11.365,27.5 23.0984,55.85 26.0742,63 2.9758,7.15 6.346,15.4205 7.4894,18.3789 l 2.079,5.3789 184.83866,-184.8367 c 101.6613,-101.6602 184.7127,-184.9628 184.5586,-185.1169 z"
       id="path48" />
    <path
       style="fill:none;stroke:#000000"
       d="m 1790.8456,2062.1393 c -1.8887,-3.6811 -18.1896,-34.6401 -25.4051,-48.25 -24.8954,-46.9576 -44.2922,-83.6728 -56.5283,-107 -15.6259,-29.7894 -17.3757,-32.9751 -18.2782,-33.2759 -0.5197,-0.1733 -1.4083,0.943 -1.9747,2.4805 -1.18,3.203 -10.0121,24.6538 -19.4733,47.2954 -3.5623,8.525 -11.31,27.2 -17.217,41.5 -5.9071,14.3 -16.784,40.5662 -24.1709,58.3694 -7.387,17.8031 -13.2971,32.4986 -13.1336,32.6565 0.2971,0.2869 25.4361,1.6688 99.7973,5.4861 21.725,1.1153 46.025,2.4032 54,2.862 7.975,0.4589 16.6491,0.9 19.2757,0.9802 l 4.7757,0.1458 z"
       id="path47" />
    <path
       style="fill:none;stroke:#000000"
       d="m 720.86944,2063.407 c 20.9508,-1.0903 60.5771,-3.1375 88.0584,-4.5494 27.4813,-1.4118 50.128,-2.729 50.326,-2.927 0.1981,-0.198 -1.8864,-5.6883 -4.6321,-12.2007 -5.0136,-11.8917 -13.7997,-33.0751 -20.672,-49.8406 -3.8654,-9.4301 -11.8403,-28.7131 -20.265,-49 -9.7126,-23.3882 -15.0097,-36.211 -22.2042,-53.75 -4.0045,-9.7625 -7.6146,-17.75 -8.0225,-17.75 -0.4078,0 -4.6969,7.5375 -9.5312,16.75 -4.8343,9.2125 -10.0028,19 -11.4856,21.75 -1.4828,2.75 -5.5291,10.4 -8.9918,17 -6.2533,11.9191 -9.5689,18.1961 -18.2235,34.5 -2.4816,4.675 -8.6779,16.375 -13.7697,26 -5.0917,9.625 -11.1675,21.1 -13.5017,25.5 -17.0858,32.2061 -21.4927,40.6233 -21.4927,41.0514 0,0.2686 -1.125,2.2705 -2.5,4.4486 -2.616,4.1441 -2.9314,5 -1.8424,5 0.3617,0 17.7992,-0.8921 38.75,-1.9823 z"
       id="path46" />
    <path
       style="fill:none;stroke:#000000"
       d="m 2232.4035,2049.8893 c 34.3151,-92.0066 55.0851,-187.7026 63.0074,-290.3018 1.3297,-17.22 3.4024,-75.18 2.7132,-75.8692 -0.4497,-0.4498 -37.3048,10.6057 -69.4123,20.8217 l -9.25,2.9432 0.042,187.7031 0.042,187.703 2.5125,-6 c 1.3819,-3.3 6.037,-15.45 10.3447,-27 z"
       id="path45" />
    <path
       style="fill:none;stroke:#000000"
       d="m 254.46184,1894.9718 v -187.4176 l -9.25,-3.0301 c -20.5851,-6.7435 -68.9701,-21.248 -69.4106,-20.8075 -0.7753,0.7752 1.5622,59.9027 3.1935,80.7804 7.8171,100.0458 29.4075,197.8062 63.6914,288.3923 10.9592,28.9566 11.1709,29.5 11.4914,29.5 0.1564,0 0.2843,-84.3379 0.2843,-187.4175 z"
       id="path44" />
    <path
       style="fill:none;stroke:#000000"
       d="m 2212.3785,2084.0491 c -2.0681,-1.6883 -22.6294,-20.0378 -26.9328,-24.0355 -7.086,-6.5826 -14.3885,-13.2241 -24.996,-22.7336 -4.6683,-4.1851 -13.6629,-12.2492 -19.9879,-17.9201 -15.2933,-13.712 -29.0091,-26.1287 -36.9823,-33.4797 -3.5847,-3.305 -17.3177,-15.6674 -30.5177,-27.4722 -13.2,-11.8047 -26.25,-23.5454 -29,-26.0905 -2.75,-2.545 -10.625,-9.7128 -17.5,-15.9283 -6.875,-6.2155 -16.55,-14.9767 -21.5,-19.4694 -4.95,-4.4927 -13.05,-11.7374 -18,-16.0995 -4.95,-4.362 -9.675,-8.6564 -10.5,-9.543 -0.825,-0.8866 -10.5,-9.6539 -21.5,-19.4828 -11,-9.8289 -22.475,-20.1695 -25.5,-22.979 -22.0632,-20.4918 -26.009,-23.6402 -28.7854,-22.9684 -2.7563,0.6669 -89.719,27.4124 -156.2146,48.044 -20.075,6.2287 -39.2,12.0887 -42.5,13.0223 -3.3,0.9335 -6.3426,2.0126 -6.7613,2.3979 -0.4187,0.3853 1.8313,1.7471 5,3.0263 3.1687,1.2791 8.6863,3.5629 12.2613,5.0752 3.575,1.5122 14.15,5.9022 23.5,9.7555 20.2947,8.3638 96.6572,39.9645 108,44.693 4.4,1.8343 13.625,5.6719 20.5,8.528 6.875,2.8561 16.1,6.6946 20.5,8.5299 4.4,1.8353 23.975,9.9159 43.5,17.9568 19.525,8.041 37.975,15.6803 41,16.9762 3.025,1.296 13.375,5.6081 23,9.5826 9.625,3.9745 24.475,10.1402 33,13.7016 8.525,3.5614 20.225,8.405 26,10.7635 11.7973,4.8182 60.2346,24.8233 72.5,29.9433 4.4,1.8367 12.95,5.4083 19,7.9369 67.7073,28.2983 71.1895,29.7164 69.4167,28.269 z"
       id="path43" />
    <path
       style="fill:none;stroke:#000000"
       d="m 296.96944,2069.9126 c 18.1458,-7.512 36.5924,-15.1595 40.9924,-16.9943 4.4,-1.8348 13.625,-5.6729 20.5,-8.529 6.875,-2.8561 16.1,-6.6937 20.5,-8.528 4.4,-1.8342 26.675,-11.0611 49.5,-20.5041 22.825,-9.443 47.8,-19.7833 55.5,-22.9785 16.4568,-6.8288 23.934,-9.9158 35.5,-14.6565 14.4759,-5.9333 118.5137,-49.0939 139.5,-57.8722 11.3328,-4.7404 59.986,-24.8392 72.5,-29.9501 18.6116,-7.6011 42.416,-17.5012 45.5,-18.9231 2.1631,-0.9974 2.5816,-1.5386 1.5,-1.9402 -1.5968,-0.5928 -20.7291,-6.5027 -117,-36.1405 -33.275,-10.2441 -66.8376,-20.6238 -74.5835,-23.0662 -7.7459,-2.4423 -14.6621,-4.4406 -15.3693,-4.4406 -0.9506,0 -16.482,13.388 -22.0472,19.0046 -0.275,0.2776 -4.55,4.1026 -9.5,8.5 -4.95,4.3975 -9.225,8.2335 -9.5,8.5246 -0.8223,0.8702 -51.1303,46.3555 -68.5416,61.9708 -31.6757,28.4084 -81.9404,73.8796 -87.6564,79.2971 -1.0429,0.9884 -5.5875,4.9993 -10.0991,8.9131 -4.5116,3.9138 -8.6529,7.614 -9.2029,8.2227 -0.55,0.6087 -12.7,11.6471 -27,24.5297 -14.3,12.8826 -26.225,23.6912 -26.5,24.0193 -0.275,0.328 -4.55,4.1564 -9.5,8.5074 -14.5286,12.7708 -30.9665,28.1918 -28.9924,27.199 0.5542,-0.2787 15.8542,-6.6529 34,-14.165 z"
       id="path42" />
    <path
       style="fill:none;stroke:#000000"
       d="m 2217.0506,1708.6447 c -0.3623,-0.3622 -23.4629,6.6184 -88.5888,26.7702 -14.2784,4.4182 -118.3788,36.5309 -182.5,56.2973 -11.55,3.5605 -25.1625,7.714 -30.25,9.23 -5.0875,1.5161 -9.25,3.0729 -9.25,3.4596 0,0.3867 5.9625,6.0297 13.25,12.54 7.2875,6.5102 13.9814,12.5367 14.8753,13.3922 2.7581,2.6394 45.8897,41.6704 54.8747,49.6577 4.5332,4.0298 56.7929,51.2256 68.5,61.8625 4.95,4.4975 13.05,11.7403 18,16.0951 4.95,4.3548 9.675,8.6631 10.5,9.574 0.825,0.9109 10.95,10.1259 22.5,20.4777 37.4058,33.5257 79.5524,71.5744 99.9607,90.2418 l 8.0393,7.3535 0.2526,-188.2676 c 0.1389,-103.5471 0.065,-188.4549 -0.1638,-188.684 z"
       id="path41" />
    <path
       style="fill:none;stroke:#000000"
       d="m 272.92604,2070.9927 c 4.9304,-4.4569 11.0054,-9.9034 13.5,-12.1034 2.4947,-2.2 4.7608,-4.2586 5.0358,-4.5746 0.4557,-0.5237 5.445,-5.0279 32.4985,-29.3391 4.9492,-4.4475 11.6992,-10.5874 15,-13.6444 3.3008,-3.0569 17.2515,-15.6308 31.0015,-27.9419 13.75,-12.3111 27.714,-24.885 31.0311,-27.9419 9.9498,-9.1696 14.833,-13.5829 41.4689,-37.479 14.025,-12.5824 27.975,-25.1907 31,-28.0184 3.025,-2.8277 14.5,-13.1743 25.5,-22.9925 11,-9.8181 20.6814,-18.575 21.5142,-19.4597 0.8329,-0.8847 5.3306,-4.9835 9.9951,-9.1085 4.6644,-4.125 9.0693,-8.0542 9.7887,-8.7316 0.7195,-0.6774 7.1342,-6.4789 14.255,-12.8922 7.1209,-6.4133 12.947,-11.9919 12.947,-12.3967 0,-0.4049 -1.6875,-1.1847 -3.75,-1.7328 -4.1635,-1.1065 -13.5799,-3.9931 -54.75,-16.784 -15.4,-4.7846 -34.3,-10.6179 -42,-12.9631 -7.7,-2.3451 -47.075,-14.483 -87.5,-26.9731 -94.2532,-29.1212 -121.6698,-37.5265 -122.4058,-37.5265 -0.3268,0 -0.5942,84.8716 -0.5942,188.6036 v 188.6036 l 3.75,-3.2502 c 2.0625,-1.7876 7.7839,-6.8967 12.7142,-11.3536 z"
       id="path40" />
    <path
       style="fill:none;stroke:#000000"
       d="m 2208.4862,2085.2747 c -2.8874,-1.1522 -97.7114,-40.4215 -109.5244,-45.3572 -4.4,-1.8384 -14.525,-6.039 -22.5,-9.3348 -34.5518,-14.2787 -98.1582,-40.6048 -105.5,-43.6654 -4.4,-1.8343 -13.625,-5.6719 -20.5,-8.528 -6.875,-2.8561 -16.1,-6.6946 -20.5,-8.5299 -4.4,-1.8353 -23.975,-9.9251 -43.5,-17.9772 -34.8534,-14.3736 -39.3273,-16.2267 -63.5,-26.3012 -38.1572,-15.9029 -50.0576,-20.8432 -59.5,-24.7009 -24.0249,-9.8153 -64.7202,-26.6241 -67.6203,-27.9298 l -3.1202,-1.4049 5.5085,10.6719 c 3.0296,5.8696 6.7963,12.8163 8.3702,15.437 1.574,2.6208 2.8618,4.9592 2.8618,5.1965 0,0.2373 8.1556,15.8681 18.1235,34.735 9.9679,18.8669 22.3938,42.4035 27.6131,52.3035 5.2193,9.9 11.1816,21.15 13.2495,25 2.0679,3.85 8.5998,16.225 14.5153,27.5 5.9155,11.275 11.2601,21.0426 11.877,21.7057 1.4197,1.5262 5.504,1.8263 65.6216,4.8211 90.5918,4.5129 178.0756,8.9982 281,14.4067 60.0091,3.1534 70.8249,3.4684 67.0244,1.9519 z"
       id="path39" />
    <path
       style="fill:none;stroke:#000000"
       d="m 348.46184,2082.3967 c 42.625,-2.1909 86.725,-4.4452 98,-5.0097 11.275,-0.5645 33.775,-1.6905 50,-2.5022 16.225,-0.8118 33.325,-1.7085 38,-1.9927 4.675,-0.2843 22,-1.1935 38.5,-2.0206 73.1193,-3.665 105.7644,-5.4176 105.9798,-5.6895 0.1275,-0.161 3.0592,-5.6927 6.5148,-12.2927 8.4548,-16.1476 14.3794,-27.3911 19.4966,-37 2.3432,-4.4 8.4197,-15.875 13.5033,-25.5 5.0835,-9.625 10.9276,-20.65 12.9868,-24.5 2.0592,-3.85 8.8126,-16.675 15.0075,-28.5 12.8611,-24.5495 26.6428,-50.5324 31.7647,-59.8864 1.9233,-3.5125 3.1031,-6.153 2.6217,-5.8676 -0.7719,0.4575 -29.9517,12.6003 -74.3752,30.9502 -7.975,3.2942 -18.1,7.4936 -22.5,9.3319 -4.4,1.8383 -33.2,13.7674 -64,26.509 -53.9673,22.3257 -70.8561,29.3311 -88,36.5022 -11.2011,4.6853 -59.8653,24.7896 -72.5,29.9515 -9.4424,3.8577 -21.3427,8.798 -59.5,24.7009 -24.1727,10.0745 -28.6466,11.9276 -63.5,26.3012 -54.7964,22.5981 -71.283,29.5002 -71.9167,30.1077 -0.7378,0.7073 5.159,0.4548 83.9167,-3.5932 z"
       id="path38" />
    <path
       style="fill:none;stroke:#000000"
       d="m 1454.9618,2121.4062 c 14.85,-6.1708 36,-14.9524 47,-19.5148 11,-4.5624 28.325,-11.7669 38.5,-16.0099 10.175,-4.243 22.1,-9.1907 26.5,-10.9949 21.0414,-8.6277 43.021,-17.7318 43.2088,-17.8975 0.1149,-0.1013 -83.0326,-83.4152 -184.7721,-185.142 l -184.981,-184.9578 4.1152,10 c 2.2633,5.5 5.596,13.6 7.406,18 5.4551,13.2613 44.4549,107.4058 48.0536,116 1.8424,4.4 13.7723,33.2 26.5109,64 12.7386,30.8 26.5406,64.1 30.671,74 4.1305,9.9 8.9894,21.6 10.7975,26 4.762,11.5881 28.8681,69.927 34.7095,84 2.7395,6.6 5.9975,14.475 7.2399,17.5 16.2583,39.584 15.2261,37.3383 16.8674,36.6958 0.6453,-0.2527 13.3233,-5.5082 28.1733,-11.6789 z"
       id="path37" />
    <path
       style="fill:none;stroke:#000000"
       d="m 1054.52,2119.3875 c 8.6535,-20.9819 11.5526,-27.992 16.9554,-40.9982 2.856,-6.875 7.7825,-18.8 10.9478,-26.5 8.0353,-19.5466 34.1319,-82.5488 40.179,-97 9.2517,-22.1096 11.6108,-27.7938 30.9184,-74.5 10.5723,-25.575 21.4091,-51.7875 24.0818,-58.25 2.6727,-6.4625 7.0453,-17.0375 9.7169,-23.5 30.5107,-73.8033 36.7418,-88.8592 39.6277,-95.75 1.8427,-4.4 4.0777,-9.8 4.9666,-12 1.2649,-3.1304 -38.5981,36.2067 -183.3659,180.9471 -184.38896,184.3541 -184.97346,184.9511 -182.28396,186.1955 2.4822,1.1485 46.8089,19.5358 82.6981,34.3044 8.25,3.3949 18.6,7.6772 23,9.5163 32.02336,13.3848 63.72356,26.5004 70.99996,29.3755 2.75,1.0866 5.3158,1.6791 5.7018,1.3166 0.386,-0.3624 3.0213,-6.2832 5.8564,-13.1572 z"
       id="path36" />
    <path
       style="fill:none;stroke:#000000"
       d="m 1249.6801,2206.4471 c 5.1049,-2.1682 30.6567,-12.769 56.7817,-23.5573 46.6699,-19.2722 52.4277,-21.6602 74.5,-30.8973 6.05,-2.5319 17.975,-7.4769 26.5,-10.9888 10.4842,-4.319 15.3931,-6.8268 15.1698,-7.7498 -0.1816,-0.7505 -7.9833,-19.8146 -17.337,-42.3646 -9.3537,-22.55 -20.156,-48.65 -24.005,-58 -3.8491,-9.35 -8.5087,-20.6 -10.3547,-25 -1.846,-4.4 -13.7756,-33.2 -26.5102,-64 -21.6214,-52.2939 -28.118,-67.9561 -36.5022,-88 -4.7404,-11.3328 -24.8392,-59.986 -29.9501,-72.5 -4.4972,-11.0117 -14.52,-35.1982 -21.9628,-53 -2.4145,-5.775 -6.9146,-16.575 -10.0003,-24 -3.0857,-7.425 -6.0157,-14.4 -6.5112,-15.5 -0.5376,-1.1934 -0.9282,103.1636 -0.9686,258.75 -0.043,167.5216 0.2785,260.75 0.9006,260.75 0.5326,0 5.1451,-1.774 10.25,-3.9422 z"
       id="path35" />
    <path
       style="fill:none;stroke:#000000"
       d="m 1235.4618,1949.7226 c 0,-143.3666 -0.1728,-260.4791 -0.384,-260.25 -0.2112,0.2292 -3.1631,7.1667 -6.5598,15.4167 -3.3966,8.25 -7.682,18.6 -9.5231,23 -1.8411,4.4 -6.0443,14.525 -9.3406,22.5 -3.2962,7.975 -12.6166,30.475 -20.712,50 -8.0954,19.525 -16.2,39.1 -18.0102,43.5 -1.8103,4.4 -5.5259,13.4 -8.257,20 -21.4793,51.9071 -31.911,77.1493 -34.7144,84 -1.8005,4.4 -6.2908,15.2 -9.9784,24 -3.6876,8.8 -8.175,19.6 -9.9721,24 -1.7971,4.4 -11.4813,27.8 -21.5204,52 -10.0391,24.2 -19.7344,47.6 -21.5451,52 -1.8107,4.4 -5.7652,13.9637 -8.7879,21.2526 -3.0226,7.2889 -5.1897,13.4416 -4.8158,13.6727 0.3739,0.2311 4.2666,1.8266 8.6503,3.5455 4.3838,1.7189 9.3205,3.7318 10.9705,4.4731 2.7248,1.2242 20.281,8.5375 41,17.0791 4.4,1.8139 13.4,5.5317 20,8.2616 6.6,2.7299 29.1,12.0093 50,20.621 20.9,8.6116 40.925,16.9695 44.5,18.573 3.575,1.6035 7.0625,2.9393 7.75,2.9684 0.9969,0.042 1.25,-52.7187 1.25,-260.6137 z"
       id="path34" />
    <path
       style="fill:none;stroke:#000000"
       d="m 1620.1077,2225.6393 c -0.3506,-6.4625 -1.5559,-29.75 -2.6784,-51.75 -4.3634,-85.5151 -5.9294,-113.7952 -6.3229,-114.1888 -0.3736,-0.3735 -15.5202,5.6911 -47.1446,18.8765 -6.6,2.7517 -15.6,6.4689 -20,8.2604 -4.4,1.7914 -21.275,8.7823 -37.5,15.5352 -36.9106,15.3623 -55.6032,23.0975 -68.8876,28.5063 l -10.3875,4.2294 11.8875,6.2816 c 6.5382,3.4548 16.1626,8.5309 21.3876,11.28 5.225,2.7491 12.2,6.4569 15.5,8.2396 3.3,1.7827 11.175,5.9412 17.5,9.2412 6.325,3.3 29.725,15.66 52,27.4666 22.275,11.8065 46.8,24.762 54.5,28.7899 7.7,4.0279 15.35,8.1449 17,9.149 1.65,1.0041 3.1762,1.8273 3.3917,1.8294 0.2154,0 0.1048,-5.2838 -0.2458,-11.7463 z"
       id="path33" />
    <path
       style="fill:none;stroke:#000000"
       d="m 893.46184,2216.1528 c 6.325,-3.3347 22.075,-11.6712 35,-18.5256 12.925,-6.8543 28,-14.8345 33.5,-17.7336 5.5,-2.8991 25.3,-13.3577 43.99996,-23.2412 18.7,-9.8836 35.526,-18.7554 37.3911,-19.7152 l 3.391,-1.7451 -45.891,-18.9544 c -25.24006,-10.4249 -49.49106,-20.4621 -53.89106,-22.3049 -12.6215,-5.2861 -30.7105,-12.8061 -47,-19.539 -8.25,-3.4099 -19.8606,-8.2328 -25.8013,-10.7176 -5.9407,-2.4847 -11.0263,-4.2927 -11.3013,-4.0176 -0.275,0.275 -2.2549,34.8644 -4.3997,76.8654 -2.1449,42.0009 -4.1995,81.8544 -4.566,88.5634 l -0.6663,12.198 14.3673,-7.5348 c 7.902,-4.1441 19.5423,-10.2631 25.8673,-13.5978 z"
       id="path32" />
    <path
       style="fill:none;stroke:#000000"
       d="m 1361.1004,2338.1393 c 2.6304,-8.9623 54.3438,-176.7443 58.411,-189.512 3.4499,-10.8301 3.5122,-11.3767 1.2004,-10.5476 -1.6963,0.6084 -40.2565,16.4804 -68.75,28.2985 -7.7,3.1937 -26.15,10.8434 -41,16.9993 -14.85,6.1559 -30.6,12.6978 -35,14.5375 -17.9852,7.52 -32.1297,13.2681 -34.25,13.9187 -1.2375,0.3797 -2.25,1.0202 -2.25,1.4233 0,0.4031 3.4875,4.5526 7.75,9.2212 4.2625,4.6686 15.2135,16.796 24.3356,26.9497 37.7354,42.0032 66.2631,73.5918 68.2734,75.599 1.1776,1.1757 5.741,6.2319 10.141,11.2359 4.4,5.0041 8.2274,9.1047 8.5054,9.1124 0.278,0.01 1.4629,-3.2484 2.6332,-7.2359 z"
       id="path31" />
    <path
       style="fill:none;stroke:#000000"
       d="m 1122.9781,2337.3893 c 3.73,-4.125 8.868,-9.75 11.4178,-12.5 2.5498,-2.75 8.1768,-9.0066 12.5044,-13.9035 4.3277,-4.8969 8.5869,-9.6622 9.465,-10.5894 3.9985,-4.2224 19.6091,-21.4802 28.0475,-31.0071 5.1153,-5.775 11.6064,-12.9823 14.4247,-16.0161 20.6895,-22.2717 36.1519,-39.8515 35.4987,-40.3597 -0.2059,-0.1603 -5.0994,-2.2379 -10.8744,-4.617 -5.775,-2.3791 -14.55,-6.0136 -19.5,-8.0767 -4.95,-2.0631 -29.925,-12.408 -55.5,-22.9886 -25.575,-10.5806 -51.9,-21.4775 -58.5,-24.2152 -24.9086,-10.3325 -38.011,-15.5331 -38.3356,-15.2163 -0.1845,0.1801 0.8247,4.0764 2.2429,8.6585 11.0547,35.7183 34.0922,110.5893 46.3286,150.566 8.1202,26.5292 15.0419,48.1292 15.3814,48 0.3395,-0.1292 3.6691,-3.6099 7.399,-7.7349 z"
       id="path30" />
    <path
       style="fill:none;stroke:#000000"
       d="m 536.64564,2334.3407 c 5.9907,-11.2483 14.1963,-26.7514 18.2347,-34.4514 4.0384,-7.7 11.1538,-21.2 15.8119,-30 4.6582,-8.8 14.8893,-28.15 22.7359,-43 7.8467,-14.85 16.1781,-30.6 18.5144,-35 5.8045,-10.9319 13.3444,-25.2098 19.0109,-36 5.1052,-9.7213 28.5116,-53.9653 39.6364,-74.9228 3.7728,-7.1076 6.75,-12.9926 6.6159,-13.0778 -0.1342,-0.085 -11.7189,0.4348 -25.7439,1.1556 -14.025,0.7209 -74.325,3.7807 -134,6.7996 -59.675,3.019 -112.55,5.7332 -117.5,6.0317 -11.4201,0.6886 -123.9785,6.3593 -132,6.6501 -3.3,0.1197 -6.8118,0.4218 -7.804,0.6713 -1.3456,0.3385 31.947,34.2162 131,133.302 73.0422,73.0666 133.2072,132.7233 133.6999,132.5706 0.4927,-0.1526 5.7973,-9.4807 11.7879,-20.7289 z"
       id="path29" />
    <path
       style="fill:none;stroke:#000000"
       d="m 2214.1082,2089.7023 c -0.3579,-0.3578 -16.2872,-1.4465 -35.3985,-2.4193 -19.1113,-0.9729 -43.9729,-2.2563 -55.2479,-2.8522 -11.275,-0.5958 -51.325,-2.6442 -89,-4.552 -37.675,-1.9078 -86.05,-4.3723 -107.5,-5.4767 -21.45,-1.1044 -57,-2.9043 -79,-3.9998 -22,-1.0955 -42.5526,-2.1353 -45.6725,-2.3106 l -5.6725,-0.3188 2.0608,4.0582 c 1.1335,2.232 6.3294,12.1582 11.5466,22.0582 5.2172,9.9 12.1926,23.175 15.5008,29.5 3.3082,6.325 7.4689,14.2 9.2461,17.5 4.29,7.9662 35.9648,67.8443 63.4788,120 7.8338,14.85 15.9287,30.15 17.9886,34 3.5254,6.5892 9.5527,17.9624 18.0185,34 2.0323,3.85 6.0825,11.601 9.0004,17.2244 l 5.3054,10.2244 132.998,-132.9926 c 73.1488,-73.1459 132.7052,-133.2854 132.3474,-133.6432 z"
       id="path28" />
    <path
       style="fill:none;stroke:#000000"
       d="m 1943.5523,2350.8991 c -2.1046,-3.8554 -7.0945,-13.3098 -11.0888,-21.0098 -3.9942,-7.7 -8.5046,-16.25 -10.0232,-19 -3.6489,-6.6081 -17.7354,-33.2639 -27.4798,-52 -4.2907,-8.25 -9.3082,-17.6116 -11.15,-20.8036 -1.8418,-3.1919 -3.3487,-5.9903 -3.3487,-6.2186 0,-0.2282 -3.6468,-7.2916 -8.1039,-15.6964 -4.4572,-8.4048 -10.5961,-20.0064 -13.642,-25.7814 -3.0459,-5.775 -9.8102,-18.6 -15.0317,-28.5 -5.2216,-9.9 -12.9729,-24.525 -17.2252,-32.5 -4.2523,-7.975 -13.2646,-25.075 -20.0274,-38 -6.7627,-12.925 -12.335,-23.5627 -12.3829,-23.6393 -0.048,-0.077 -36.7619,-1.9877 -81.5869,-4.2468 -44.825,-2.2592 -85.1,-4.3719 -89.5,-4.695 l -8,-0.5875 157.9571,158.0426 157.9571,158.0426 8.2515,-8.1985 8.2514,-8.1985 z"
       id="path27" />
    <path
       style="fill:none;stroke:#000000"
       d="m 700.96304,2216.3524 157.9988,-158.0368 -9,0.5802 c -4.95,0.3192 -31.05,1.6767 -58,3.0167 -66.6632,3.3147 -111.9827,5.6762 -112.0848,5.8404 -0.047,0.075 -3.7107,7.1114 -8.1423,15.6364 -4.4316,8.525 -11.5244,22.025 -15.7617,30 -15.3032,28.8018 -17.4165,32.7946 -27.5226,52 -5.6436,10.725 -18.1251,34.35 -27.7367,52.5 -19.297,36.4391 -21.7805,41.1404 -38.5631,73 -6.3739,12.1 -16.9732,32.125 -23.554,44.5 l -11.9652,22.5 8.1646,8.25 c 4.4906,4.5375 8.1655,8.25 8.1664,8.25 0,0 71.1012,-71.1166 158.0006,-158.0369 z"
       id="path26" />
    <path
       style="fill:none;stroke:#000000"
       d="m 1921.6618,2383.5811 7.7,-7.7941 -157.8981,-157.8958 -157.898,-157.8957 0.459,5.4469 c 0.2525,2.9958 1.8348,33.3469 3.5162,67.4469 1.6814,34.1 3.5889,71.8273 4.239,83.8385 l 1.1819,21.8385 7,3.704 c 3.85,2.0371 13.3,7.0176 21,11.0677 7.7,4.0501 19.175,10.1504 25.5,13.5563 6.325,3.4058 17.8,9.4685 25.5,13.4726 7.7,4.0041 15.8,8.2911 18,9.5268 2.2,1.2356 9.4,5.0649 16,8.5096 13.3156,6.9497 76.5847,40.4064 86,45.4767 3.3,1.7772 11.175,5.9383 17.5,9.2471 11.1917,5.8546 39.2475,20.64 61.5,32.4105 6.05,3.2001 11.45,5.8227 12,5.828 0.55,0.01 4.465,-3.4978 8.7,-7.7845 z"
       id="path25" />
    <path
       style="fill:none;stroke:#000000"
       d="m 564.01184,2390.525 c 0.5225,-0.4754 7.25,-4.1407 14.95,-8.1451 7.7,-4.0043 14.45,-7.5982 15,-7.9864 0.55,-0.3882 8.2,-4.4401 17,-9.0042 8.8,-4.5641 26.575,-13.9045 39.5,-20.7565 12.925,-6.852 28.225,-14.9487 34,-17.9928 5.775,-3.044 18.6,-9.8033 28.5,-15.0207 9.9,-5.2173 20.925,-11.0623 24.5,-12.9888 3.575,-1.9266 10.55,-5.6377 15.5,-8.2471 66.415,-35.0102 97.1089,-51.3119 97.6186,-51.846 0.3403,-0.3564 2.4787,-38.4481 4.752,-84.6481 2.2734,-46.2 4.3485,-86.2405 4.6114,-88.9788 l 0.478,-4.9788 -157.9576,157.9552 -157.9576,157.9553 7.7276,7.7468 c 7.4328,7.4513 9.7265,8.8021 11.7776,6.936 z"
       id="path24" />
    <path
       style="fill:none;stroke:#000000"
       d="m 1979.1582,2418.1393 c -2.4561,-4.5375 -8.6193,-16.125 -13.696,-25.75 -8.3693,-15.8673 -15.4495,-29.1209 -16.7497,-31.354 -0.2735,-0.4697 -4.0455,2.6734 -8.3821,6.9847 l -7.8849,7.8386 25.2508,25.2653 c 13.8879,13.896 25.403,25.2654 25.5891,25.2654 0.1861,0 -1.6711,-3.7125 -4.1272,-8.25 z"
       id="path23" />
    <path
       style="fill:none;stroke:#000000"
       d="m 533.77784,2368.2042 c -4.2181,-4.243 -7.984,-7.5201 -8.3686,-7.2824 -0.3846,0.2377 -2.0317,3.0277 -3.6602,6.1999 -4.973,9.6873 -25.3477,48.4222 -28.545,54.2676 -2.6817,4.9029 -0.2263,2.7333 22.6174,-19.9853 l 25.6257,-25.4853 z"
       id="path22" />
    <path
       style="fill:none;stroke:#000000"
       d="m 529.46184,2408.6284 c 15.125,-7.9818 27.8315,-14.8049 28.2367,-15.1625 0.4052,-0.3575 -2.7515,-4.1177 -7.0148,-8.356 l -7.7515,-7.706 -24.9852,25.0863 c -20.7494,20.8335 -24.2223,24.7104 -20.4852,22.8685 2.475,-1.2198 16.875,-8.7484 32,-16.7303 z"
       id="path21" />
    <path
       style="fill:none;stroke:#000000"
       d="m 1981.4618,2428.1319 c 0,-0.1415 -11.3694,-11.6202 -25.2654,-25.5081 l -25.2653,-25.2508 -7.8287,7.8749 -7.8287,7.8749 11.344,6.0056 c 29.0164,15.3615 35.9856,19.0719 44.8441,23.8754 11.03,5.9809 10,5.4528 10,5.1281 z"
       id="path20" />
    <path
       style="fill:none;stroke:#000000"
       d="m 1999.5915,2419.6393 c 5.7589,-5.9125 15.3269,-16.15 21.2621,-22.75 5.9353,-6.6 12.0138,-13.35 13.508,-15 17.0254,-18.8019 40.6276,-48.5336 66.2856,-83.5 18.8061,-25.6288 49.21,-73.864 66.8145,-106 15.0116,-27.4027 34.5593,-67.4418 44.916,-92 l 3.1629,-7.5 -132.5394,132.4986 c -72.8967,72.8742 -132.5394,132.8538 -132.5394,133.288 0,0.4342 4.0095,8.3098 8.9099,17.5014 12.2753,23.0244 22.6624,42.7058 25.8401,48.962 1.4666,2.8875 2.9462,5.25 3.2878,5.25 0.3416,0 5.333,-4.8375 11.0919,-10.75 z"
       id="path19" />
    <path
       style="fill:none;stroke:#000000"
       d="m 502.46184,2399.1394 c 9.075,-17.1823 17.6159,-33.389 18.9798,-36.0151 l 2.4797,-4.7746 -132.7688,-132.7302 -132.7688,-132.7302 3.1626,7.5 c 9.2586,21.957 27.554,59.7168 41.4264,85.5 37.5333,69.7593 91.9919,147.0831 143.6156,203.9149 2.4054,2.6481 5.4409,6.0006 6.7455,7.4499 7.2093,8.009 31.4854,33.1345 32.0105,33.1304 0.3396,0 8.0425,-14.0629 17.1175,-31.2451 z"
       id="path18" />
    <path
       style="fill:none;stroke:#000000"
       d="m 1641.2237,2639.6393 c -0.4059,-8.1125 -2.3228,-45.575 -4.2598,-83.25 -5.0487,-98.199 -7.9598,-155.6833 -12.0022,-237 -1.9549,-39.325 -3.7904,-73.3841 -4.0789,-75.6869 -0.5132,-4.0956 -0.7035,-4.2786 -8.7228,-8.3888 -4.509,-2.3111 -11.7982,-6.111 -16.1982,-8.4443 -4.4,-2.3333 -15.65,-8.293 -25,-13.2437 -24.2936,-12.8632 -48.7135,-25.802 -58,-30.7311 -4.4,-2.3354 -12.725,-6.7259 -18.5,-9.7566 -19.606,-10.2893 -44.4622,-23.4178 -55.301,-29.209 -5.9406,-3.174 -11.0395,-5.5324 -11.331,-5.2409 -0.2915,0.2915 -0.091,1.356 0.4458,2.3657 0.8457,1.5909 9.3946,22.1242 27.2018,65.3356 2.6065,6.325 11.8289,28.6 20.4943,49.5 8.6653,20.9 17.8889,43.175 20.4968,49.5 2.6079,6.325 7.5473,18.25 10.9766,26.5 9.9152,23.854 15.9448,38.3915 19.4937,47 1.814,4.4 11.5109,27.8 21.5488,52 17.2383,41.5593 23.7632,57.3297 31.4445,76 1.8102,4.4 9.9179,23.975 18.0171,43.5 8.0992,19.525 17.8789,43.15 21.7327,52.5 3.8538,9.35 8.2527,19.925 9.7753,23.5 1.5226,3.575 4.7119,11.3375 7.0872,17.25 2.3754,5.9125 4.566,10.75 4.8681,10.75 0.3021,0 0.2172,-6.6375 -0.1888,-14.75 z"
       id="path17" />
    <path
       style="fill:none;stroke:#000000"
       d="m 1638.5437,2654.1393 c -0.4777,-1.2375 -7.0378,-17.1 -14.578,-35.25 -7.5402,-18.15 -15.6381,-37.725 -17.9955,-43.5 -4.4256,-10.8419 -14.2806,-34.6279 -21.9589,-53 -9.7364,-23.2969 -15.0247,-36.0486 -29.03,-70 -8.0542,-19.525 -16.2393,-39.325 -18.1891,-44 -1.9499,-4.675 -5.0461,-12.1 -6.8805,-16.5 -1.8345,-4.4 -12.1619,-29.375 -22.9499,-55.5 -18.6539,-45.1736 -21.8931,-52.9874 -29.9513,-72.25 -9.4008,-22.4722 -46.094,-111.2351 -48.8327,-118.1291 l -3.13,-7.879 -1.7295,5.379 c -1.8482,5.7482 -21.3747,69.0206 -24.6515,79.8791 -1.0788,3.575 -10.139,32.9828 -20.1338,65.3506 l -18.1724,58.8506 2.3006,2.809 c 2.5683,3.136 46.3916,51.6344 48.7852,53.9898 0.8384,0.825 4.8974,5.3228 9.0199,9.995 9.1197,10.3358 8.5853,9.7383 13.5205,15.1177 3.6686,3.9989 14.7695,16.2805 56.3893,62.3873 7.9436,8.8 17.85,19.8108 22.0143,24.4685 4.1643,4.6577 10.2714,11.4157 13.5714,15.0177 8.3179,9.0794 21.2644,23.3988 33.4649,37.0138 5.6679,6.325 11.9469,13.3 13.9534,15.5 2.0065,2.2 7.6686,8.5 12.5824,14 4.9138,5.5 9.182,10.225 9.4847,10.5 0.7664,0.6962 18.2651,20.0522 31.897,35.2828 6.2603,6.9944 11.5367,12.7172 11.7253,12.7172 0.1885,0 -0.048,-1.0125 -0.5258,-2.25 z"
       id="path16" />
    <path
       style="fill:none;stroke:#000000"
       d="m 846.88274,2643.3893 c 2.2435,-2.475 7.4541,-8.3186 11.5791,-12.9858 4.125,-4.6671 8.2254,-9.1671 9.112,-10 0.8866,-0.8328 9.6539,-10.5142 19.4828,-21.5142 9.8289,-11 20.174,-22.475 22.989,-25.5 2.815,-3.025 15.4129,-16.975 27.9953,-31 22.9238,-25.5521 27.536,-30.6569 37.0112,-40.9632 2.7997,-3.0452 19.6453,-21.7368 37.43466,-41.5368 17.7895,-19.8 32.5998,-36.225 32.9118,-36.5 0.312,-0.275 6.6303,-7.25 14.0406,-15.5 7.4102,-8.25 13.7355,-15.225 14.0562,-15.5 0.3206,-0.275 4.1391,-4.55 8.4855,-9.5 4.3465,-4.95 8.1452,-9.225 8.4418,-9.5 0.2965,-0.275 4.8141,-5.225 10.0391,-11 5.225,-5.775 9.725,-10.725 10,-11 3.3732,-3.3732 3.4855,-2.8324 -8.8614,-42.6969 -6.6101,-21.3417 -13.6415,-44.1866 -15.6255,-50.7665 -4.7579,-15.7794 -32.0507,-104.1345 -34.8567,-112.8414 l -2.1929,-6.8047 -4.16,10.3047 c -2.288,5.6677 -9.4055,22.9048 -15.8166,38.3048 -6.4111,15.4 -13.6947,32.95 -16.1859,39 -8.8821,21.5708 -14.26226,34.5732 -32.27516,78 -10.0379,24.2 -19.7348,47.6 -21.5488,52 -3.104,7.5294 -6.2589,15.1274 -18.2695,44 -5.1335,12.3406 -9.8757,23.824 -26.6361,64.5 -5.3258,12.925 -11.1896,27.1 -13.0308,31.5 -5.0188,11.9937 -12.6128,30.2528 -19.3395,46.5 -3.3018,7.975 -12.6206,30.475 -20.7085,50 -13.4519,32.4746 -20.6313,49.8808 -24.9538,60.5 l -1.6282,4 4.2156,-4.5 c 2.3185,-2.475 6.0511,-6.525 8.2947,-9 z"
       id="path15" />
    <path
       style="fill:none;stroke:#000000"
       d="m 843.63404,2628.3893 c 4.4248,-10.725 9.3056,-22.425 10.8461,-26 1.5406,-3.575 4.3516,-10.325 6.2467,-15 6.8224,-16.8302 43.2259,-104.7118 47.2227,-114 1.3016,-3.025 3.7857,-9.1 5.52,-13.5 1.7344,-4.4 3.769,-9.35 4.5213,-11 0.7523,-1.65 10.1918,-24.375 20.9767,-50.5 10.7848,-26.125 21.2064,-51.325 23.1589,-56 6.2187,-14.8892 9.9902,-23.9844 18.8675,-45.5 20.81576,-50.4506 20.50826,-49.7081 33.96296,-82 9.9946,-23.9876 19.3971,-46.6473 24.6891,-59.5 3.2836,-7.975 6.2086,-15.0625 6.5,-15.75 0.2914,-0.6875 0.1876,-1.25 -0.2305,-1.25 -0.4182,0 -9.5788,4.6786 -20.357,10.3969 -10.7782,5.7182 -27.47166,14.5464 -37.09666,19.6181 -9.625,5.0717 -21.1,11.1428 -25.5,13.4912 -4.4,2.3484 -23.525,12.469 -42.5,22.4902 -41.4096,21.8695 -55.9279,29.5501 -62.2486,32.9317 -5.7239,3.0623 -5.285,0.9071 -6.7351,33.0719 -1.0057,22.3099 -1.8892,39.8534 -6.5214,129.5 -1.8841,36.4625 -6.7161,131.7324 -9.9664,196.5 -1.3662,27.225 -2.7184,51.975 -3.0048,55 l -0.5208,5.5 2.0621,-4.5 c 1.1342,-2.475 5.6824,-13.275 10.1072,-24 z"
       id="path14" />
    <path
       style="fill:none;stroke:#000000"
       d="m 1669.9618,2650.8878 c 81.7619,-36.2328 166.7988,-88.7566 238,-147.0028 27.4035,-22.4175 77.5,-67.9626 77.5,-70.459 0,-0.6515 -34.154,-19.0446 -62.239,-33.5178 l -9.739,-5.0189 -132.761,132.7952 c -110.2015,110.2299 -131.9963,132.4697 -128.261,130.8797 2.475,-1.0535 10.35,-4.5079 17.5,-7.6764 z"
       id="path13" />
    <path
       style="fill:none;stroke:#000000"
       d="m 1844.8588,2460.2392 66.6602,-66.6501 -31.7786,-16.736 c -17.4782,-9.2048 -38.3036,-20.2137 -46.2786,-24.4642 -12.9403,-6.8969 -26.0503,-13.8281 -61,-32.2503 -5.775,-3.0441 -21.075,-11.1408 -34,-17.9928 -12.925,-6.852 -30.7,-16.1924 -39.5,-20.7565 -8.8,-4.5641 -16.45,-8.616 -17,-9.0042 -0.55,-0.3882 -7.075,-3.8985 -14.5,-7.8007 -7.425,-3.9022 -20.25,-10.6731 -28.5,-15.0464 l -15,-7.9515 -0.3062,3.8743 c -0.2789,3.5295 0.9044,28.1351 6.8254,141.9285 1.1018,21.175 4.246,82.825 6.9872,137 2.7411,54.175 5.436,106.3124 5.9887,115.8609 0.5527,9.5485 1.0049,18.0517 1.0049,18.896 0,0.8443 30.0908,-28.5681 66.8684,-65.3609 36.7776,-36.7928 96.8655,-96.8885 133.5286,-133.5461 z"
       id="path12" />
    <path
       style="fill:none;stroke:#000000"
       d="m 831.94544,2612.301 c 1.3605,-26.0765 3.611,-69.6867 5.0011,-96.9117 1.3901,-27.225 3.8658,-75.6 5.5014,-107.5 1.6357,-31.9 4.0996,-80.5 5.4754,-108 1.3758,-27.5 2.5937,-51.8 2.7065,-54 0.1354,-2.6418 -0.1971,-3.9154 -0.9793,-3.7507 -0.6514,0.1371 -12.3229,6.1537 -25.9365,13.3702 -32.2243,17.0819 -57.9374,30.6565 -72.2522,38.1437 -6.325,3.3082 -14.2,7.4689 -17.5,9.2461 -3.3,1.7771 -21.525,11.4425 -40.5,21.4787 -45.0048,23.8037 -47.5841,25.1662 -80.5,42.5233 -15.4,8.1207 -30.25,15.9964 -33,17.5017 -2.75,1.5052 -7.8633,4.1752 -11.363,5.9333 l -6.3629,3.1965 133.3503,133.358 c 73.3426,73.3468 133.4707,133.2374 133.6179,133.0902 0.1473,-0.1472 1.3808,-21.6029 2.7413,-47.6793 z"
       id="path11" />
    <path
       style="fill:none;stroke:#000000"
       d="m 693.20474,2527.6393 -132.7561,-132.75 -6.7434,3.4607 c -3.7089,1.9034 -12.1434,6.34 -18.7434,9.8591 -6.6,3.5191 -19.425,10.2382 -28.5,14.9314 -9.075,4.6932 -16.95,8.9473 -17.5,9.4534 -2.0535,1.89 49.1835,48.9603 81.5,74.8722 69.1881,55.4762 140.296,100.004 217,135.8857 11.7423,5.4929 37.3215,16.9313 37.9995,16.9925 0.2748,0.025 -59.2407,-59.6925 -132.2566,-132.705 z"
       id="path10" />
    <path
       style="fill:none;stroke:#000000"
       d="m 1640.2951,2661.5089 c -0.2656,-0.7017 -36.7651,-41.2408 -38.8227,-43.1196 -0.3012,-0.275 -10.2143,-11.2756 -22.0291,-24.4459 -11.8148,-13.1702 -26.4315,-29.3707 -32.4815,-36.0011 -6.05,-6.6303 -14.7905,-16.3297 -19.4234,-21.5541 -6.6986,-7.5538 -20.8979,-23.1763 -27.616,-30.3838 -0.5716,-0.6133 -4.604,-5.1651 -8.9608,-10.1151 -4.3568,-4.95 -8.1773,-9.225 -8.4898,-9.5 -0.3126,-0.275 -11.1171,-12.2 -24.01,-26.5 -12.8929,-14.3 -23.6819,-26.225 -23.9754,-26.5 -0.2936,-0.275 -4.1318,-4.55 -8.5292,-9.5 -4.3975,-4.95 -8.2315,-9.225 -8.5201,-9.5 -0.2886,-0.275 -6.5877,-7.25 -13.9979,-15.5 -7.4103,-8.25 -13.7124,-15.225 -14.0047,-15.5 -0.5806,-0.5462 -29.1601,-32.2892 -29.5641,-32.8366 -0.2524,-0.3419 -6.4241,18.9496 -12.7446,39.8366 -1.9139,6.325 -12.9277,42.1 -24.4751,79.5 -11.5474,37.4 -27.3609,88.7 -35.1412,114 -7.7803,25.3 -16.1045,52.3 -18.4983,60 -2.3937,7.7 -4.6519,15.0125 -5.0182,16.25 l -0.666,2.25 h 188.6507 c 108.2749,0 188.5087,-0.3751 188.3174,-0.8804 z"
       id="path9" />
    <path
       style="fill:none;stroke:#000000"
       d="m 1278.4343,2606.1393 c 9.5529,-30.9375 21.3014,-69.075 26.1079,-84.75 7.2448,-23.6269 21.5884,-70.2225 41.4032,-134.5 1.8651,-6.05 5.3005,-17.1583 7.6343,-24.6851 l 4.2434,-13.6851 -6.9307,-7.7618 c -3.8118,-4.2689 -11.6556,-12.9958 -17.4306,-19.393 -5.775,-6.3972 -26.9098,-29.8211 -46.9662,-52.0531 -20.0564,-22.2321 -37.9097,-41.9969 -39.6739,-43.9219 -1.7643,-1.925 -4.3302,-4.8089 -5.7021,-6.4088 l -2.4943,-2.9087 -0.3318,2.9087 c -0.1824,1.5999 -0.2172,102.0213 -0.077,223.1588 l 0.2545,220.25 h 11.2974 11.2974 z"
       id="path8" />
    <path
       style="fill:none;stroke:#000000"
       d="m 1235.7074,2442.0821 c 0.1399,-121.169 0.029,-221.4383 -0.2456,-222.8207 -0.4505,-2.2648 -2.1553,-0.6761 -17.2303,16.0572 -9.2017,10.2139 -17.7517,19.6957 -19.0001,21.0707 -1.2484,1.375 -9.0197,9.9353 -17.2697,19.0229 -32.4535,35.7486 -65.0157,72.1339 -65.3177,72.9866 -0.1748,0.4935 3.2823,12.5058 7.6825,26.6939 4.4001,14.1881 14.3039,46.2716 22.0083,71.2966 7.7044,25.025 15.8152,51.35 18.0239,58.5 10.4491,33.8252 34.0892,110.5507 40.9019,132.75 l 7.5955,24.75 h 11.2984 11.2984 z"
       id="path7" />
    <path
       style="fill:none;stroke:#000000"
       d="m 1210.0603,2660.6393 c -5.2233,-17.0441 -38.0583,-123.6807 -52.4226,-170.25 -10.4334,-33.825 -22.6408,-73.425 -27.1277,-88 -16.3311,-53.0494 -16.164,-52.5621 -17.4292,-50.8318 -0.639,0.8739 -4.9772,5.7566 -9.6404,10.8505 -4.6632,5.094 -9.3012,10.2111 -10.3067,11.3715 -1.0054,1.1604 -3.4804,3.9123 -5.5,6.1154 -2.0195,2.2031 -7.0469,7.8281 -11.1719,12.5 -4.125,4.6719 -7.7508,8.7194 -8.0573,8.9944 -0.9178,0.8235 -47.0097,51.771 -52.8178,58.3819 -6.0206,6.853 -13.6833,15.3556 -18.58096,20.6181 -4.9049,5.2702 -51.0181,56.4042 -74.3993,82.5 -11.3341,12.65 -21.1177,23.45 -21.7413,24 -0.8813,0.7772 -42.8033,47.2771 -59.8666,66.404 -1.6702,1.8722 -4.0492,4.4392 -5.2867,5.7045 -1.2375,1.2653 -2.25,2.546 -2.25,2.846 0,0.3 84.8553,0.5455 188.56736,0.5455 179.1256,0 188.5405,-0.088 188.0311,-1.75 z"
       id="path6" />
    <path
       style="fill:none;stroke:#000000"
       d="m 1249.5177,2699.8893 c 5.6135,-18.15 10.4205,-33.5625 10.6822,-34.25 0.363,-0.9535 -2.1584,-1.25 -10.6311,-1.25 h -11.107 v 33.4182 c 0,18.38 -0.2912,34.2425 -0.6472,35.25 -0.451,1.2767 -0.3223,1.5288 0.4248,0.8318 0.5895,-0.55 5.6648,-15.85 11.2783,-34 z"
       id="path5" />
    <path
       style="fill:none;stroke:#000000"
       d="m 1235.5099,2699.2614 c -0.07,-18.8569 -0.2758,-34.4332 -0.4565,-34.6139 -0.1807,-0.1807 -5.0755,-0.2002 -10.8772,-0.043 l -10.5486,0.2852 10.6671,34.6594 c 5.8669,19.0626 10.8192,34.5105 11.0051,34.3286 0.1859,-0.1819 0.2805,-15.7591 0.2101,-34.6159 z"
       id="path4" />
    <path
       style="fill:none;stroke:#000000"
       d="m 1283.9618,2741.8469 c 95.9712,-3.1844 205.0811,-23.8739 299.6135,-56.813 18.8024,-6.5516 52.9506,-19.3754 53.7664,-20.1911 0.2494,-0.2494 -83.9441,-0.4535 -187.0966,-0.4535 -177.755,0 -187.5771,0.091 -188.0682,1.75 -0.5029,1.6984 -22.1753,71.9234 -23.3202,75.5645 -0.5384,1.7119 0.2396,1.7831 13.7673,1.2608 7.8858,-0.3045 21.9878,-0.8075 31.3378,-1.1177 z"
       id="path3" />
    <path
       style="fill:none;stroke:#000000"
       d="m 1235.0735,2741.6393 c -1.0632,-3.5564 -21.7441,-70.8636 -22.7375,-74 l -1.0293,-3.25 -187.6725,0.039 c -170.15556,0.035 -187.34566,0.1835 -184.17236,1.585 9.0216,3.9845 42.6627,16.3258 62.5,22.9283 96.2518,32.0357 197.51776,50.1434 298.49996,53.3757 38.6976,1.2386 35.2051,1.307 34.6117,-0.6781 z"
       id="path2" />
    <path
       style="fill:none;stroke:#000000"
       d="m 1203.9618,2744.7181 c -163.4563,-5.4903 -317.63726,-46.0709 -461.99996,-121.5988 -74.0809,-38.7578 -149.0727,-90.749 -211.4937,-146.6267 -29.4687,-26.3796 -66.1462,-63.0874 -89.0297,-89.1033 -4.1121,-4.675 -7.7202,-8.725 -8.0178,-9 -3.6553,-3.3767 -37.9123,-45.981 -49.0486,-61 -109.1387,-147.1907 -177.2838,-314.4069 -201.3183,-494 -6.5875,-49.2237 -9.0739,-88.3242 -9.0299,-142 0.035,-42.8745 0.9468,-63.4405 4.4805,-101.0839 20.3437,-216.7118 107.4158,-422.4849 248.986,-588.41608 33.3987,-39.1458 72.4012,-78.55279 111.4893,-112.64573 93.9563,-81.94945 204.7504,-148.35991 320.8349,-192.30984 104.7306,-39.65131 211.12356,-61.64833 327.10976,-67.63076 25.7782,-1.3296 99.0839,-0.6995 122.0375,1.04899 43.9695,3.34937 95.0509,9.96363 128.5,16.63879 89.8057,17.92178 166.2996,42.44775 244.5,78.39324 99.5202,45.74529 195.8791,110.21117 276.4541,184.95294 26.7118,24.77802 64.0082,63.16527 82.1495,84.55237 1.8662,2.2 3.6506,4.225 3.9655,4.5 2.2534,1.968 34.4726,42.48538 44.8355,56.38318 29.0033,38.8961 51.0137,72.6202 73.2592,112.2465 3.6651,6.5286 8.056,14.3453 9.7576,17.3703 13.1401,23.3595 37.6249,75.1754 49.929,105.6621 44.0127,109.0534 67.9509,215.1638 76.3281,338.3379 1.6137,23.7274 1.6098,101.9251 -0.01,125 -4.6515,66.4163 -12.581,120.9088 -26.1927,180 -13.6242,59.1456 -37.7419,131.7884 -60.9228,183.5 -23.6863,52.8391 -51.0594,104.2665 -75.848,142.5 -3.031,4.675 -7.5435,11.65 -10.0277,15.5 -22.3348,34.6142 -55.475,78.2273 -87.0048,114.5 -24.1787,27.8158 -66.6671,70.8808 -93.0076,94.2699 -45.4291,40.3387 -95.0867,77.8155 -141.7396,106.9716 -53.0591,33.1597 -106.9561,61.0321 -159.9291,82.7062 -8.25,3.3755 -17.025,7.0007 -19.5,8.0559 -17.5804,7.4957 -65.2803,23.4881 -98,32.8567 -99.9012,28.6044 -217.4923,42.9956 -322.5,39.4685 z"
       id="path1" />
  </g>
</svg>
