<svg viewBox="-50 -50 100 100" xmlns="http://www.w3.org/2000/svg">
<polygon points="0,0 6,0 5.54327719506772,2.2961005941905386 0,0" class="zone" data-layer="1" data-zone="EST"/>
<polygon points="0,0 5.54327719506772,2.2961005941905386 4.242640687119286,4.242640687119285 0,0" class="zone" data-layer="1" data-zone="EST"/>
<polygon points="0,0 4.242640687119286,4.242640687119285 2.296100594190539,5.54327719506772 0,0" class="zone" data-layer="1" data-zone="SUD"/>
<polygon points="0,0 2.296100594190539,5.54327719506772 3.6739403974420594e-16,6 0,0" class="zone" data-layer="1" data-zone="SUD"/>
<polygon points="0,0 3.6739403974420594e-16,6 -2.2961005941905386,5.54327719506772 0,0" class="zone" data-layer="1" data-zone="SUD"/>
<polygon points="0,0 -2.2961005941905386,5.54327719506772 -4.242640687119285,4.242640687119286 0,0" class="zone" data-layer="1" data-zone="SUD"/>
<polygon points="0,0 -4.242640687119285,4.242640687119286 -5.54327719506772,2.2961005941905395 0,0" class="zone" data-layer="1" data-zone="OUEST"/>
<polygon points="0,0 -5.54327719506772,2.2961005941905395 -6,7.347880794884119e-16 0,0" class="zone" data-layer="1" data-zone="OUEST"/>
<polygon points="0,0 -6,7.347880794884119e-16 -5.543277195067722,-2.2961005941905355 0,0" class="zone" data-layer="1" data-zone="OUEST"/>
<polygon points="0,0 -5.543277195067722,-2.2961005941905355 -4.242640687119286,-4.242640687119285 0,0" class="zone" data-layer="1" data-zone="OUEST"/>
<polygon points="0,0 -4.242640687119286,-4.242640687119285 -2.296100594190537,-5.543277195067721 0,0" class="zone" data-layer="1" data-zone="NORD"/>
<polygon points="0,0 -2.296100594190537,-5.543277195067721 -1.102182119232618e-15,-6 0,0" class="zone" data-layer="1" data-zone="NORD"/>
<polygon points="0,0 -1.102182119232618e-15,-6 2.29610059419054,-5.54327719506772 0,0" class="zone" data-layer="1" data-zone="NORD"/>
<polygon points="0,0 2.29610059419054,-5.54327719506772 4.242640687119284,-4.242640687119286 0,0" class="zone" data-layer="1" data-zone="NORD"/>
<polygon points="0,0 4.242640687119284,-4.242640687119286 5.543277195067721,-2.2961005941905372 0,0" class="zone" data-layer="1" data-zone="EST"/>
<polygon points="0,0 5.543277195067721,-2.2961005941905372 6,-1.4695761589768238e-15 0,0" class="zone" data-layer="1" data-zone="EST"/>
<polygon points="6,0 12,0 11.08655439013544,4.592201188381077 5.54327719506772,2.2961005941905386" class="zone" data-layer="2" data-zone="EST"/>
<polygon points="5.54327719506772,2.2961005941905386 11.08655439013544,4.592201188381077 8.485281374238571,8.48528137423857 4.242640687119286,4.242640687119285" class="zone" data-layer="2" data-zone="EST"/>
<polygon points="4.242640687119286,4.242640687119285 8.485281374238571,8.48528137423857 4.592201188381078,11.08655439013544 2.296100594190539,5.54327719506772" class="zone" data-layer="2" data-zone="SUD"/>
<polygon points="2.296100594190539,5.54327719506772 4.592201188381078,11.08655439013544 7.347880794884119e-16,12 3.6739403974420594e-16,6" class="zone" data-layer="2" data-zone="SUD"/>
<polygon points="3.6739403974420594e-16,6 7.347880794884119e-16,12 -4.592201188381077,11.08655439013544 -2.2961005941905386,5.54327719506772" class="zone" data-layer="2" data-zone="SUD"/>
<polygon points="-2.2961005941905386,5.54327719506772 -4.592201188381077,11.08655439013544 -8.48528137423857,8.485281374238571 -4.242640687119285,4.242640687119286" class="zone" data-layer="2" data-zone="SUD"/>
<polygon points="-4.242640687119285,4.242640687119286 -8.48528137423857,8.485281374238571 -11.08655439013544,4.592201188381079 -5.54327719506772,2.2961005941905395" class="zone" data-layer="2" data-zone="OUEST"/>
<polygon points="-5.54327719506772,2.2961005941905395 -11.08655439013544,4.592201188381079 -12,1.4695761589768238e-15 -6,7.347880794884119e-16" class="zone" data-layer="2" data-zone="OUEST"/>
<polygon points="-6,7.347880794884119e-16 -12,1.4695761589768238e-15 -11.086554390135444,-4.592201188381071 -5.543277195067722,-2.2961005941905355" class="zone" data-layer="2" data-zone="OUEST"/>
<polygon points="-5.543277195067722,-2.2961005941905355 -11.086554390135444,-4.592201188381071 -8.485281374238571,-8.48528137423857 -4.242640687119286,-4.242640687119285" class="zone" data-layer="2" data-zone="OUEST"/>
<polygon points="-4.242640687119286,-4.242640687119285 -8.485281374238571,-8.48528137423857 -4.592201188381074,-11.086554390135442 -2.296100594190537,-5.543277195067721" class="zone" data-layer="2" data-zone="NORD"/>
<polygon points="-2.296100594190537,-5.543277195067721 -4.592201188381074,-11.086554390135442 -2.204364238465236e-15,-12 -1.102182119232618e-15,-6" class="zone" data-layer="2" data-zone="NORD"/>
<polygon points="-1.102182119232618e-15,-6 -2.204364238465236e-15,-12 4.59220118838108,-11.08655439013544 2.29610059419054,-5.54327719506772" class="zone" data-layer="2" data-zone="NORD"/>
<polygon points="2.29610059419054,-5.54327719506772 4.59220118838108,-11.08655439013544 8.485281374238568,-8.485281374238571 4.242640687119284,-4.242640687119286" class="zone" data-layer="2" data-zone="NORD"/>
<polygon points="4.242640687119284,-4.242640687119286 8.485281374238568,-8.485281374238571 11.086554390135442,-4.5922011883810745 5.543277195067721,-2.2961005941905372" class="zone" data-layer="2" data-zone="EST"/>
<polygon points="5.543277195067721,-2.2961005941905372 11.086554390135442,-4.5922011883810745 12,-2.9391523179536475e-15 6,-1.4695761589768238e-15" class="zone" data-layer="2" data-zone="EST"/>
<polygon points="12,0 18,0 16.62983158520316,6.888301782571616 11.08655439013544,4.592201188381077" class="zone" data-layer="3" data-zone="EST"/>
<polygon points="11.08655439013544,4.592201188381077 16.62983158520316,6.888301782571616 12.727922061357857,12.727922061357855 8.485281374238571,8.48528137423857" class="zone" data-layer="3" data-zone="EST"/>
<polygon points="8.485281374238571,8.48528137423857 12.727922061357857,12.727922061357855 6.888301782571617,16.62983158520316 4.592201188381078,11.08655439013544" class="zone" data-layer="3" data-zone="SUD"/>
<polygon points="4.592201188381078,11.08655439013544 6.888301782571617,16.62983158520316 1.102182119232618e-15,18 7.347880794884119e-16,12" class="zone" data-layer="3" data-zone="SUD"/>
<polygon points="7.347880794884119e-16,12 1.102182119232618e-15,18 -6.888301782571615,16.62983158520316 -4.592201188381077,11.08655439013544" class="zone" data-layer="3" data-zone="SUD"/>
<polygon points="-4.592201188381077,11.08655439013544 -6.888301782571615,16.62983158520316 -12.727922061357855,12.727922061357857 -8.48528137423857,8.485281374238571" class="zone" data-layer="3" data-zone="SUD"/>
<polygon points="-8.48528137423857,8.485281374238571 -12.727922061357855,12.727922061357857 -16.62983158520316,6.888301782571618 -11.08655439013544,4.592201188381079" class="zone" data-layer="3" data-zone="OUEST"/>
<polygon points="-11.08655439013544,4.592201188381079 -16.62983158520316,6.888301782571618 -18,2.204364238465236e-15 -12,1.4695761589768238e-15" class="zone" data-layer="3" data-zone="OUEST"/>
<polygon points="-12,1.4695761589768238e-15 -18,2.204364238465236e-15 -16.629831585203164,-6.888301782571606 -11.086554390135444,-4.592201188381071" class="zone" data-layer="3" data-zone="OUEST"/>
<polygon points="-11.086554390135444,-4.592201188381071 -16.629831585203164,-6.888301782571606 -12.727922061357859,-12.727922061357855 -8.485281374238571,-8.48528137423857" class="zone" data-layer="3" data-zone="OUEST"/>
<polygon points="-8.485281374238571,-8.48528137423857 -12.727922061357859,-12.727922061357855 -6.888301782571611,-16.629831585203164 -4.592201188381074,-11.086554390135442" class="zone" data-layer="3" data-zone="NORD"/>
<polygon points="-4.592201188381074,-11.086554390135442 -6.888301782571611,-16.629831585203164 -3.3065463576978533e-15,-18 -2.204364238465236e-15,-12" class="zone" data-layer="3" data-zone="NORD"/>
<polygon points="-2.204364238465236e-15,-12 -3.3065463576978533e-15,-18 6.88830178257162,-16.62983158520316 4.59220118838108,-11.08655439013544" class="zone" data-layer="3" data-zone="NORD"/>
<polygon points="4.59220118838108,-11.08655439013544 6.88830178257162,-16.62983158520316 12.727922061357852,-12.727922061357859 8.485281374238568,-8.485281374238571" class="zone" data-layer="3" data-zone="NORD"/>
<polygon points="8.485281374238568,-8.485281374238571 12.727922061357852,-12.727922061357859 16.629831585203164,-6.888301782571612 11.086554390135442,-4.5922011883810745" class="zone" data-layer="3" data-zone="EST"/>
<polygon points="11.086554390135442,-4.5922011883810745 16.629831585203164,-6.888301782571612 18,-4.408728476930472e-15 12,-2.9391523179536475e-15" class="zone" data-layer="3" data-zone="EST"/>
<polygon points="18,0 24,0 22.17310878027088,9.184402376762154 16.62983158520316,6.888301782571616" class="zone" data-layer="4" data-zone="EST"/>
<polygon points="16.62983158520316,6.888301782571616 22.17310878027088,9.184402376762154 16.970562748477143,16.97056274847714 12.727922061357857,12.727922061357855" class="zone" data-layer="4" data-zone="EST"/>
<polygon points="12.727922061357857,12.727922061357855 16.970562748477143,16.97056274847714 9.184402376762156,22.17310878027088 6.888301782571617,16.62983158520316" class="zone" data-layer="4" data-zone="SUD"/>
<polygon points="6.888301782571617,16.62983158520316 9.184402376762156,22.17310878027088 1.4695761589768238e-15,24 1.102182119232618e-15,18" class="zone" data-layer="4" data-zone="SUD"/>
<polygon points="1.102182119232618e-15,18 1.4695761589768238e-15,24 -9.184402376762154,22.17310878027088 -6.888301782571615,16.62983158520316" class="zone" data-layer="4" data-zone="SUD"/>
<polygon points="-6.888301782571615,16.62983158520316 -9.184402376762154,22.17310878027088 -16.97056274847714,16.970562748477143 -12.727922061357855,12.727922061357857" class="zone" data-layer="4" data-zone="SUD"/>
<polygon points="-12.727922061357855,12.727922061357857 -16.97056274847714,16.970562748477143 -22.17310878027088,9.184402376762158 -16.62983158520316,6.888301782571618" class="zone" data-layer="4" data-zone="OUEST"/>
<polygon points="-16.62983158520316,6.888301782571618 -22.17310878027088,9.184402376762158 -24,2.9391523179536475e-15 -18,2.204364238465236e-15" class="zone" data-layer="4" data-zone="OUEST"/>
<polygon points="-18,2.204364238465236e-15 -24,2.9391523179536475e-15 -22.173108780270887,-9.184402376762142 -16.629831585203164,-6.888301782571606" class="zone" data-layer="4" data-zone="OUEST"/>
<polygon points="-16.629831585203164,-6.888301782571606 -22.173108780270887,-9.184402376762142 -16.970562748477143,-16.97056274847714 -12.727922061357859,-12.727922061357855" class="zone" data-layer="4" data-zone="OUEST"/>
<polygon points="-12.727922061357859,-12.727922061357855 -16.970562748477143,-16.97056274847714 -9.184402376762147,-22.173108780270883 -6.888301782571611,-16.629831585203164" class="zone" data-layer="4" data-zone="NORD"/>
<polygon points="-6.888301782571611,-16.629831585203164 -9.184402376762147,-22.173108780270883 -4.408728476930472e-15,-24 -3.3065463576978533e-15,-18" class="zone" data-layer="4" data-zone="NORD"/>
<polygon points="-3.3065463576978533e-15,-18 -4.408728476930472e-15,-24 9.18440237676216,-22.17310878027088 6.88830178257162,-16.62983158520316" class="zone" data-layer="4" data-zone="NORD"/>
<polygon points="6.88830178257162,-16.62983158520316 9.18440237676216,-22.17310878027088 16.970562748477136,-16.970562748477143 12.727922061357852,-12.727922061357859" class="zone" data-layer="4" data-zone="NORD"/>
<polygon points="12.727922061357852,-12.727922061357859 16.970562748477136,-16.970562748477143 22.173108780270883,-9.184402376762149 16.629831585203164,-6.888301782571612" class="zone" data-layer="4" data-zone="EST"/>
<polygon points="16.629831585203164,-6.888301782571612 22.173108780270883,-9.184402376762149 24,-5.878304635907295e-15 18,-4.408728476930472e-15" class="zone" data-layer="4" data-zone="EST"/>
<polygon points="24,0 30,0 27.716385975338603,11.480502970952694 22.17310878027088,9.184402376762154" class="zone" data-layer="5" data-zone="EST"/>
<polygon points="22.17310878027088,9.184402376762154 27.716385975338603,11.480502970952694 21.213203435596427,21.213203435596423 16.970562748477143,16.97056274847714" class="zone" data-layer="5" data-zone="EST"/>
<polygon points="16.970562748477143,16.97056274847714 21.213203435596427,21.213203435596423 11.480502970952696,27.716385975338603 9.184402376762156,22.17310878027088" class="zone" data-layer="5" data-zone="SUD"/>
<polygon points="9.184402376762156,22.17310878027088 11.480502970952696,27.716385975338603 1.83697019872103e-15,30 1.4695761589768238e-15,24" class="zone" data-layer="5" data-zone="SUD"/>
<polygon points="1.4695761589768238e-15,24 1.83697019872103e-15,30 -11.480502970952692,27.716385975338603 -9.184402376762154,22.17310878027088" class="zone" data-layer="5" data-zone="SUD"/>
<polygon points="-9.184402376762154,22.17310878027088 -11.480502970952692,27.716385975338603 -21.213203435596423,21.213203435596427 -16.97056274847714,16.970562748477143" class="zone" data-layer="5" data-zone="SUD"/>
<polygon points="-16.97056274847714,16.970562748477143 -21.213203435596423,21.213203435596427 -27.716385975338603,11.480502970952697 -22.17310878027088,9.184402376762158" class="zone" data-layer="5" data-zone="OUEST"/>
<polygon points="-22.17310878027088,9.184402376762158 -27.716385975338603,11.480502970952697 -30,3.67394039744206e-15 -24,2.9391523179536475e-15" class="zone" data-layer="5" data-zone="OUEST"/>
<polygon points="-24,2.9391523179536475e-15 -30,3.67394039744206e-15 -27.71638597533861,-11.480502970952676 -22.173108780270887,-9.184402376762142" class="zone" data-layer="5" data-zone="OUEST"/>
<polygon points="-22.173108780270887,-9.184402376762142 -27.71638597533861,-11.480502970952676 -21.21320343559643,-21.213203435596423 -16.970562748477143,-16.97056274847714" class="zone" data-layer="5" data-zone="OUEST"/>
<polygon points="-16.970562748477143,-16.97056274847714 -21.21320343559643,-21.213203435596423 -11.480502970952685,-27.716385975338607 -9.184402376762147,-22.173108780270883" class="zone" data-layer="5" data-zone="NORD"/>
<polygon points="-9.184402376762147,-22.173108780270883 -11.480502970952685,-27.716385975338607 -5.510910596163089e-15,-30 -4.408728476930472e-15,-24" class="zone" data-layer="5" data-zone="NORD"/>
<polygon points="-4.408728476930472e-15,-24 -5.510910596163089e-15,-30 11.480502970952701,-27.7163859753386 9.18440237676216,-22.17310878027088" class="zone" data-layer="5" data-zone="NORD"/>
<polygon points="9.18440237676216,-22.17310878027088 11.480502970952701,-27.7163859753386 21.21320343559642,-21.21320343559643 16.970562748477136,-16.970562748477143" class="zone" data-layer="5" data-zone="NORD"/>
<polygon points="16.970562748477136,-16.970562748477143 21.21320343559642,-21.21320343559643 27.716385975338607,-11.480502970952687 22.173108780270883,-9.184402376762149" class="zone" data-layer="5" data-zone="EST"/>
<polygon points="22.173108780270883,-9.184402376762149 27.716385975338607,-11.480502970952687 30,-7.34788079488412e-15 24,-5.878304635907295e-15" class="zone" data-layer="5" data-zone="EST"/>
<polygon points="30,0 36,0 33.25966317040632,13.776603565143231 27.716385975338603,11.480502970952694" class="zone" data-layer="6" data-zone="EST"/>
<polygon points="27.716385975338603,11.480502970952694 33.25966317040632,13.776603565143231 25.455844122715714,25.45584412271571 21.213203435596427,21.213203435596423" class="zone" data-layer="6" data-zone="EST"/>
<polygon points="21.213203435596427,21.213203435596423 25.455844122715714,25.45584412271571 13.776603565143233,33.25966317040632 11.480502970952696,27.716385975338603" class="zone" data-layer="6" data-zone="SUD"/>
<polygon points="11.480502970952696,27.716385975338603 13.776603565143233,33.25966317040632 2.204364238465236e-15,36 1.83697019872103e-15,30" class="zone" data-layer="6" data-zone="SUD"/>
<polygon points="1.83697019872103e-15,30 2.204364238465236e-15,36 -13.77660356514323,33.25966317040632 -11.480502970952692,27.716385975338603" class="zone" data-layer="6" data-zone="SUD"/>
<polygon points="-11.480502970952692,27.716385975338603 -13.77660356514323,33.25966317040632 -25.45584412271571,25.455844122715714 -21.213203435596423,21.213203435596427" class="zone" data-layer="6" data-zone="SUD"/>
<polygon points="-21.213203435596423,21.213203435596427 -25.45584412271571,25.455844122715714 -33.25966317040632,13.776603565143237 -27.716385975338603,11.480502970952697" class="zone" data-layer="6" data-zone="OUEST"/>
<polygon points="-27.716385975338603,11.480502970952697 -33.25966317040632,13.776603565143237 -36,4.408728476930472e-15 -30,3.67394039744206e-15" class="zone" data-layer="6" data-zone="OUEST"/>
<polygon points="-30,3.67394039744206e-15 -36,4.408728476930472e-15 -33.25966317040633,-13.776603565143212 -27.71638597533861,-11.480502970952676" class="zone" data-layer="6" data-zone="OUEST"/>
<polygon points="-27.71638597533861,-11.480502970952676 -33.25966317040633,-13.776603565143212 -25.455844122715718,-25.45584412271571 -21.21320343559643,-21.213203435596423" class="zone" data-layer="6" data-zone="OUEST"/>
<polygon points="-21.21320343559643,-21.213203435596423 -25.455844122715718,-25.45584412271571 -13.776603565143223,-33.25966317040633 -11.480502970952685,-27.716385975338607" class="zone" data-layer="6" data-zone="NORD"/>
<polygon points="-11.480502970952685,-27.716385975338607 -13.776603565143223,-33.25966317040633 -6.613092715395707e-15,-36 -5.510910596163089e-15,-30" class="zone" data-layer="6" data-zone="NORD"/>
<polygon points="-5.510910596163089e-15,-30 -6.613092715395707e-15,-36 13.77660356514324,-33.25966317040632 11.480502970952701,-27.7163859753386" class="zone" data-layer="6" data-zone="NORD"/>
<polygon points="11.480502970952701,-27.7163859753386 13.77660356514324,-33.25966317040632 25.455844122715703,-25.455844122715718 21.21320343559642,-21.21320343559643" class="zone" data-layer="6" data-zone="NORD"/>
<polygon points="21.21320343559642,-21.21320343559643 25.455844122715703,-25.455844122715718 33.25966317040633,-13.776603565143224 27.716385975338607,-11.480502970952687" class="zone" data-layer="6" data-zone="EST"/>
<polygon points="27.716385975338607,-11.480502970952687 33.25966317040633,-13.776603565143224 36,-8.817456953860943e-15 30,-7.34788079488412e-15" class="zone" data-layer="6" data-zone="EST"/>
<polygon points="36,0 42,0 38.80294036547404,16.07270415933377 33.25966317040632,13.776603565143231" class="zone" data-layer="7" data-zone="EST"/>
<polygon points="33.25966317040632,13.776603565143231 38.80294036547404,16.07270415933377 29.698484809834998,29.698484809834994 25.455844122715714,25.45584412271571" class="zone" data-layer="7" data-zone="EST"/>
<polygon points="25.455844122715714,25.45584412271571 29.698484809834998,29.698484809834994 16.072704159333774,38.80294036547404 13.776603565143233,33.25966317040632" class="zone" data-layer="7" data-zone="SUD"/>
<polygon points="13.776603565143233,33.25966317040632 16.072704159333774,38.80294036547404 2.5717582782094417e-15,42 2.204364238465236e-15,36" class="zone" data-layer="7" data-zone="SUD"/>
<polygon points="2.204364238465236e-15,36 2.5717582782094417e-15,42 -16.072704159333767,38.80294036547404 -13.77660356514323,33.25966317040632" class="zone" data-layer="7" data-zone="SUD"/>
<polygon points="-13.77660356514323,33.25966317040632 -16.072704159333767,38.80294036547404 -29.698484809834994,29.698484809834998 -25.45584412271571,25.455844122715714" class="zone" data-layer="7" data-zone="SUD"/>
<polygon points="-25.45584412271571,25.455844122715714 -29.698484809834994,29.698484809834998 -38.80294036547404,16.072704159333774 -33.25966317040632,13.776603565143237" class="zone" data-layer="7" data-zone="OUEST"/>
<polygon points="-33.25966317040632,13.776603565143237 -38.80294036547404,16.072704159333774 -42,5.143516556418883e-15 -36,4.408728476930472e-15" class="zone" data-layer="7" data-zone="OUEST"/>
<polygon points="-36,4.408728476930472e-15 -42,5.143516556418883e-15 -38.80294036547405,-16.072704159333746 -33.25966317040633,-13.776603565143212" class="zone" data-layer="7" data-zone="OUEST"/>
<polygon points="-33.25966317040633,-13.776603565143212 -38.80294036547405,-16.072704159333746 -29.698484809835,-29.698484809834994 -25.455844122715718,-25.45584412271571" class="zone" data-layer="7" data-zone="OUEST"/>
<polygon points="-25.455844122715718,-25.45584412271571 -29.698484809835,-29.698484809834994 -16.07270415933376,-38.80294036547405 -13.776603565143223,-33.25966317040633" class="zone" data-layer="7" data-zone="NORD"/>
<polygon points="-13.776603565143223,-33.25966317040633 -16.07270415933376,-38.80294036547405 -7.715274834628325e-15,-42 -6.613092715395707e-15,-36" class="zone" data-layer="7" data-zone="NORD"/>
<polygon points="-6.613092715395707e-15,-36 -7.715274834628325e-15,-42 16.07270415933378,-38.802940365474036 13.77660356514324,-33.25966317040632" class="zone" data-layer="7" data-zone="NORD"/>
<polygon points="13.77660356514324,-33.25966317040632 16.07270415933378,-38.802940365474036 29.698484809834987,-29.698484809835 25.455844122715703,-25.455844122715718" class="zone" data-layer="7" data-zone="NORD"/>
<polygon points="25.455844122715703,-25.455844122715718 29.698484809834987,-29.698484809835 38.80294036547405,-16.07270415933376 33.25966317040633,-13.776603565143224" class="zone" data-layer="7" data-zone="EST"/>
<polygon points="33.25966317040633,-13.776603565143224 38.80294036547405,-16.07270415933376 42,-1.0287033112837767e-14 36,-8.817456953860943e-15" class="zone" data-layer="7" data-zone="EST"/>
<polygon points="42,0 48,0 44.34621756054176,18.36880475352431 38.80294036547404,16.07270415933377" class="zone" data-layer="8" data-zone="EST"/>
<polygon points="38.80294036547404,16.07270415933377 44.34621756054176,18.36880475352431 33.941125496954285,33.94112549695428 29.698484809834998,29.698484809834994" class="zone" data-layer="8" data-zone="EST"/>
<polygon points="29.698484809834998,29.698484809834994 33.941125496954285,33.94112549695428 18.368804753524312,44.34621756054176 16.072704159333774,38.80294036547404" class="zone" data-layer="8" data-zone="SUD"/>
<polygon points="16.072704159333774,38.80294036547404 18.368804753524312,44.34621756054176 2.9391523179536475e-15,48 2.5717582782094417e-15,42" class="zone" data-layer="8" data-zone="SUD"/>
<polygon points="2.5717582782094417e-15,42 2.9391523179536475e-15,48 -18.36880475352431,44.34621756054176 -16.072704159333767,38.80294036547404" class="zone" data-layer="8" data-zone="SUD"/>
<polygon points="-16.072704159333767,38.80294036547404 -18.36880475352431,44.34621756054176 -33.94112549695428,33.941125496954285 -29.698484809834994,29.698484809834998" class="zone" data-layer="8" data-zone="SUD"/>
<polygon points="-29.698484809834994,29.698484809834998 -33.94112549695428,33.941125496954285 -44.34621756054176,18.368804753524316 -38.80294036547404,16.072704159333774" class="zone" data-layer="8" data-zone="OUEST"/>
<polygon points="-38.80294036547404,16.072704159333774 -44.34621756054176,18.368804753524316 -48,5.878304635907295e-15 -42,5.143516556418883e-15" class="zone" data-layer="8" data-zone="OUEST"/>
<polygon points="-42,5.143516556418883e-15 -48,5.878304635907295e-15 -44.346217560541774,-18.368804753524284 -38.80294036547405,-16.072704159333746" class="zone" data-layer="8" data-zone="OUEST"/>
<polygon points="-38.80294036547405,-16.072704159333746 -44.346217560541774,-18.368804753524284 -33.941125496954285,-33.94112549695428 -29.698484809835,-29.698484809834994" class="zone" data-layer="8" data-zone="OUEST"/>
<polygon points="-29.698484809835,-29.698484809834994 -33.941125496954285,-33.94112549695428 -18.368804753524294,-44.34621756054177 -16.07270415933376,-38.80294036547405" class="zone" data-layer="8" data-zone="NORD"/>
<polygon points="-16.07270415933376,-38.80294036547405 -18.368804753524294,-44.34621756054177 -8.817456953860943e-15,-48 -7.715274834628325e-15,-42" class="zone" data-layer="8" data-zone="NORD"/>
<polygon points="-7.715274834628325e-15,-42 -8.817456953860943e-15,-48 18.36880475352432,-44.34621756054176 16.07270415933378,-38.802940365474036" class="zone" data-layer="8" data-zone="NORD"/>
<polygon points="16.07270415933378,-38.802940365474036 18.36880475352432,-44.34621756054176 33.94112549695427,-33.941125496954285 29.698484809834987,-29.698484809835" class="zone" data-layer="8" data-zone="NORD"/>
<polygon points="29.698484809834987,-29.698484809835 33.94112549695427,-33.941125496954285 44.34621756054177,-18.368804753524298 38.80294036547405,-16.07270415933376" class="zone" data-layer="8" data-zone="EST"/>
<polygon points="38.80294036547405,-16.07270415933376 44.34621756054177,-18.368804753524298 48,-1.175660927181459e-14 42,-1.0287033112837767e-14" class="zone" data-layer="8" data-zone="EST"/>
</svg>
