<svg viewBox="-50 -50 100 100" xmlns="http://www.w3.org/2000/svg">
<polygon points="0,0 5,0 4.619397662556434,1.913417161825449 0,0" class="zone" data-layer="1" data-zone="EST"/>
<polygon points="0,0 4.619397662556434,1.913417161825449 3.5355339059327378,3.5355339059327373 0,0" class="zone" data-layer="1" data-zone="EST"/>
<polygon points="0,0 3.5355339059327378,3.5355339059327373 1.9134171618254492,4.619397662556434 0,0" class="zone" data-layer="1" data-zone="SUD"/>
<polygon points="0,0 1.9134171618254492,4.619397662556434 3.061616997868383e-16,5 0,0" class="zone" data-layer="1" data-zone="SUD"/>
<polygon points="0,0 3.061616997868383e-16,5 -1.9134171618254485,4.619397662556434 0,0" class="zone" data-layer="1" data-zone="SUD"/>
<polygon points="0,0 -1.9134171618254485,4.619397662556434 -3.5355339059327373,3.5355339059327378 0,0" class="zone" data-layer="1" data-zone="SUD"/>
<polygon points="0,0 -3.5355339059327373,3.5355339059327378 -4.619397662556434,1.9134171618254494 0,0" class="zone" data-layer="1" data-zone="OUEST"/>
<polygon points="0,0 -4.619397662556434,1.9134171618254494 -5,6.123233995736766e-16 0,0" class="zone" data-layer="1" data-zone="OUEST"/>
<polygon points="0,0 -5,6.123233995736766e-16 -4.619397662556435,-1.913417161825446 0,0" class="zone" data-layer="1" data-zone="OUEST"/>
<polygon points="0,0 -4.619397662556435,-1.913417161825446 -3.5355339059327386,-3.5355339059327373 0,0" class="zone" data-layer="1" data-zone="OUEST"/>
<polygon points="0,0 -3.5355339059327386,-3.5355339059327373 -1.9134171618254476,-4.619397662556434 0,0" class="zone" data-layer="1" data-zone="NORD"/>
<polygon points="0,0 -1.9134171618254476,-4.619397662556434 -9.184850993605148e-16,-5 0,0" class="zone" data-layer="1" data-zone="NORD"/>
<polygon points="0,0 -9.184850993605148e-16,-5 1.91341716182545,-4.619397662556433 0,0" class="zone" data-layer="1" data-zone="NORD"/>
<polygon points="0,0 1.91341716182545,-4.619397662556433 3.535533905932737,-3.5355339059327386 0,0" class="zone" data-layer="1" data-zone="NORD"/>
<polygon points="0,0 3.535533905932737,-3.5355339059327386 4.619397662556434,-1.9134171618254479 0,0" class="zone" data-layer="1" data-zone="EST"/>
<polygon points="0,0 4.619397662556434,-1.9134171618254479 5,-1.2246467991473533e-15 0,0" class="zone" data-layer="1" data-zone="EST"/>
<polygon points="5,0 11.769423364838765,2.341083864193539 4.903926402016152,0.9754516100806412" class="zone" data-layer="2" data-zone="EST"/>
<polygon points="4.619397662556434,1.913417161825449 11.769423364838765,2.341083864193539 4.903926402016152,0.9754516100806412" class="zone" data-layer="2" data-zone="EST"/>
<polygon points="4.619397662556434,1.913417161825449 9.977635347630542,6.666842796235226 4.157348061512726,2.777851165098011" class="zone" data-layer="2" data-zone="EST"/>
<polygon points="3.5355339059327378,3.5355339059327373 9.977635347630542,6.666842796235226 4.157348061512726,2.777851165098011" class="zone" data-layer="2" data-zone="EST"/>
<polygon points="3.5355339059327378,3.5355339059327373 6.666842796235228,9.977635347630542 2.7778511650980113,4.157348061512726" class="zone" data-layer="2" data-zone="SUD"/>
<polygon points="1.9134171618254492,4.619397662556434 6.666842796235228,9.977635347630542 2.7778511650980113,4.157348061512726" class="zone" data-layer="2" data-zone="SUD"/>
<polygon points="1.9134171618254492,4.619397662556434 2.34108386419354,11.769423364838765 0.9754516100806416,4.903926402016152" class="zone" data-layer="2" data-zone="SUD"/>
<polygon points="3.061616997868383e-16,5 2.34108386419354,11.769423364838765 0.9754516100806416,4.903926402016152" class="zone" data-layer="2" data-zone="SUD"/>
<polygon points="3.061616997868383e-16,5 -2.3410838641935356,11.769423364838767 -0.9754516100806399,4.903926402016153" class="zone" data-layer="2" data-zone="SUD"/>
<polygon points="-1.9134171618254485,4.619397662556434 -2.3410838641935356,11.769423364838767 -0.9754516100806399,4.903926402016153" class="zone" data-layer="2" data-zone="SUD"/>
<polygon points="-1.9134171618254485,4.619397662556434 -6.666842796235228,9.977635347630542 -2.7778511650980113,4.157348061512725" class="zone" data-layer="2" data-zone="SUD"/>
<polygon points="-3.5355339059327373,3.5355339059327378 -6.666842796235228,9.977635347630542 -2.7778511650980113,4.157348061512725" class="zone" data-layer="2" data-zone="SUD"/>
<polygon points="-3.5355339059327373,3.5355339059327378 -9.977635347630544,6.666842796235226 -4.157348061512726,2.777851165098011" class="zone" data-layer="2" data-zone="OUEST"/>
<polygon points="-4.619397662556434,1.9134171618254494 -9.977635347630544,6.666842796235226 -4.157348061512726,2.777851165098011" class="zone" data-layer="2" data-zone="OUEST"/>
<polygon points="-4.619397662556434,1.9134171618254494 -11.769423364838765,2.341083864193538 -4.903926402016152,0.9754516100806409" class="zone" data-layer="2" data-zone="OUEST"/>
<polygon points="-5,6.123233995736766e-16 -11.769423364838765,2.341083864193538 -4.903926402016152,0.9754516100806409" class="zone" data-layer="2" data-zone="OUEST"/>
<polygon points="-5,6.123233995736766e-16 -11.769423364838767,-2.3410838641935348 -4.903926402016153,-0.9754516100806396" class="zone" data-layer="2" data-zone="OUEST"/>
<polygon points="-4.619397662556435,-1.913417161825446 -11.769423364838767,-2.3410838641935348 -4.903926402016153,-0.9754516100806396" class="zone" data-layer="2" data-zone="OUEST"/>
<polygon points="-4.619397662556435,-1.913417161825446 -9.977635347630542,-6.666842796235228 -4.157348061512726,-2.7778511650980113" class="zone" data-layer="2" data-zone="OUEST"/>
<polygon points="-3.5355339059327386,-3.5355339059327373 -9.977635347630542,-6.666842796235228 -4.157348061512726,-2.7778511650980113" class="zone" data-layer="2" data-zone="OUEST"/>
<polygon points="-3.5355339059327386,-3.5355339059327373 -6.666842796235235,-9.977635347630537 -2.777851165098015,-4.157348061512724" class="zone" data-layer="2" data-zone="NORD"/>
<polygon points="-1.9134171618254476,-4.619397662556434 -6.666842796235235,-9.977635347630537 -2.777851165098015,-4.157348061512724" class="zone" data-layer="2" data-zone="NORD"/>
<polygon points="-1.9134171618254476,-4.619397662556434 -2.341083864193544,-11.769423364838763 -0.9754516100806433,-4.903926402016151" class="zone" data-layer="2" data-zone="NORD"/>
<polygon points="-9.184850993605148e-16,-5 -2.341083864193544,-11.769423364838763 -0.9754516100806433,-4.903926402016151" class="zone" data-layer="2" data-zone="NORD"/>
<polygon points="-9.184850993605148e-16,-5 2.3410838641935396,-11.769423364838765 0.9754516100806415,-4.903926402016152" class="zone" data-layer="2" data-zone="NORD"/>
<polygon points="1.91341716182545,-4.619397662556433 2.3410838641935396,-11.769423364838765 0.9754516100806415,-4.903926402016152" class="zone" data-layer="2" data-zone="NORD"/>
<polygon points="1.91341716182545,-4.619397662556433 6.666842796235223,-9.977635347630546 2.777851165098009,-4.157348061512727" class="zone" data-layer="2" data-zone="NORD"/>
<polygon points="3.535533905932737,-3.5355339059327386 6.666842796235223,-9.977635347630546 2.777851165098009,-4.157348061512727" class="zone" data-layer="2" data-zone="NORD"/>
<polygon points="3.535533905932737,-3.5355339059327386 9.977635347630542,-6.666842796235226 4.157348061512726,-2.777851165098011" class="zone" data-layer="2" data-zone="EST"/>
<polygon points="4.619397662556434,-1.9134171618254479 9.977635347630542,-6.666842796235226 4.157348061512726,-2.777851165098011" class="zone" data-layer="2" data-zone="EST"/>
<polygon points="4.619397662556434,-1.9134171618254479 11.769423364838763,-2.3410838641935445 4.903926402016151,-0.9754516100806436" class="zone" data-layer="2" data-zone="EST"/>
<polygon points="5,-1.2246467991473533e-15 11.769423364838763,-2.3410838641935445 4.903926402016151,-0.9754516100806436" class="zone" data-layer="2" data-zone="EST"/>
<polygon points="12,0 20,0 18.477590650225736,7.653668647301796 11.08655439013544,4.592201188381077" class="zone" data-layer="3" data-zone="EST"/>
<polygon points="11.08655439013544,4.592201188381077 18.477590650225736,7.653668647301796 14.142135623730951,14.14213562373095 8.485281374238571,8.48528137423857" class="zone" data-layer="3" data-zone="EST"/>
<polygon points="8.485281374238571,8.48528137423857 14.142135623730951,14.14213562373095 7.653668647301797,18.477590650225736 4.592201188381078,11.08655439013544" class="zone" data-layer="3" data-zone="SUD"/>
<polygon points="4.592201188381078,11.08655439013544 7.653668647301797,18.477590650225736 1.2246467991473533e-15,20 7.347880794884119e-16,12" class="zone" data-layer="3" data-zone="SUD"/>
<polygon points="7.347880794884119e-16,12 1.2246467991473533e-15,20 -7.653668647301794,18.477590650225736 -4.592201188381077,11.08655439013544" class="zone" data-layer="3" data-zone="SUD"/>
<polygon points="-4.592201188381077,11.08655439013544 -7.653668647301794,18.477590650225736 -14.14213562373095,14.142135623730951 -8.48528137423857,8.485281374238571" class="zone" data-layer="3" data-zone="SUD"/>
<polygon points="-8.48528137423857,8.485281374238571 -14.14213562373095,14.142135623730951 -18.477590650225736,7.653668647301798 -11.08655439013544,4.592201188381079" class="zone" data-layer="3" data-zone="OUEST"/>
<polygon points="-11.08655439013544,4.592201188381079 -18.477590650225736,7.653668647301798 -20,2.4492935982947065e-15 -12,1.4695761589768238e-15" class="zone" data-layer="3" data-zone="OUEST"/>
<polygon points="-12,1.4695761589768238e-15 -20,2.4492935982947065e-15 -18.47759065022574,-7.653668647301784 -11.086554390135444,-4.592201188381071" class="zone" data-layer="3" data-zone="OUEST"/>
<polygon points="-11.086554390135444,-4.592201188381071 -18.47759065022574,-7.653668647301784 -14.142135623730955,-14.14213562373095 -8.485281374238571,-8.48528137423857" class="zone" data-layer="3" data-zone="OUEST"/>
<polygon points="-8.485281374238571,-8.48528137423857 -14.142135623730955,-14.14213562373095 -7.6536686473017905,-18.477590650225736 -4.592201188381074,-11.086554390135442" class="zone" data-layer="3" data-zone="NORD"/>
<polygon points="-4.592201188381074,-11.086554390135442 -7.6536686473017905,-18.477590650225736 -3.673940397442059e-15,-20 -2.204364238465236e-15,-12" class="zone" data-layer="3" data-zone="NORD"/>
<polygon points="-2.204364238465236e-15,-12 -3.673940397442059e-15,-20 7.6536686473018,-18.477590650225732 4.59220118838108,-11.08655439013544" class="zone" data-layer="3" data-zone="NORD"/>
<polygon points="4.59220118838108,-11.08655439013544 7.6536686473018,-18.477590650225732 14.142135623730947,-14.142135623730955 8.485281374238568,-8.485281374238571" class="zone" data-layer="3" data-zone="NORD"/>
<polygon points="8.485281374238568,-8.485281374238571 14.142135623730947,-14.142135623730955 18.477590650225736,-7.653668647301791 11.086554390135442,-4.5922011883810745" class="zone" data-layer="3" data-zone="EST"/>
<polygon points="11.086554390135442,-4.5922011883810745 18.477590650225736,-7.653668647301791 20,-4.898587196589413e-15 12,-2.9391523179536475e-15" class="zone" data-layer="3" data-zone="EST"/>
<polygon points="20,0 28.442773131693684,5.657619338467719 19.61570560806461,3.9018064403225647" class="zone" data-layer="4" data-zone="EST"/>
<polygon points="18.477590650225736,7.653668647301796 28.442773131693684,5.657619338467719 19.61570560806461,3.9018064403225647" class="zone" data-layer="4" data-zone="EST"/>
<polygon points="18.477590650225736,7.653668647301796 24.112618756773813,16.111536757568462 16.629392246050905,11.111404660392044" class="zone" data-layer="4" data-zone="EST"/>
<polygon points="14.142135623730951,14.14213562373095 24.112618756773813,16.111536757568462 16.629392246050905,11.111404660392044" class="zone" data-layer="4" data-zone="EST"/>
<polygon points="14.142135623730951,14.14213562373095 16.111536757568466,24.112618756773813 11.111404660392045,16.629392246050905" class="zone" data-layer="4" data-zone="SUD"/>
<polygon points="7.653668647301797,18.477590650225736 16.111536757568466,24.112618756773813 11.111404660392045,16.629392246050905" class="zone" data-layer="4" data-zone="SUD"/>
<polygon points="7.653668647301797,18.477590650225736 5.657619338467722,28.442773131693684 3.9018064403225665,19.61570560806461" class="zone" data-layer="4" data-zone="SUD"/>
<polygon points="1.2246467991473533e-15,20 5.657619338467722,28.442773131693684 3.9018064403225665,19.61570560806461" class="zone" data-layer="4" data-zone="SUD"/>
<polygon points="1.2246467991473533e-15,20 -5.657619338467711,28.442773131693684 -3.9018064403225594,19.615705608064612" class="zone" data-layer="4" data-zone="SUD"/>
<polygon points="-7.653668647301794,18.477590650225736 -5.657619338467711,28.442773131693684 -3.9018064403225594,19.615705608064612" class="zone" data-layer="4" data-zone="SUD"/>
<polygon points="-7.653668647301794,18.477590650225736 -16.111536757568466,24.11261875677381 -11.111404660392045,16.6293922460509" class="zone" data-layer="4" data-zone="SUD"/>
<polygon points="-14.14213562373095,14.142135623730951 -16.111536757568466,24.11261875677381 -11.111404660392045,16.6293922460509" class="zone" data-layer="4" data-zone="SUD"/>
<polygon points="-14.14213562373095,14.142135623730951 -24.112618756773816,16.111536757568462 -16.629392246050905,11.111404660392044" class="zone" data-layer="4" data-zone="OUEST"/>
<polygon points="-18.477590650225736,7.653668647301798 -24.112618756773816,16.111536757568462 -16.629392246050905,11.111404660392044" class="zone" data-layer="4" data-zone="OUEST"/>
<polygon points="-18.477590650225736,7.653668647301798 -28.442773131693684,5.6576193384677165 -19.61570560806461,3.9018064403225634" class="zone" data-layer="4" data-zone="OUEST"/>
<polygon points="-20,2.4492935982947065e-15 -28.442773131693684,5.6576193384677165 -19.61570560806461,3.9018064403225634" class="zone" data-layer="4" data-zone="OUEST"/>
<polygon points="-20,2.4492935982947065e-15 -28.442773131693684,-5.657619338467709 -19.615705608064612,-3.9018064403225585" class="zone" data-layer="4" data-zone="OUEST"/>
<polygon points="-18.47759065022574,-7.653668647301784 -28.442773131693684,-5.657619338467709 -19.615705608064612,-3.9018064403225585" class="zone" data-layer="4" data-zone="OUEST"/>
<polygon points="-18.47759065022574,-7.653668647301784 -24.112618756773813,-16.111536757568466 -16.629392246050905,-11.111404660392045" class="zone" data-layer="4" data-zone="OUEST"/>
<polygon points="-14.142135623730955,-14.14213562373095 -24.112618756773813,-16.111536757568466 -16.629392246050905,-11.111404660392045" class="zone" data-layer="4" data-zone="OUEST"/>
<polygon points="-14.142135623730955,-14.14213562373095 -16.111536757568487,-24.1126187567738 -11.11140466039206,-16.629392246050894" class="zone" data-layer="4" data-zone="NORD"/>
<polygon points="-7.6536686473017905,-18.477590650225736 -16.111536757568487,-24.1126187567738 -11.11140466039206,-16.629392246050894" class="zone" data-layer="4" data-zone="NORD"/>
<polygon points="-7.6536686473017905,-18.477590650225736 -5.657619338467732,-28.44277313169368 -3.901806440322573,-19.615705608064605" class="zone" data-layer="4" data-zone="NORD"/>
<polygon points="-3.673940397442059e-15,-20 -5.657619338467732,-28.44277313169368 -3.901806440322573,-19.615705608064605" class="zone" data-layer="4" data-zone="NORD"/>
<polygon points="-3.673940397442059e-15,-20 5.657619338467721,-28.442773131693684 3.901806440322566,-19.61570560806461" class="zone" data-layer="4" data-zone="NORD"/>
<polygon points="7.6536686473018,-18.477590650225732 5.657619338467721,-28.442773131693684 3.901806440322566,-19.61570560806461" class="zone" data-layer="4" data-zone="NORD"/>
<polygon points="7.6536686473018,-18.477590650225732 16.111536757568455,-24.11261875677382 11.111404660392036,-16.62939224605091" class="zone" data-layer="4" data-zone="NORD"/>
<polygon points="14.142135623730947,-14.142135623730955 16.111536757568455,-24.11261875677382 11.111404660392036,-16.62939224605091" class="zone" data-layer="4" data-zone="NORD"/>
<polygon points="14.142135623730947,-14.142135623730955 24.112618756773813,-16.111536757568462 16.629392246050905,-11.111404660392044" class="zone" data-layer="4" data-zone="EST"/>
<polygon points="18.477590650225736,-7.653668647301791 24.112618756773813,-16.111536757568462 16.629392246050905,-11.111404660392044" class="zone" data-layer="4" data-zone="EST"/>
<polygon points="18.477590650225736,-7.653668647301791 28.44277313169368,-5.6576193384677325 19.615705608064605,-3.9018064403225745" class="zone" data-layer="4" data-zone="EST"/>
<polygon points="20,-4.898587196589413e-15 28.44277313169368,-5.6576193384677325 19.615705608064605,-3.9018064403225745" class="zone" data-layer="4" data-zone="EST"/>
<polygon points="29,0 39,0 36.031301767940185,14.924653862238502 26.792506442827314,11.097819538587604" class="zone" data-layer="5" data-zone="EST"/>
<polygon points="26.792506442827314,11.097819538587604 36.031301767940185,14.924653862238502 27.577164466275356,27.577164466275352 20.50609665440988,20.506096654409877" class="zone" data-layer="5" data-zone="EST"/>
<polygon points="20.50609665440988,20.506096654409877 27.577164466275356,27.577164466275352 14.924653862238504,36.031301767940185 11.097819538587606,26.792506442827314" class="zone" data-layer="5" data-zone="SUD"/>
<polygon points="11.097819538587606,26.792506442827314 14.924653862238504,36.031301767940185 2.388061258337339e-15,39 1.7757378587636622e-15,29" class="zone" data-layer="5" data-zone="SUD"/>
<polygon points="1.7757378587636622e-15,29 2.388061258337339e-15,39 -14.924653862238499,36.031301767940185 -11.097819538587602,26.792506442827314" class="zone" data-layer="5" data-zone="SUD"/>
<polygon points="-11.097819538587602,26.792506442827314 -14.924653862238499,36.031301767940185 -27.577164466275352,27.577164466275356 -20.506096654409877,20.50609665440988" class="zone" data-layer="5" data-zone="SUD"/>
<polygon points="-20.506096654409877,20.50609665440988 -27.577164466275352,27.577164466275356 -36.031301767940185,14.924653862238506 -26.792506442827314,11.097819538587608" class="zone" data-layer="5" data-zone="OUEST"/>
<polygon points="-26.792506442827314,11.097819538587608 -36.031301767940185,14.924653862238506 -39,4.776122516674678e-15 -29,3.5514757175273244e-15" class="zone" data-layer="5" data-zone="OUEST"/>
<polygon points="-29,3.5514757175273244e-15 -39,4.776122516674678e-15 -36.03130176794019,-14.924653862238479 -26.79250644282732,-11.097819538587588" class="zone" data-layer="5" data-zone="OUEST"/>
<polygon points="-26.79250644282732,-11.097819538587588 -36.03130176794019,-14.924653862238479 -27.57716446627536,-27.577164466275352 -20.506096654409884,-20.506096654409877" class="zone" data-layer="5" data-zone="OUEST"/>
<polygon points="-20.506096654409884,-20.506096654409877 -27.57716446627536,-27.577164466275352 -14.924653862238491,-36.031301767940185 -11.097819538587595,-26.792506442827317" class="zone" data-layer="5" data-zone="NORD"/>
<polygon points="-11.097819538587595,-26.792506442827317 -14.924653862238491,-36.031301767940185 -7.164183775012016e-15,-39 -5.327213576290986e-15,-29" class="zone" data-layer="5" data-zone="NORD"/>
<polygon points="-5.327213576290986e-15,-29 -7.164183775012016e-15,-39 14.924653862238511,-36.03130176794018 11.09781953858761,-26.792506442827314" class="zone" data-layer="5" data-zone="NORD"/>
<polygon points="11.09781953858761,-26.792506442827314 14.924653862238511,-36.03130176794018 27.577164466275345,-27.57716446627536 20.506096654409873,-20.506096654409884" class="zone" data-layer="5" data-zone="NORD"/>
<polygon points="20.506096654409873,-20.506096654409884 27.577164466275345,-27.57716446627536 36.031301767940185,-14.924653862238493 26.792506442827317,-11.097819538587597" class="zone" data-layer="5" data-zone="EST"/>
<polygon points="26.792506442827317,-11.097819538587597 36.031301767940185,-14.924653862238493 39,-9.552245033349356e-15 29,-7.102951435054649e-15" class="zone" data-layer="5" data-zone="EST"/>
<polygon points="39,0 47.07769345935506,9.364335456774157 38.250625935725985,7.6085225586290015" class="zone" data-layer="6" data-zone="EST"/>
<polygon points="36.031301767940185,14.924653862238502 47.07769345935506,9.364335456774157 38.250625935725985,7.6085225586290015" class="zone" data-layer="6" data-zone="EST"/>
<polygon points="36.031301767940185,14.924653862238502 39.91054139052217,26.667371184940905 32.42731487979926,21.667239087764486" class="zone" data-layer="6" data-zone="EST"/>
<polygon points="27.577164466275356,27.577164466275352 39.91054139052217,26.667371184940905 32.42731487979926,21.667239087764486" class="zone" data-layer="6" data-zone="EST"/>
<polygon points="27.577164466275356,27.577164466275352 26.66737118494091,39.91054139052217 21.66723908776449,32.42731487979926" class="zone" data-layer="6" data-zone="SUD"/>
<polygon points="14.924653862238504,36.031301767940185 26.66737118494091,39.91054139052217 21.66723908776449,32.42731487979926" class="zone" data-layer="6" data-zone="SUD"/>
<polygon points="14.924653862238504,36.031301767940185 9.36433545677416,47.07769345935506 7.608522558629005,38.250625935725985" class="zone" data-layer="6" data-zone="SUD"/>
<polygon points="2.388061258337339e-15,39 9.36433545677416,47.07769345935506 7.608522558629005,38.250625935725985" class="zone" data-layer="6" data-zone="SUD"/>
<polygon points="2.388061258337339e-15,39 -9.364335456774143,47.07769345935507 -7.608522558628991,38.25062593572599" class="zone" data-layer="6" data-zone="SUD"/>
<polygon points="-14.924653862238499,36.031301767940185 -9.364335456774143,47.07769345935507 -7.608522558628991,38.25062593572599" class="zone" data-layer="6" data-zone="SUD"/>
<polygon points="-14.924653862238499,36.031301767940185 -26.66737118494091,39.91054139052217 -21.66723908776449,32.42731487979926" class="zone" data-layer="6" data-zone="SUD"/>
<polygon points="-27.577164466275352,27.577164466275356 -26.66737118494091,39.91054139052217 -21.66723908776449,32.42731487979926" class="zone" data-layer="6" data-zone="SUD"/>
<polygon points="-27.577164466275352,27.577164466275356 -39.91054139052218,26.667371184940905 -32.42731487979927,21.667239087764486" class="zone" data-layer="6" data-zone="OUEST"/>
<polygon points="-36.031301767940185,14.924653862238506 -39.91054139052218,26.667371184940905 -32.42731487979927,21.667239087764486" class="zone" data-layer="6" data-zone="OUEST"/>
<polygon points="-36.031301767940185,14.924653862238506 -47.07769345935506,9.364335456774151 -38.250625935725985,7.608522558628999" class="zone" data-layer="6" data-zone="OUEST"/>
<polygon points="-39,4.776122516674678e-15 -47.07769345935506,9.364335456774151 -38.250625935725985,7.608522558628999" class="zone" data-layer="6" data-zone="OUEST"/>
<polygon points="-39,4.776122516674678e-15 -47.07769345935507,-9.364335456774139 -38.25062593572599,-7.608522558628989" class="zone" data-layer="6" data-zone="OUEST"/>
<polygon points="-36.03130176794019,-14.924653862238479 -47.07769345935507,-9.364335456774139 -38.25062593572599,-7.608522558628989" class="zone" data-layer="6" data-zone="OUEST"/>
<polygon points="-36.03130176794019,-14.924653862238479 -39.91054139052217,-26.66737118494091 -32.42731487979926,-21.66723908776449" class="zone" data-layer="6" data-zone="OUEST"/>
<polygon points="-27.57716446627536,-27.577164466275352 -39.91054139052217,-26.66737118494091 -32.42731487979926,-21.66723908776449" class="zone" data-layer="6" data-zone="OUEST"/>
<polygon points="-27.57716446627536,-27.577164466275352 -26.66737118494094,-39.91054139052215 -21.667239087764514,-32.42731487979925" class="zone" data-layer="6" data-zone="NORD"/>
<polygon points="-14.924653862238491,-36.031301767940185 -26.66737118494094,-39.91054139052215 -21.667239087764514,-32.42731487979925" class="zone" data-layer="6" data-zone="NORD"/>
<polygon points="-14.924653862238491,-36.031301767940185 -9.364335456774176,-47.077693459355054 -7.6085225586290175,-38.250625935725985" class="zone" data-layer="6" data-zone="NORD"/>
<polygon points="-7.164183775012016e-15,-39 -9.364335456774176,-47.077693459355054 -7.6085225586290175,-38.250625935725985" class="zone" data-layer="6" data-zone="NORD"/>
<polygon points="-7.164183775012016e-15,-39 9.364335456774159,-47.07769345935506 7.608522558629004,-38.250625935725985" class="zone" data-layer="6" data-zone="NORD"/>
<polygon points="14.924653862238511,-36.03130176794018 9.364335456774159,-47.07769345935506 7.608522558629004,-38.250625935725985" class="zone" data-layer="6" data-zone="NORD"/>
<polygon points="14.924653862238511,-36.03130176794018 26.66737118494089,-39.910541390522184 21.66723908776447,-32.427314879799276" class="zone" data-layer="6" data-zone="NORD"/>
<polygon points="27.577164466275345,-27.57716446627536 26.66737118494089,-39.910541390522184 21.66723908776447,-32.427314879799276" class="zone" data-layer="6" data-zone="NORD"/>
<polygon points="27.577164466275345,-27.57716446627536 39.91054139052217,-26.667371184940905 32.42731487979926,-21.667239087764486" class="zone" data-layer="6" data-zone="EST"/>
<polygon points="36.031301767940185,-14.924653862238493 39.91054139052217,-26.667371184940905 32.42731487979926,-21.667239087764486" class="zone" data-layer="6" data-zone="EST"/>
<polygon points="36.031301767940185,-14.924653862238493 47.077693459355054,-9.364335456774178 38.250625935725985,-7.60852255862902" class="zone" data-layer="6" data-zone="EST"/>
<polygon points="39,-9.552245033349356e-15 47.077693459355054,-9.364335456774178 38.250625935725985,-7.60852255862902" class="zone" data-layer="6" data-zone="EST"/>
</svg>
